{"glyphs":{":":{"x_min":0,"x_max":213,"ha":213,"o":"m 50 48 l 50 54 q 59 60 61 62 q 80 76 88 84 q 94 90 104 96 q 120 83 132 78 q 147 71 153 64 q 163 55 163 50 q 163 47 153 28 q 149 19 115 -2 q 107 5 105 8 q 96 18 81 28 q 79 30 69 44 q 56 45 50 48 z m 103 300 q 112 293 145 276 q 154 271 160 261 q 163 256 163 252 q 163 248 156 241 q 152 233 152 230 q 151 228 145 225 q 144 225 137 218 q 133 214 117 202 q 106 211 104 214 q 97 222 81 234 l 69 248 q 66 250 54 250 l 51 253 q 50 254 50 255 q 50 258 83 284 q 91 293 103 300 z"},"$":{"x_min":0,"x_max":574,"ha":574,"o":"m 85 121 q 85 125 91 140 l 93 153 q 94 155 99 159 q 100 168 103 178 q 118 172 122 167 q 125 162 126 151 q 132 145 135 144 q 149 133 152 130 q 154 127 157 119 q 163 119 164 118 l 173 109 q 176 106 204 97 q 229 83 237 81 q 243 79 258 78 q 264 84 266 89 q 266 92 267 109 l 269 132 l 269 138 l 269 147 l 269 148 l 272 211 q 273 213 271 216 q 267 226 267 254 l 268 276 q 268 281 263 294 q 256 296 253 301 q 250 305 248 307 q 232 312 221 312 q 218 312 215 312 q 205 323 198 323 l 191 318 l 190 318 q 188 319 178 325 q 165 331 157 337 q 147 345 138 352 q 138 368 137 373 q 134 386 134 388 q 134 394 145 415 q 159 415 160 417 q 162 417 166 429 q 159 438 159 442 q 159 445 163 451 q 176 452 182 457 l 180 470 q 190 475 218 494 q 220 495 225 495 q 229 495 235 494 q 244 507 256 510 q 265 511 271 516 q 272 534 272 542 q 272 555 263 565 q 270 577 274 579 q 275 580 286 583 l 286 582 l 299 584 q 302 575 302 570 q 302 564 301 555 q 300 546 300 538 q 300 529 306 523 q 308 521 315 516 l 329 519 l 334 518 l 363 517 q 381 512 395 512 q 396 505 398 503 q 399 500 411 499 q 408 487 401 482 q 374 462 371 462 q 363 462 357 477 q 339 477 316 482 q 304 484 300 485 q 300 479 300 475 q 300 472 302 454 q 302 450 292 441 q 292 438 299 427 q 301 424 301 418 l 301 418 q 301 411 301 400 q 300 390 300 385 q 300 380 301 368 q 312 361 325 358 q 325 353 325 350 q 325 334 329 318 q 331 312 331 312 q 333 312 340 346 l 346 354 q 355 351 359 351 q 361 350 369 343 q 371 341 388 339 q 395 338 419 325 q 451 309 467 280 q 457 276 457 270 q 457 257 474 257 q 477 236 478 228 l 478 228 l 476 212 l 467 213 q 466 213 466 213 l 468 196 q 468 196 467 195 q 466 193 462 181 q 458 167 453 159 q 449 154 420 118 l 376 84 l 361 70 q 319 55 312 55 q 309 55 304 55 q 301 43 301 39 l 302 21 l 302 4 q 304 -11 304 -13 q 304 -35 283 -35 q 274 -35 260 -26 q 262 -17 262 -14 q 264 9 265 11 q 270 25 270 27 q 270 34 259 43 q 252 50 246 50 q 246 50 231 47 q 230 47 229 47 q 215 47 195 56 q 178 64 166 65 q 164 67 161 77 q 158 88 146 88 q 140 88 126 83 q 110 97 108 99 q 93 114 85 121 z m 191 409 q 193 404 194 404 l 216 392 l 227 381 l 232 379 q 251 374 268 374 q 276 389 276 397 q 276 404 269 416 q 277 424 277 432 q 277 434 277 437 l 268 442 q 271 457 271 475 q 262 477 255 477 q 248 477 233 467 q 223 460 202 436 q 195 428 191 409 z m 291 159 l 292 156 q 304 148 304 142 l 301 124 l 301 102 l 299 86 q 302 81 307 81 l 309 81 l 313 81 q 315 81 320 81 q 327 88 329 90 l 344 98 q 358 107 366 112 q 391 133 401 171 l 401 171 l 399 197 q 399 199 404 207 l 416 205 l 418 216 l 418 217 q 418 221 395 235 l 388 257 l 377 263 q 376 278 366 289 q 359 287 352 280 q 349 277 346 277 q 343 277 332 283 q 325 285 302 288 l 299 285 l 299 247 l 289 242 l 294 230 l 300 227 q 300 216 300 208 q 300 202 300 197 q 302 186 302 184 q 302 175 289 160 z"},"?":{"x_min":0,"x_max":394,"ha":394,"o":"m 204 554 q 208 549 211 549 q 211 549 217 551 q 220 552 223 552 q 226 552 238 550 l 268 552 q 287 547 292 545 q 298 543 311 534 q 327 529 346 523 q 350 512 362 496 q 374 479 374 466 q 374 440 347 438 l 349 425 q 340 417 327 400 l 320 394 q 301 376 289 367 q 281 373 278 373 q 273 373 264 365 l 269 357 l 269 357 q 269 349 252 333 q 226 310 226 298 q 226 281 241 269 l 233 265 q 235 251 244 246 q 235 229 219 229 q 210 229 197 233 q 183 237 180 242 q 179 243 176 253 q 175 258 168 268 q 171 273 177 277 l 175 287 q 181 295 192 304 l 202 320 l 210 330 q 217 341 222 346 q 226 349 230 354 q 242 365 269 385 q 282 397 298 408 q 299 423 308 440 q 309 442 309 445 q 309 463 286 487 l 282 494 l 273 491 q 264 499 257 501 q 240 506 236 507 q 227 508 223 511 l 227 515 q 227 516 227 517 q 227 522 220 522 q 212 522 202 511 q 188 513 179 513 q 178 513 154 511 l 138 512 l 125 507 q 112 505 104 499 q 95 493 79 483 l 88 457 q 77 445 67 430 q 59 428 47 421 q 39 417 35 417 l 33 417 l 21 419 q 17 426 17 437 q 17 448 22 458 q 23 460 35 474 l 42 484 l 58 493 q 81 514 84 517 q 86 518 113 530 l 129 539 l 146 542 l 167 550 q 192 551 204 554 z m 154 60 l 155 68 q 165 75 168 77 q 189 89 194 94 q 199 99 208 104 q 217 95 245 76 q 258 67 263 49 q 258 43 250 29 q 250 29 235 19 q 224 11 216 3 q 205 13 193 27 q 178 42 173 49 q 168 56 154 60 z"},"<":{"x_min":0,"x_max":574,"ha":574,"o":"m 40 264 l 40 268 q 51 272 68 272 q 77 273 81 278 q 85 282 90 297 q 105 301 138 313 l 143 333 q 159 338 166 340 q 170 342 191 358 q 214 370 216 371 q 220 375 224 384 l 248 381 q 255 389 257 394 q 259 401 263 410 l 283 410 q 288 426 291 427 l 310 437 l 346 459 l 366 466 l 378 476 q 396 487 398 490 q 401 493 409 506 l 434 503 l 441 533 l 478 530 q 483 544 488 551 q 497 562 526 572 q 523 562 523 560 l 521 505 q 521 502 518 498 q 515 493 490 485 q 477 480 466 468 q 456 456 450 450 l 428 452 l 417 438 l 400 435 l 392 418 l 375 415 l 366 400 l 346 400 q 338 392 322 382 q 318 380 312 367 l 293 369 q 287 348 281 345 q 278 343 251 342 q 244 337 231 331 q 222 325 221 324 q 221 324 208 306 q 205 299 188 294 q 180 280 173 280 q 172 280 171 280 q 167 281 158 282 l 129 252 q 145 245 164 245 q 168 240 183 219 l 203 218 q 208 212 213 205 q 222 193 236 193 l 249 193 l 250 193 q 257 193 259 189 q 265 162 267 157 l 307 164 l 329 127 l 352 129 l 358 110 l 380 112 q 392 101 415 87 q 419 84 428 68 q 438 66 449 66 q 461 64 469 46 q 479 44 482 43 q 496 41 502 38 q 504 24 507 19 l 522 13 q 527 -3 527 -6 q 527 -8 519 -28 q 519 -33 519 -34 q 524 -42 528 -49 q 504 -40 498 -33 q 492 -28 487 -16 q 482 -15 479 -15 q 478 -15 475 -16 q 472 -16 470 -16 q 468 -16 451 5 q 447 9 415 18 q 409 19 396 42 l 391 42 q 381 43 376 45 q 371 47 365 59 l 347 59 l 337 75 q 320 81 316 86 q 309 98 304 103 l 279 98 l 270 119 q 257 121 252 122 q 227 125 224 131 q 221 135 218 152 q 210 152 204 152 q 194 152 189 156 q 188 157 170 180 q 166 184 143 186 l 136 204 q 122 206 115 208 q 112 210 93 222 l 78 229 l 59 250 q 57 254 40 264 z"},"'":{"x_min":0,"x_max":213,"ha":213,"o":"m 135 580 q 141 574 141 571 q 141 570 130 542 l 97 525 q 138 512 138 510 q 138 507 131 500 q 138 472 138 467 l 138 436 q 138 432 139 422 l 131 412 q 138 386 142 354 q 135 345 126 326 q 125 322 113 314 q 105 316 102 316 l 83 316 q 79 316 66 328 q 67 333 74 343 l 75 346 q 83 354 83 355 q 84 356 86 375 q 88 390 88 394 q 88 400 86 413 l 82 414 l 82 422 l 98 422 l 98 431 q 90 436 79 438 q 93 449 103 454 q 112 459 112 463 q 112 465 82 479 q 78 481 78 486 q 78 487 78 489 q 80 494 80 496 q 80 498 78 503 q 61 516 61 532 q 61 550 92 567 q 99 571 120 575 q 126 576 135 580 z"},"=":{"x_min":0,"x_max":574,"ha":574,"o":"m 81 207 q 81 217 82 232 l 82 247 q 82 249 83 257 q 102 256 141 253 l 141 251 l 148 245 q 158 253 163 253 l 164 253 l 192 251 l 203 251 l 215 249 l 226 253 l 253 232 l 268 253 q 268 253 270 251 q 272 249 278 244 q 296 254 300 254 l 335 251 l 356 252 q 360 252 370 250 q 376 254 376 254 q 387 252 388 252 q 393 252 401 253 q 408 247 411 247 q 412 247 431 255 l 450 255 l 458 256 q 476 256 486 257 q 493 250 493 248 l 491 228 l 494 214 q 494 212 491 208 q 484 208 479 208 q 477 208 474 208 q 459 204 458 204 q 455 205 450 215 q 438 206 431 207 l 430 207 q 416 206 408 220 q 408 220 399 233 l 366 208 l 349 232 l 323 209 q 322 209 319 213 l 315 207 l 288 231 l 277 219 q 271 207 266 207 l 266 207 l 244 213 l 244 213 q 241 213 238 211 q 234 209 234 209 l 213 230 l 193 209 l 177 212 l 168 209 l 151 208 l 136 207 q 127 207 123 204 z m 87 385 q 92 385 97 385 q 108 385 110 381 l 126 359 l 146 384 q 146 384 148 381 q 153 376 164 373 l 177 381 l 186 381 l 201 381 l 207 356 l 215 371 q 221 381 225 381 q 226 381 228 381 q 237 379 245 379 q 246 379 272 382 l 296 374 q 308 380 311 381 q 312 381 320 381 l 341 381 l 343 381 q 346 381 358 377 q 358 377 359 377 q 360 377 361 377 q 372 380 377 380 l 396 380 l 400 380 l 405 380 l 410 380 q 418 380 428 372 l 435 381 q 445 382 449 382 q 475 385 489 387 q 494 382 494 376 l 494 369 q 493 347 493 333 l 480 331 q 469 329 461 329 q 455 329 447 333 q 444 332 444 332 l 421 344 l 411 348 l 395 357 l 377 334 l 359 354 l 333 335 q 332 335 329 340 q 315 332 311 332 q 307 332 292 351 l 265 333 q 265 333 264 333 q 261 335 255 339 l 252 334 l 229 357 l 210 334 q 194 358 191 358 q 188 358 169 343 l 154 338 l 136 332 q 132 333 126 340 l 117 330 q 101 358 95 358 q 86 358 83 333 q 83 333 83 334 q 83 335 81 338 q 81 338 81 339 q 81 341 82 345 q 83 350 83 355 q 83 357 83 360 q 82 371 82 371 q 82 376 87 385 z"},"a":{"x_min":0,"x_max":510,"ha":510,"o":"m 152 175 q 158 185 164 188 q 167 190 193 196 q 211 205 218 207 q 222 208 247 210 l 263 216 l 272 217 l 281 218 l 300 218 l 338 223 q 355 224 360 227 q 369 233 369 246 q 369 248 365 261 l 390 293 q 390 293 360 303 q 357 304 345 304 q 324 331 320 333 q 315 335 283 340 l 268 340 q 257 343 253 343 q 250 343 242 342 l 233 354 q 222 350 216 343 q 211 338 201 334 q 176 323 159 310 l 152 306 q 146 296 144 295 q 138 292 130 292 q 127 292 112 297 q 96 301 92 304 q 87 307 81 316 q 89 322 92 325 q 101 333 104 333 l 126 338 l 141 346 l 172 356 l 192 364 l 212 364 l 234 371 l 243 371 l 260 374 q 284 374 291 374 q 297 373 317 367 l 329 365 q 348 362 355 360 q 362 360 373 350 q 365 342 365 337 q 365 331 371 331 q 375 331 382 334 q 387 336 396 339 q 402 333 402 322 l 415 313 q 416 308 416 307 l 414 288 q 419 266 425 261 l 427 261 q 428 250 431 237 q 432 209 433 200 q 421 193 421 187 q 421 179 435 173 q 435 167 435 163 q 435 158 433 146 q 433 140 433 135 q 433 119 438 95 q 429 86 429 77 q 429 70 438 58 q 438 56 441 49 q 442 45 446 36 q 441 29 438 23 q 435 20 423 16 l 405 7 l 393 4 q 375 -2 373 -2 q 368 -2 362 3 l 370 36 q 355 32 329 21 l 314 18 q 302 15 301 15 l 283 17 l 265 7 l 255 6 l 216 -2 l 195 0 q 180 -6 175 -6 q 168 -6 137 0 l 116 2 l 101 9 q 84 15 76 21 q 68 27 64 40 l 53 44 q 51 49 48 62 l 43 83 l 43 83 q 43 87 50 97 q 55 104 63 122 q 87 146 95 152 q 102 158 126 167 q 140 176 143 176 q 147 176 152 175 z m 122 72 q 118 65 115 59 q 109 50 110 47 l 110 47 l 115 38 l 128 49 q 145 38 151 37 q 169 32 171 31 q 174 29 179 21 q 190 20 194 19 q 198 19 201 19 q 206 19 214 25 q 221 21 226 21 q 227 21 236 27 l 250 24 q 250 24 276 33 l 289 39 l 300 37 l 318 45 l 340 53 q 348 66 350 68 q 354 72 367 76 l 370 91 q 379 96 381 105 q 374 110 371 115 q 372 124 372 127 l 372 135 q 371 148 371 158 q 370 161 370 163 q 370 169 374 180 q 370 181 363 186 l 342 186 l 323 187 l 308 186 l 299 186 q 297 186 284 194 l 273 190 q 254 190 245 188 q 239 185 235 185 q 234 185 224 188 q 223 188 223 188 q 220 188 207 179 q 205 178 182 169 q 150 156 137 144 q 135 142 126 129 q 123 125 109 121 q 107 117 107 115 q 107 114 111 109 l 114 83 q 115 80 122 72 z"},"L":{"x_min":0,"x_max":745,"ha":745,"o":"m 70 -152 q 74 -146 82 -140 q 89 -135 105 -122 q 104 -117 104 -113 q 104 -111 107 -108 q 123 -86 140 -64 q 145 -57 161 -42 l 120 -32 l 162 -5 l 121 35 l 122 51 l 123 65 q 130 83 130 91 l 130 92 l 130 106 q 130 114 140 119 l 145 122 l 153 120 q 153 120 154 121 q 156 124 156 125 q 156 129 144 140 l 144 153 l 130 149 l 126 153 q 129 165 129 168 l 128 190 l 130 233 q 130 236 126 257 q 129 269 130 278 l 137 278 q 137 291 143 304 q 126 306 126 313 q 126 316 128 323 q 129 329 129 344 q 129 350 129 359 q 130 367 130 371 q 130 376 129 380 q 127 385 127 387 q 127 389 130 394 l 139 394 l 141 402 l 133 404 l 133 407 q 133 414 137 419 l 143 428 q 143 429 149 430 l 150 437 l 139 441 l 143 455 q 136 451 131 451 q 124 451 124 461 q 124 462 126 481 l 126 482 l 124 521 l 124 542 q 124 547 123 556 q 123 561 123 562 q 123 573 127 590 l 122 597 l 122 639 q 125 640 125 641 q 125 642 125 653 q 119 665 119 670 q 119 672 119 676 q 112 684 112 687 l 111 706 q 110 720 109 724 q 109 730 102 740 l 93 742 l 88 756 q 99 762 102 764 q 114 770 125 771 l 134 774 l 143 779 l 151 787 l 157 789 q 182 800 194 800 q 205 800 205 791 l 205 776 l 208 764 q 202 755 202 749 q 202 743 203 734 q 203 726 204 708 l 206 708 l 206 705 q 199 703 195 703 q 192 703 187 704 l 185 702 q 184 693 174 688 l 185 671 l 197 673 l 204 661 l 209 661 l 210 660 q 204 648 188 632 l 182 600 l 159 575 l 166 556 l 170 491 q 171 488 187 481 q 201 476 201 469 q 201 469 200 468 q 200 466 198 460 l 190 459 q 202 449 202 423 q 202 413 187 404 q 192 394 194 390 q 202 376 202 368 q 202 368 197 352 l 198 348 q 198 348 198 348 q 197 346 197 339 q 198 298 197 284 q 197 280 197 272 q 197 259 197 247 q 198 242 198 239 q 198 236 196 233 l 196 235 l 186 228 q 188 212 198 202 l 197 197 l 199 127 l 199 120 q 199 114 199 111 q 199 105 192 72 l 190 46 l 186 39 q 185 38 185 30 q 182 16 181 7 l 192 9 q 197 -5 197 -7 l 196 -84 q 196 -94 207 -97 q 215 -99 222 -104 q 227 -104 230 -104 q 233 -104 246 -107 l 265 -109 l 297 -117 l 326 -117 l 342 -139 l 382 -119 l 399 -122 l 413 -124 l 426 -128 q 426 -128 444 -125 q 447 -125 449 -125 q 453 -125 471 -129 q 495 -125 496 -125 q 503 -125 521 -127 q 527 -127 532 -127 q 539 -127 554 -124 l 578 -122 q 601 -118 627 -116 q 638 -115 642 -113 q 648 -111 652 -111 q 653 -111 666 -134 q 666 -134 667 -134 q 674 -134 681 -122 q 684 -115 684 -100 q 701 -95 706 -93 q 736 -79 744 -79 q 744 -79 746 -80 q 746 -94 743 -98 l 735 -108 l 718 -133 q 708 -143 701 -151 l 689 -151 l 684 -161 l 653 -138 l 588 -162 q 588 -162 584 -160 q 576 -158 551 -158 l 549 -158 q 545 -158 470 -163 l 438 -159 q 420 -162 419 -162 q 409 -162 399 -153 q 383 -138 383 -138 l 332 -158 l 320 -155 l 308 -154 l 296 -153 q 264 -152 256 -151 l 262 -147 l 241 -147 l 238 -158 q 229 -153 226 -150 q 219 -146 209 -145 q 193 -158 174 -158 q 163 -158 146 -155 q 134 -163 121 -163 q 117 -163 104 -160 q 84 -156 70 -152 z"},"3":{"x_min":0,"x_max":574,"ha":574,"o":"m 151 564 q 162 563 165 562 q 177 559 178 559 l 189 560 q 214 559 222 559 q 230 559 243 555 l 276 556 l 295 554 q 310 554 315 554 q 321 555 353 572 q 357 565 357 561 q 357 560 351 539 q 349 525 349 524 q 348 523 339 505 q 329 487 302 451 l 271 401 q 268 398 258 387 q 272 381 284 381 q 288 381 292 381 q 301 382 303 382 q 303 382 322 378 q 344 377 349 375 q 354 373 364 365 q 370 365 375 364 q 379 364 400 353 l 431 339 l 451 311 q 458 303 459 290 l 446 276 q 455 268 456 265 q 459 257 459 222 q 459 212 454 191 q 454 176 447 157 q 444 148 441 146 q 437 143 431 140 l 416 109 q 406 96 402 86 q 396 67 393 64 l 375 49 l 371 36 l 348 15 q 333 -6 325 -14 l 325 -21 l 322 -21 q 310 -33 295 -38 q 290 -45 288 -46 l 275 -55 q 273 -56 269 -61 q 234 -91 208 -92 q 203 -106 188 -115 q 187 -116 180 -119 q 155 -128 153 -128 q 148 -128 137 -120 l 116 -121 q 111 -115 111 -109 q 111 -93 147 -88 l 159 -82 l 170 -81 q 196 -68 204 -66 q 214 -65 216 -64 q 218 -63 229 -55 q 232 -53 243 -47 q 251 -43 272 -27 l 275 -26 q 281 -18 282 -17 q 286 -15 300 -14 l 297 -1 q 312 10 332 32 l 335 32 l 338 35 q 334 42 334 48 q 334 50 341 58 l 350 74 q 367 98 370 104 q 372 108 380 133 l 383 145 q 385 152 385 158 l 389 168 l 390 174 l 391 181 q 391 183 387 185 q 386 188 386 190 q 386 194 391 211 q 383 219 383 222 l 380 235 l 373 250 l 419 262 l 397 273 l 389 282 q 385 286 373 288 l 366 288 l 367 295 q 361 330 358 331 q 358 331 358 330 q 351 313 348 287 q 327 303 315 309 q 313 321 309 328 l 306 328 l 299 320 l 293 320 l 287 314 q 280 319 269 319 l 261 320 l 246 319 l 235 321 q 217 321 215 321 q 209 321 200 313 l 180 300 l 167 292 l 154 289 q 138 282 135 282 q 130 282 123 284 q 127 293 128 297 q 133 312 139 315 q 144 317 156 319 q 162 336 166 339 q 167 339 186 349 q 193 352 201 362 q 203 366 207 378 q 208 383 218 391 q 220 401 222 413 q 223 425 226 428 l 242 446 l 249 463 q 262 489 262 491 q 263 493 264 502 q 256 508 245 508 l 223 508 q 221 508 212 510 q 203 513 173 514 l 131 519 l 131 519 q 126 519 110 508 q 102 503 96 503 q 84 503 84 513 q 84 522 104 534 l 114 541 q 127 547 141 554 q 144 556 151 564 z"},";":{"x_min":0,"x_max":213,"ha":213,"o":"m 32 -153 q 31 -151 31 -149 q 31 -147 35 -146 q 48 -135 53 -135 q 55 -135 56 -136 l 56 -137 l 66 -137 l 72 -128 q 84 -125 98 -115 q 99 -107 102 -104 q 105 -100 115 -93 q 116 -84 116 -81 q 117 -67 122 -57 l 121 -44 l 125 -32 q 125 -32 123 -28 q 121 -27 120 -20 q 115 11 102 17 q 95 21 92 26 l 86 28 q 84 35 81 40 l 60 38 l 56 42 q 57 51 84 72 q 93 81 105 95 q 123 93 132 85 q 143 76 148 68 l 149 58 l 151 45 l 155 32 l 156 23 q 159 6 159 2 q 159 -2 152 -13 q 151 -16 151 -20 q 151 -24 151 -27 q 154 -45 154 -45 q 153 -52 144 -72 q 139 -80 129 -90 l 129 -94 l 133 -98 l 133 -100 l 134 -102 q 125 -114 122 -118 q 110 -136 93 -149 q 83 -158 77 -158 l 59 -158 q 58 -158 44 -157 q 37 -157 32 -153 z m 51 254 l 51 259 q 60 266 63 268 q 79 279 103 301 q 113 293 147 274 q 162 264 163 252 l 163 251 l 157 240 q 151 228 144 223 q 128 212 123 208 q 119 204 117 204 q 114 204 98 221 l 82 234 l 70 248 q 67 250 54 250 z"},"J":{"x_min":0,"x_max":680,"ha":680,"o":"m 33 -54 l 27 -61 q 28 -71 30 -73 l 39 -80 q 41 -81 47 -95 q 55 -105 88 -136 q 93 -136 95 -137 q 96 -138 102 -148 q 104 -153 110 -157 q 123 -166 123 -166 l 170 -148 l 195 -151 q 198 -151 206 -147 l 208 -141 q 225 -135 230 -132 q 239 -129 244 -129 l 270 -131 l 271 -131 q 275 -130 292 -114 l 304 -109 l 315 -103 q 330 -102 337 -98 l 333 -88 q 340 -83 357 -79 q 362 -77 371 -72 q 378 -68 399 -59 l 445 -23 q 447 -22 458 -18 q 462 -1 463 0 q 463 2 478 22 l 481 32 l 505 86 q 517 119 517 121 q 516 128 515 133 q 515 134 515 134 q 515 142 529 150 q 557 167 557 182 q 557 188 552 190 l 530 202 l 519 233 q 514 246 514 246 q 514 250 519 253 q 523 256 553 271 l 520 286 q 512 290 512 297 q 512 297 512 299 q 519 303 524 310 q 527 314 532 316 q 526 324 518 328 q 517 335 517 338 q 517 347 516 350 q 517 351 511 356 q 511 366 511 374 q 511 380 511 385 q 508 405 508 406 q 508 410 515 426 q 518 433 521 445 q 511 453 511 463 q 511 465 511 469 l 501 475 l 502 481 l 502 551 l 502 568 q 501 589 496 601 q 496 601 496 601 l 503 609 l 508 616 q 540 635 540 636 q 540 638 496 658 q 496 675 496 677 q 497 680 501 685 q 498 691 498 696 q 498 697 498 698 q 500 705 500 705 l 500 708 l 498 717 q 493 729 493 739 l 475 748 q 472 752 464 756 l 467 768 q 484 773 488 775 q 491 776 512 792 l 529 801 l 541 811 l 553 815 q 563 821 565 821 q 574 821 582 814 q 587 809 586 805 l 582 771 l 579 735 q 579 731 572 720 q 569 715 569 711 q 569 710 570 708 q 577 701 580 693 q 536 663 536 660 q 536 653 553 647 q 579 639 580 628 q 580 628 579 627 q 578 624 577 618 q 563 614 563 606 q 563 604 565 600 l 575 600 q 575 592 575 588 q 575 577 578 562 q 565 553 565 533 q 565 528 567 524 l 578 525 l 581 516 l 583 419 q 583 416 576 392 q 575 391 575 390 q 575 388 583 369 l 586 341 l 589 328 l 588 307 l 591 285 q 594 243 594 238 q 594 233 591 221 q 590 219 590 215 q 590 210 591 204 l 588 204 l 577 194 l 577 171 q 579 169 581 169 q 584 169 587 170 q 593 154 593 146 q 593 139 587 122 q 583 106 582 103 q 580 100 576 100 q 574 100 563 102 q 567 92 567 90 l 566 79 l 564 62 l 557 50 q 548 34 544 30 q 542 28 529 17 q 529 16 519 1 q 514 -7 494 -24 q 469 -46 464 -52 q 453 -62 434 -75 q 421 -86 414 -90 q 409 -92 381 -104 q 364 -114 354 -118 q 348 -120 325 -132 q 316 -136 298 -143 q 278 -153 271 -155 q 267 -156 244 -159 q 238 -160 217 -170 l 204 -172 l 176 -179 l 157 -180 q 131 -185 122 -185 q 103 -185 79 -179 q 63 -175 59 -173 q 44 -165 32 -153 l 25 -148 l 23 -143 q 18 -131 17 -117 l 26 -112 q 16 -94 11 -92 q 2 -88 2 -86 q 2 -85 1 -65 l 0 -54 l -1 -34 l -2 -21 q -1 -12 9 -12 q 17 -12 21 -23 q 29 -45 33 -54 z"},"V":{"x_min":0,"x_max":771,"ha":771,"o":"m 17 734 q 29 735 31 737 l 45 749 l 62 761 l 80 774 q 84 776 91 776 q 95 776 101 776 q 105 762 126 716 q 126 715 126 713 q 126 710 124 690 l 115 688 l 107 670 l 116 669 l 117 669 l 127 673 l 129 671 l 130 662 l 141 656 l 146 630 l 152 629 q 156 616 167 591 q 175 564 181 556 q 173 548 173 542 q 173 541 178 534 q 185 522 188 517 l 197 515 q 209 472 212 470 l 227 443 l 235 422 q 248 396 248 387 q 248 383 243 373 l 242 373 l 239 370 l 242 363 l 250 365 l 255 361 l 260 371 l 261 369 l 264 369 q 267 356 270 349 q 271 347 288 314 q 297 289 315 254 q 324 238 324 226 q 324 218 312 208 l 320 189 l 333 189 q 339 181 341 178 q 350 166 350 164 l 354 148 l 365 126 q 373 107 385 88 q 392 77 404 43 q 406 39 413 31 q 436 8 436 4 q 436 -2 426 -13 l 437 -21 q 445 -12 448 -8 q 450 -4 453 8 q 457 27 459 36 l 474 83 q 485 125 489 133 q 493 142 502 153 l 513 158 q 514 161 514 162 q 514 162 511 173 q 511 175 511 176 q 511 183 515 193 q 521 211 524 221 l 541 274 q 544 288 552 301 q 567 327 567 336 q 567 341 567 347 q 572 354 572 354 l 582 390 l 594 429 l 597 447 q 606 472 607 475 q 610 480 624 483 q 622 491 622 495 q 622 498 624 504 l 614 517 l 615 517 l 644 591 l 651 610 l 655 624 l 664 656 q 661 673 661 674 q 661 680 667 695 l 677 691 q 677 695 677 698 q 677 700 676 705 q 675 707 675 708 l 681 734 l 681 747 q 681 749 688 762 q 707 766 713 768 q 721 771 732 782 q 738 787 744 788 q 757 780 757 774 q 757 771 752 763 q 742 748 736 723 q 729 698 710 654 l 705 636 l 683 569 l 677 563 l 654 482 l 654 481 q 647 479 646 473 q 645 470 638 449 l 636 437 l 633 426 q 625 396 620 381 q 614 365 613 361 q 608 344 604 341 q 604 340 595 333 q 593 331 592 327 q 588 305 587 304 q 586 302 578 296 l 578 292 q 585 286 585 282 q 585 280 582 274 q 575 264 568 234 l 559 205 l 555 188 l 544 163 l 535 125 q 516 76 510 55 q 507 42 503 39 q 499 36 489 31 l 489 23 l 493 19 l 501 18 q 500 14 485 -41 l 484 -56 l 482 -67 l 479 -88 q 474 -111 472 -123 l 461 -121 l 461 -139 q 457 -142 445 -145 q 416 -158 410 -159 q 406 -153 405 -152 l 394 -110 l 375 -63 q 360 -19 358 -15 q 354 -8 341 3 q 341 15 339 18 l 333 34 l 326 51 l 315 71 l 308 87 q 301 99 301 101 q 301 102 305 105 q 309 108 309 115 q 312 119 312 125 l 303 126 l 297 146 q 292 145 284 139 q 282 137 279 137 q 276 137 275 140 q 274 141 273 160 q 273 166 247 225 q 247 226 241 258 q 230 261 227 265 q 226 267 221 285 q 204 321 201 331 q 198 344 196 354 q 199 360 199 363 q 199 368 194 375 l 184 373 q 174 382 173 386 l 166 406 q 147 445 146 448 q 146 452 146 458 q 146 461 146 468 q 131 477 132 479 q 129 482 122 501 q 120 508 110 525 l 122 529 l 123 544 l 120 548 l 109 550 q 111 576 111 589 q 111 624 104 660 q 101 672 101 672 q 96 672 89 562 q 81 576 64 615 q 59 625 59 630 q 59 636 59 638 q 51 646 50 648 l 32 684 q 13 720 13 724 q 13 727 17 734 z"},"\"":{"x_min":0,"x_max":357,"ha":357,"o":"m 135 580 q 141 574 141 571 q 141 570 130 542 l 97 525 q 138 512 138 510 q 138 507 131 500 q 138 472 138 467 l 138 436 q 138 432 139 422 l 131 412 q 138 386 142 354 q 135 345 126 326 q 125 322 113 314 q 105 316 102 316 l 83 316 q 79 316 66 328 q 67 333 74 343 l 75 346 q 83 354 83 355 q 84 356 86 375 q 88 390 88 394 q 88 400 86 413 l 82 414 l 82 422 l 98 422 l 98 431 q 90 436 79 438 q 93 449 103 454 q 112 459 112 463 q 112 465 82 479 q 78 481 78 486 q 78 487 78 489 q 80 494 80 496 q 80 498 78 503 q 61 516 61 532 q 61 550 92 567 q 99 571 120 575 q 126 576 135 580 z m 271 575 q 276 579 280 580 q 286 574 286 569 l 286 567 l 276 557 l 272 541 q 241 526 241 525 q 241 524 242 524 q 259 513 284 512 l 275 500 q 278 491 278 488 q 284 469 284 460 q 284 460 282 443 l 282 424 l 275 406 q 283 384 284 374 q 285 362 287 354 q 279 346 273 331 q 273 329 266 322 q 259 314 258 314 l 246 317 l 226 316 q 218 317 211 327 q 210 328 210 330 q 210 331 227 357 q 230 376 231 413 l 226 414 l 226 422 l 242 422 l 242 428 l 243 429 q 238 434 231 436 q 227 438 223 439 q 254 452 254 463 q 254 464 249 475 q 243 499 241 501 q 240 502 223 510 q 206 518 206 535 q 206 545 219 556 q 242 574 271 575 z"},"7":{"x_min":0,"x_max":574,"ha":574,"o":"m 90 -124 q 94 -114 94 -111 q 96 -104 114 -66 q 114 -66 112 -65 q 116 -59 121 -52 q 133 -36 134 -33 q 142 -20 153 -13 l 151 3 q 160 8 161 13 q 166 22 186 52 q 188 55 193 80 l 207 84 l 207 98 q 216 106 217 110 l 221 121 q 242 153 247 164 q 255 167 254 167 q 256 170 258 179 q 260 189 273 210 l 290 237 l 299 250 l 309 269 l 316 282 q 322 297 324 300 q 327 305 341 312 l 338 328 q 346 336 349 341 q 350 342 369 382 l 388 414 l 390 431 q 400 446 400 447 q 400 447 401 457 q 402 468 405 480 l 313 480 l 307 480 l 307 492 l 295 494 l 294 494 q 284 494 284 481 l 283 479 q 271 483 267 483 q 265 483 246 480 q 243 489 238 489 q 232 489 227 477 l 217 517 l 199 478 q 178 478 173 476 q 156 471 145 463 q 133 456 124 455 q 115 462 115 471 q 115 472 146 504 l 175 524 l 186 536 l 208 544 l 224 551 q 244 547 247 547 q 251 547 256 547 q 266 541 268 541 l 303 538 q 322 530 329 527 l 327 541 q 341 537 346 537 q 347 537 375 543 l 413 540 q 414 540 418 541 l 424 546 l 429 534 l 451 528 l 457 545 q 468 550 471 551 q 486 556 488 559 l 498 568 q 500 571 510 571 q 523 571 523 561 q 523 554 513 546 q 488 521 471 477 l 465 470 l 456 456 q 435 434 433 430 q 430 424 427 412 q 421 409 416 401 l 405 386 l 402 375 q 392 360 392 354 q 392 352 392 350 q 381 345 380 341 l 375 328 l 369 317 l 355 289 q 345 280 344 279 q 343 277 338 267 q 336 264 320 238 q 314 228 311 219 q 304 204 290 182 q 285 172 274 164 q 274 154 273 152 q 271 147 250 110 q 229 76 225 66 l 213 63 l 214 50 l 214 48 q 214 42 211 37 q 209 34 196 25 q 191 21 190 16 q 189 15 189 -1 q 189 -2 177 -24 q 175 -28 171 -46 q 167 -58 163 -62 l 156 -69 q 152 -71 152 -81 l 152 -95 q 152 -99 146 -105 q 137 -114 136 -115 l 134 -130 q 126 -147 120 -154 q 118 -156 110 -163 q 101 -165 94 -166 q 79 -176 73 -178 q 70 -179 54 -183 q 49 -179 49 -175 q 49 -167 62 -146 q 72 -130 75 -127 q 78 -124 90 -124 z"},"S":{"x_min":0,"x_max":966,"ha":966,"o":"m 19 16 q 20 20 33 42 l 38 56 q 56 77 56 79 q 57 80 59 90 q 62 90 65 90 q 69 90 71 88 q 76 83 80 78 q 87 65 87 65 l 85 50 l 88 37 l 87 22 q 93 0 103 -12 l 113 -8 l 113 -8 q 115 -8 117 -9 q 119 -10 126 -34 q 128 -42 136 -48 q 165 -72 171 -76 l 233 -100 l 251 -111 q 269 -113 272 -114 q 274 -115 295 -125 q 355 -137 365 -138 l 419 -140 q 429 -140 444 -140 q 452 -140 454 -139 q 460 -138 460 -138 l 475 -142 q 483 -138 519 -133 q 522 -134 535 -139 q 540 -139 542 -139 q 546 -139 555 -127 q 557 -124 561 -124 q 564 -124 568 -125 q 572 -125 575 -125 q 576 -125 610 -114 l 622 -113 l 641 -104 q 677 -93 685 -88 q 690 -85 720 -66 q 739 -49 743 -46 q 746 -42 763 -19 l 773 -10 l 783 6 q 791 16 792 19 q 793 20 794 30 q 793 34 809 58 q 812 63 814 73 q 827 74 831 77 q 835 79 837 90 l 835 92 l 825 92 l 832 112 q 825 120 825 124 q 825 126 832 137 q 834 143 837 164 q 847 193 848 200 q 848 212 850 226 l 860 226 l 860 233 l 844 231 q 841 247 824 296 l 832 305 l 830 310 q 842 310 848 310 q 883 310 883 317 q 883 327 827 328 q 822 318 815 318 q 813 318 805 324 q 802 327 767 341 q 754 350 747 352 q 732 356 708 359 l 696 363 q 671 372 669 372 q 668 372 667 372 l 667 373 l 665 375 l 665 373 q 663 369 662 369 l 624 378 l 616 375 q 595 373 593 373 q 590 373 585 376 q 584 386 574 386 q 570 386 559 377 q 556 374 548 374 l 548 374 q 543 374 534 375 q 524 376 522 376 q 489 376 489 376 l 467 413 q 464 418 459 418 q 448 418 435 377 q 434 414 424 424 q 422 426 418 428 q 412 431 412 431 q 375 378 373 378 q 373 378 353 385 q 328 388 318 393 q 305 399 305 399 l 292 401 l 287 402 l 273 402 l 261 408 q 231 421 222 428 q 203 443 184 474 q 173 491 173 502 q 173 508 174 516 q 165 528 165 539 q 173 547 173 549 l 177 579 q 188 604 190 605 q 211 629 231 652 l 252 667 l 277 687 l 293 694 l 310 703 l 387 736 q 412 749 421 752 q 452 762 469 767 l 531 783 l 549 787 l 638 795 l 679 799 q 679 799 699 797 l 724 795 l 737 792 q 758 789 795 779 l 799 761 q 788 752 784 750 q 776 745 774 743 q 766 737 761 734 q 750 740 747 741 l 731 741 l 704 750 l 686 749 q 685 749 672 765 q 661 780 640 780 q 621 780 611 771 q 605 767 599 752 q 592 759 589 759 l 583 759 q 562 759 544 752 l 499 744 l 458 730 q 439 735 438 735 q 433 735 419 729 l 419 718 l 369 699 l 364 689 q 334 685 317 664 q 310 667 305 667 q 295 667 288 650 q 267 644 252 625 q 231 597 231 574 q 231 562 234 540 q 236 529 247 519 q 274 494 285 491 l 308 484 q 333 476 340 454 q 341 453 346 451 q 351 448 356 448 q 358 448 367 451 q 368 452 371 452 q 374 452 377 451 q 378 460 381 465 q 389 462 391 462 l 414 465 l 451 458 q 451 458 463 459 q 466 459 468 459 q 478 459 503 453 l 505 439 q 513 438 518 438 q 520 438 525 438 q 520 443 520 447 q 520 453 529 453 l 545 452 l 657 452 q 661 448 661 445 q 661 440 658 434 q 665 426 668 426 q 673 426 682 438 q 688 436 692 436 q 693 436 717 446 q 726 444 727 443 q 759 439 768 435 l 786 425 l 847 406 q 848 405 856 399 q 863 395 868 392 q 889 380 894 374 q 896 372 899 362 q 895 354 895 350 q 895 348 896 344 l 911 343 q 924 320 923 296 q 931 263 931 255 l 931 240 l 931 233 q 931 219 931 215 q 931 211 931 209 q 931 201 923 187 q 922 186 922 184 q 922 180 925 170 q 918 162 917 159 l 917 147 q 903 116 897 110 l 897 96 l 884 78 l 883 75 q 882 72 882 71 q 882 66 885 61 q 873 46 870 41 q 861 27 847 11 l 830 -14 l 819 -23 l 799 -44 q 782 -61 776 -68 q 772 -73 769 -73 l 769 -73 l 760 -69 l 764 -62 l 739 -79 l 742 -92 q 717 -109 678 -127 q 642 -145 632 -146 l 603 -149 q 560 -158 543 -164 l 513 -168 l 500 -171 l 483 -171 l 463 -172 q 446 -167 444 -167 q 438 -167 427 -167 q 416 -167 407 -161 q 396 -172 383 -172 q 381 -172 368 -165 q 365 -163 360 -163 l 328 -164 q 324 -164 317 -163 q 311 -146 295 -146 q 288 -146 283 -157 q 274 -152 262 -147 q 251 -143 239 -143 q 223 -136 218 -134 q 207 -132 198 -129 l 198 -117 q 184 -113 183 -110 q 181 -110 177 -96 l 168 -98 l 167 -112 q 163 -112 131 -102 l 73 -54 l 71 -54 q 71 -46 69 -44 q 67 -42 58 -33 q 56 -31 38 -7 q 28 8 19 16 z"},"}":{"x_min":0,"x_max":408,"ha":408,"o":"m 108 794 q 114 800 118 810 q 130 809 134 809 q 162 807 170 803 l 184 796 q 198 792 200 790 q 206 785 217 769 q 230 748 230 739 l 232 722 l 237 708 l 238 668 q 243 647 243 645 q 243 641 240 622 q 234 617 232 610 l 242 603 q 242 596 242 593 q 242 588 242 584 q 243 578 243 575 q 243 567 233 556 q 241 543 241 532 l 240 513 l 240 432 l 237 419 q 246 412 247 410 q 249 407 250 394 q 255 389 262 378 q 266 374 282 366 q 286 364 289 358 q 296 345 296 327 q 296 313 290 305 q 289 303 276 292 q 262 277 252 270 q 239 249 220 225 q 218 223 218 221 q 218 219 244 203 q 247 201 247 195 q 247 190 245 174 q 244 169 244 164 q 244 155 246 150 q 247 145 247 144 q 247 144 243 129 q 243 128 243 127 q 243 126 250 114 q 251 111 251 109 q 251 109 249 90 q 248 84 248 67 q 248 56 249 50 q 250 38 250 35 q 250 34 248 20 l 249 -3 l 246 -22 l 248 -44 l 243 -59 l 244 -74 q 244 -77 241 -86 q 239 -90 237 -100 l 224 -104 l 224 -120 q 213 -129 208 -137 q 202 -140 199 -142 q 190 -147 188 -147 q 183 -147 175 -139 q 174 -143 173 -144 q 169 -153 159 -153 q 158 -153 146 -151 q 145 -151 144 -151 q 144 -151 128 -153 l 127 -152 l 126 -149 q 123 -138 113 -125 q 125 -104 145 -100 l 155 -93 q 180 -79 185 -73 q 189 -68 189 -62 q 189 -59 187 -52 q 194 -42 194 -34 q 194 -32 192 -7 l 193 14 l 190 27 l 190 65 l 188 92 q 194 114 194 115 q 194 116 188 130 l 220 157 l 200 170 q 190 217 190 217 q 190 218 196 236 q 197 238 197 240 q 197 240 194 252 q 191 265 191 276 q 191 285 198 292 q 200 295 214 308 l 222 320 q 229 327 229 329 q 229 330 220 339 q 215 345 207 356 q 187 382 187 394 q 187 396 192 416 q 188 429 188 430 q 188 433 190 447 q 191 451 191 456 l 187 502 l 187 502 q 187 508 201 517 q 215 526 215 530 q 215 536 186 540 l 196 550 q 186 563 186 568 q 186 572 188 574 l 214 594 q 216 596 216 598 q 216 601 186 616 l 189 636 q 181 660 181 664 q 181 668 181 674 l 194 674 q 195 678 195 681 q 195 685 190 690 l 180 691 q 178 703 177 707 q 174 725 170 734 l 160 736 l 153 749 q 143 750 135 757 q 119 757 115 761 q 108 769 107 781 z"},"Z":{"x_min":0,"x_max":837,"ha":837,"o":"m 31 -119 l 31 -104 q 40 -96 52 -79 q 61 -69 68 -61 q 71 -57 89 -50 q 100 -46 100 -36 q 100 -32 96 -23 q 108 -12 111 -7 q 119 5 121 6 q 122 7 137 10 q 143 11 144 13 q 145 14 147 22 l 143 37 q 143 39 155 54 q 166 66 172 66 q 172 79 174 79 q 176 82 185 92 q 205 119 212 129 l 222 129 q 235 146 235 157 q 235 161 235 165 q 245 175 274 216 l 280 223 q 293 240 296 243 q 298 245 316 254 q 326 260 326 270 l 326 271 l 323 285 q 332 293 357 329 q 373 347 374 347 q 374 348 379 357 q 392 379 405 398 l 417 395 l 434 408 q 432 417 430 420 q 427 427 427 430 q 427 439 452 439 l 448 467 q 457 476 484 514 q 494 523 494 524 q 495 524 500 539 q 507 554 517 554 q 521 554 527 553 q 528 560 533 565 q 536 569 536 572 q 536 573 532 593 q 536 597 540 601 q 542 602 546 609 q 552 617 557 618 q 558 619 577 619 q 583 619 590 640 q 578 645 578 653 q 578 658 587 672 q 598 689 600 691 q 604 696 614 702 l 614 704 q 607 729 601 729 l 582 705 l 476 705 q 450 705 443 709 q 430 717 426 717 q 423 717 413 707 q 395 707 386 707 q 377 707 370 707 q 361 707 359 707 l 332 708 l 331 708 q 330 709 322 707 q 314 705 312 705 l 296 707 q 270 707 261 708 q 256 708 251 708 l 229 707 l 229 707 q 225 707 223 708 q 221 708 221 708 l 203 707 l 202 707 q 176 721 170 721 l 157 708 q 141 711 115 711 l 103 713 q 82 713 80 714 q 73 715 62 721 l 62 724 q 70 731 79 734 q 84 737 99 751 q 120 766 126 766 l 126 766 l 153 761 q 179 760 202 755 q 219 751 225 751 q 267 750 268 749 q 268 749 274 744 q 280 739 292 739 q 295 739 309 745 q 335 746 347 748 l 348 747 l 348 731 q 355 729 357 729 q 360 729 388 736 q 393 737 402 738 l 407 744 l 456 744 q 466 727 480 727 q 491 727 506 740 l 521 738 l 525 748 q 534 748 538 748 q 543 748 558 749 l 596 750 l 609 751 q 615 750 633 743 l 637 749 l 644 747 q 652 751 663 752 q 665 752 672 753 q 685 754 701 754 q 708 754 724 754 l 724 748 l 729 748 l 731 732 q 721 725 721 724 q 715 715 713 709 q 709 704 688 678 q 667 651 665 649 q 662 646 654 642 l 650 646 q 641 636 630 631 q 623 628 623 620 q 623 615 625 607 l 614 590 l 621 585 l 552 495 l 539 501 q 529 489 529 482 q 529 478 531 471 l 521 454 l 511 457 q 515 449 515 446 q 515 438 500 423 q 485 407 481 400 l 456 358 l 448 351 q 438 333 434 328 q 427 322 422 315 q 411 315 405 311 q 393 303 393 298 q 393 296 394 293 q 400 284 400 281 q 400 271 383 253 q 375 245 374 244 l 370 231 q 367 223 346 200 q 342 200 340 200 q 334 200 326 192 l 328 173 q 322 167 287 119 q 281 110 269 106 l 274 91 q 263 84 257 73 q 219 15 207 3 q 198 16 192 16 q 189 16 187 12 q 188 5 189 3 q 191 -3 191 -6 q 191 -9 185 -15 l 190 -26 q 183 -38 181 -42 q 164 -74 161 -78 q 154 -87 153 -91 q 164 -107 168 -107 l 191 -110 l 215 -120 l 241 -99 q 255 -104 265 -104 q 268 -116 276 -116 q 281 -116 286 -114 q 297 -111 309 -111 q 324 -103 326 -103 q 329 -103 332 -104 q 336 -104 344 -105 q 353 -106 369 -114 q 378 -119 388 -119 q 397 -119 403 -101 q 406 -100 406 -100 l 429 -105 l 451 -104 l 467 -105 l 479 -104 q 499 -108 500 -108 q 503 -108 526 -102 q 529 -102 531 -102 q 538 -102 558 -104 q 567 -105 577 -105 q 584 -105 602 -99 l 625 -117 q 642 -96 643 -96 q 645 -96 658 -111 q 663 -116 666 -116 q 674 -116 689 -102 q 696 -96 701 -96 q 701 -96 703 -97 q 715 -99 720 -99 q 721 -99 789 -80 l 804 -76 q 818 -68 823 -67 l 824 -67 l 836 -69 l 836 -91 q 828 -97 806 -124 l 795 -127 q 793 -126 785 -138 q 776 -139 772 -139 l 755 -139 l 742 -140 q 740 -140 735 -138 q 716 -133 705 -133 q 704 -133 688 -135 l 671 -133 l 657 -135 l 635 -130 l 635 -130 q 634 -130 617 -132 q 606 -127 601 -127 q 597 -127 590 -129 l 587 -141 q 575 -138 568 -137 q 565 -137 525 -137 l 501 -135 q 465 -138 454 -138 l 446 -128 q 435 -130 420 -135 q 418 -136 412 -136 q 407 -136 401 -135 l 399 -132 l 398 -129 q 376 -138 372 -138 l 299 -140 l 290 -138 q 290 -138 280 -142 q 279 -143 279 -143 q 271 -143 264 -128 q 258 -118 253 -118 q 251 -118 230 -142 q 206 -141 187 -141 q 171 -140 166 -140 q 156 -140 137 -144 q 122 -145 112 -146 l 93 -146 l 80 -146 q 74 -146 56 -140 l 46 -143 l 36 -142 l 27 -143 q 17 -143 17 -132 q 17 -123 31 -119 z"},"x":{"x_min":0,"x_max":432,"ha":432,"o":"m 150 215 l 153 232 q 146 232 142 233 q 137 234 128 244 q 110 261 92 272 q 89 293 89 294 q 89 297 85 300 l 69 298 q 60 308 56 311 q 30 333 26 339 q 38 354 55 366 q 62 370 94 378 q 99 368 101 366 l 115 351 l 130 331 l 140 318 q 147 301 151 297 q 156 293 167 292 q 173 284 185 273 q 206 250 206 247 q 206 241 204 234 q 211 225 221 223 q 234 237 243 251 q 269 251 269 271 q 269 274 268 280 l 298 311 q 298 314 298 316 q 298 320 300 325 q 300 326 312 340 q 314 343 319 352 q 324 361 326 364 q 329 366 338 373 q 359 389 367 389 q 378 389 378 378 q 378 373 375 366 q 374 364 354 339 l 340 317 l 321 298 l 302 272 l 289 260 l 277 246 q 237 209 238 196 l 255 194 l 264 183 l 273 183 q 290 164 317 138 q 333 122 349 112 l 347 97 q 355 97 364 89 l 372 92 q 390 73 397 68 q 420 51 425 46 q 427 43 431 32 q 417 15 407 10 q 394 2 391 0 q 378 -8 374 -8 q 369 -8 364 -2 l 309 59 l 292 93 l 281 91 q 264 105 260 111 q 245 128 237 133 q 229 138 222 143 q 221 156 210 169 l 202 169 q 198 165 196 158 q 194 150 193 149 q 192 147 175 133 q 151 101 131 89 q 117 78 107 55 q 92 32 84 23 q 77 15 60 5 l 56 -6 q 51 -11 46 -11 q 21 -11 21 8 q 21 14 29 24 q 56 56 86 78 q 96 85 97 86 q 98 87 125 124 q 135 132 138 134 q 145 141 151 148 q 164 163 165 164 q 178 177 178 182 q 178 188 167 197 q 154 209 150 215 z"},")":{"x_min":0,"x_max":319,"ha":319,"o":"m 11 735 l 12 736 l 23 736 q 25 745 26 748 q 32 761 32 763 q 32 769 23 779 q 28 812 44 814 q 57 798 63 794 l 81 785 l 100 769 q 114 758 120 753 q 124 750 135 730 l 141 724 l 147 713 l 157 700 q 161 692 165 686 q 168 682 172 670 l 167 663 q 179 656 183 651 q 186 648 194 628 q 194 626 198 618 q 207 599 207 591 q 210 570 215 562 q 217 551 221 543 q 226 532 226 522 q 226 521 226 520 q 225 513 225 513 q 227 507 227 506 q 227 505 227 503 l 223 499 l 230 495 q 231 481 242 443 q 243 439 244 398 l 250 383 q 248 375 248 374 q 248 372 250 332 l 250 320 q 250 319 249 306 l 250 288 l 248 273 l 247 242 l 244 227 l 243 211 l 234 190 l 234 179 q 234 177 229 159 l 223 155 l 225 145 l 198 69 q 196 64 196 63 l 196 55 l 182 29 l 180 18 q 173 5 167 -17 q 148 -28 135 -48 q 127 -62 125 -64 l 109 -81 l 98 -102 q 73 -129 67 -132 q 66 -133 56 -146 q 49 -157 25 -161 l 21 -157 q 23 -151 23 -147 q 23 -146 17 -131 q 17 -130 17 -129 q 17 -114 30 -92 q 36 -85 40 -84 q 41 -84 59 -83 q 77 -74 80 -72 q 83 -70 90 -60 l 104 -47 q 132 -6 135 -3 q 139 2 149 9 q 152 23 153 25 l 172 63 l 180 84 l 186 93 l 188 105 l 192 120 l 194 130 l 201 152 l 202 175 l 206 194 l 207 208 l 211 230 l 208 248 q 207 281 207 282 q 207 286 213 301 l 207 340 l 208 359 l 201 384 l 201 385 l 202 401 l 202 402 q 202 406 196 420 q 189 435 188 467 q 183 472 180 481 l 172 500 l 169 516 q 163 529 162 536 q 161 543 159 549 q 159 560 159 563 q 159 570 159 574 q 159 583 150 585 q 144 588 142 594 q 134 599 133 601 l 117 631 q 105 648 105 651 q 105 653 111 676 q 111 676 108 678 q 100 681 96 681 q 91 681 83 678 q 65 701 54 706 q 44 710 21 711 q 19 717 11 730 z"},"&":{"x_min":0,"x_max":663,"ha":663,"o":"m 165 296 q 189 305 205 323 q 180 330 180 345 q 180 349 181 354 l 162 350 q 157 359 149 365 q 145 369 134 384 l 136 398 l 127 403 l 135 425 l 133 425 q 132 430 132 433 q 132 444 145 458 l 155 458 q 159 467 161 469 l 176 481 l 190 497 q 193 498 202 501 l 207 512 l 224 514 q 231 524 238 527 q 241 528 260 533 l 273 539 l 282 542 q 311 558 318 559 l 318 559 q 321 557 335 536 l 358 560 q 364 565 374 565 q 385 565 402 549 q 414 541 415 539 q 416 538 417 525 q 418 521 426 509 q 422 500 418 500 q 416 500 399 519 l 372 532 l 363 538 q 356 538 355 512 l 343 519 l 337 509 q 335 509 334 509 q 331 509 320 512 q 317 514 315 514 q 312 514 304 511 q 300 510 290 508 q 281 512 277 512 q 274 512 262 506 l 245 501 l 235 496 q 226 493 222 490 q 219 488 199 470 q 180 456 179 455 q 178 455 175 441 q 171 426 169 419 q 177 409 181 407 q 188 401 190 391 q 200 386 203 383 q 214 376 223 373 q 228 372 254 365 l 266 365 l 282 359 q 312 359 324 358 q 331 357 337 357 q 341 357 362 365 l 391 367 q 405 371 407 371 q 412 371 421 365 q 416 355 411 340 q 409 332 402 330 q 373 318 371 317 q 369 316 360 309 q 352 313 347 319 q 343 323 334 325 l 327 320 q 316 341 313 341 q 310 341 305 320 q 295 341 286 341 q 283 341 280 338 l 257 311 q 248 314 247 314 q 242 314 230 309 l 236 298 l 234 296 q 230 296 228 296 q 220 296 215 294 q 214 294 199 283 q 177 271 175 270 q 174 269 166 255 q 158 248 150 239 q 144 231 130 227 q 128 216 117 196 q 114 188 111 179 q 110 175 109 155 l 106 145 l 110 132 q 112 118 120 104 q 121 101 122 98 q 127 86 138 79 q 143 67 145 65 l 159 53 q 182 29 188 25 q 191 22 213 16 q 217 15 229 15 l 249 9 l 264 9 l 281 8 l 288 9 l 308 9 l 318 14 l 333 18 l 348 26 l 372 33 q 380 37 383 37 q 385 37 388 37 q 393 45 395 46 l 428 68 q 433 71 449 93 q 464 115 464 143 q 464 159 446 169 q 432 178 432 178 l 425 188 l 414 194 l 397 209 l 381 214 l 363 222 l 356 222 l 348 228 l 330 222 q 313 220 310 217 q 304 216 287 185 q 285 182 279 171 l 285 159 l 285 159 q 285 147 268 147 q 265 147 261 148 q 257 153 245 160 q 237 164 237 173 q 237 184 243 191 q 250 199 271 216 l 290 232 l 319 244 l 332 250 l 346 254 l 358 259 l 374 261 l 386 263 l 403 259 l 411 258 l 426 252 q 439 248 448 242 q 449 217 460 217 q 463 217 465 220 l 465 230 q 475 225 478 223 q 496 211 510 206 q 521 201 521 201 q 527 201 537 205 q 548 208 555 213 q 569 223 574 226 q 590 233 589 259 l 592 277 l 592 277 q 592 284 579 297 q 572 304 571 311 q 578 316 603 324 l 611 310 q 629 305 635 300 l 638 289 l 651 287 q 650 276 650 273 q 648 243 641 232 q 641 232 627 222 q 620 208 597 195 l 589 189 q 579 188 577 188 q 576 187 563 178 q 535 171 530 168 q 524 163 524 156 q 524 151 530 140 q 521 134 521 131 q 519 114 514 104 l 495 106 q 494 98 502 89 q 495 82 484 73 l 473 62 l 454 52 q 450 49 443 39 q 441 39 439 39 q 438 39 427 35 l 425 34 l 418 30 l 400 22 q 389 13 360 1 l 334 -6 l 319 -12 l 279 -17 q 237 -25 236 -25 q 231 -25 218 -19 q 212 -27 208 -27 q 204 -27 195 -26 q 193 -25 188 -25 q 171 -23 167 -20 q 155 -7 149 -3 l 144 -15 q 128 -9 116 1 q 104 12 95 20 q 78 43 78 45 q 78 46 81 66 l 80 68 l 78 73 q 60 82 59 83 q 57 84 57 86 l 57 94 l 57 100 q 71 102 71 108 q 71 116 60 116 q 58 116 56 116 q 52 122 52 132 q 52 136 57 148 l 60 159 l 66 170 q 71 188 77 196 q 86 207 87 208 q 93 220 94 220 l 102 226 q 103 227 108 233 q 114 241 131 250 q 137 253 141 262 q 146 272 146 273 l 158 283 q 164 288 165 296 z"},"_":{"x_min":0,"x_max":574,"ha":574,"o":"m 11 -226 l 21 -192 l 13 -171 q 27 -176 32 -176 l 56 -175 l 78 -176 l 103 -168 q 124 -175 131 -175 q 146 -175 150 -173 l 165 -166 q 165 -166 166 -166 q 167 -166 191 -201 l 207 -173 l 224 -177 l 239 -171 q 255 -175 255 -175 q 260 -175 273 -167 q 283 -178 288 -178 l 289 -178 l 303 -176 l 322 -175 q 326 -175 335 -169 q 347 -179 352 -179 q 354 -179 361 -175 q 373 -168 379 -165 q 392 -183 416 -183 q 424 -183 434 -181 q 437 -181 462 -170 q 477 -173 479 -173 q 481 -173 494 -169 q 494 -169 495 -169 q 500 -169 511 -181 q 527 -175 532 -175 q 533 -175 562 -181 q 559 -193 557 -197 q 554 -203 554 -206 q 554 -208 556 -212 q 558 -216 560 -225 q 555 -197 545 -197 q 541 -197 519 -236 q 508 -221 506 -216 q 492 -192 486 -192 q 481 -192 477 -204 q 464 -233 463 -233 q 447 -233 444 -231 q 439 -230 426 -218 l 401 -233 l 385 -220 l 364 -234 q 352 -231 325 -230 q 316 -229 292 -221 l 285 -234 l 245 -222 l 236 -237 l 200 -217 q 184 -228 170 -228 q 159 -228 144 -219 l 129 -233 q 119 -231 116 -231 q 98 -230 96 -229 q 93 -230 81 -221 l 56 -232 q 47 -223 41 -223 q 37 -223 23 -225 q 19 -226 11 -226 z"},"v":{"x_min":0,"x_max":407,"ha":407,"o":"m 17 330 q 23 340 25 341 q 26 343 43 351 q 55 357 58 361 l 64 368 q 82 368 85 363 q 88 358 102 323 l 102 311 l 107 293 q 110 282 111 281 q 114 276 125 273 q 129 257 131 252 q 140 234 140 225 q 140 219 143 212 q 151 207 152 204 l 158 188 l 165 178 q 173 160 181 149 l 176 133 q 188 126 191 123 q 193 121 199 111 l 210 93 q 215 81 217 79 q 220 77 224 77 q 231 77 235 90 q 239 101 257 129 l 261 140 l 269 154 q 278 178 283 189 q 295 191 299 198 q 295 213 295 218 q 295 226 315 264 q 317 268 317 275 q 317 280 315 292 q 326 308 330 317 q 332 323 335 342 q 337 352 356 362 q 364 365 389 368 l 392 364 q 388 355 378 329 q 366 308 364 298 q 360 286 352 271 q 347 264 345 260 l 322 198 q 318 187 313 180 q 306 171 306 170 l 302 157 l 296 147 q 271 101 265 89 l 252 58 q 251 55 239 49 l 246 32 q 235 25 231 24 q 216 16 203 5 q 195 -1 194 -1 q 193 -2 187 -2 q 182 2 180 10 q 178 21 176 27 q 166 35 165 38 l 160 53 l 148 74 l 135 102 l 129 112 q 128 115 128 130 q 127 136 125 140 q 123 144 111 147 l 111 149 q 118 156 118 160 q 118 171 105 180 q 102 183 90 183 q 86 198 83 203 q 75 221 75 227 q 75 228 76 231 q 77 236 79 245 q 70 252 67 254 q 53 264 44 279 q 26 316 17 330 z"},"O":{"x_min":0,"x_max":1098,"ha":1098,"o":"m 64 349 q 70 346 76 346 q 81 346 81 354 q 81 360 67 372 q 68 383 69 386 l 78 409 q 94 464 121 505 q 139 542 145 550 q 167 583 180 598 l 185 595 l 192 603 q 192 606 192 608 q 192 617 203 629 q 211 638 236 657 q 243 670 245 671 q 247 673 250 673 l 250 673 l 262 668 l 270 683 l 268 688 q 283 698 297 700 q 299 714 304 718 q 308 722 335 733 q 349 740 354 745 q 361 752 369 752 q 376 761 378 762 l 403 773 l 422 782 l 437 787 q 455 797 473 802 q 490 805 522 807 l 546 809 l 566 812 q 582 814 584 814 q 590 814 600 813 q 605 813 609 813 q 637 812 644 810 q 668 804 668 804 l 713 808 q 713 808 717 805 q 725 795 729 792 q 731 790 753 789 q 760 788 777 780 l 789 778 l 798 774 l 805 772 q 810 771 813 757 q 819 760 822 763 q 840 758 847 754 q 853 750 858 734 q 865 740 871 740 q 874 740 913 710 q 927 700 930 696 q 933 692 935 688 q 938 684 943 676 l 935 661 l 938 661 l 938 646 q 946 652 949 652 q 956 652 967 640 l 976 640 q 981 627 984 624 q 992 611 995 601 q 1007 585 1009 578 q 1001 570 1001 563 q 1001 562 1001 560 q 1020 544 1025 533 q 1028 527 1028 494 l 1035 467 l 1036 452 q 1039 430 1039 426 q 1039 420 1037 418 q 1037 417 1026 408 q 1024 405 1024 389 q 1024 379 1029 374 q 1029 373 1039 365 q 1039 365 1043 356 q 1047 349 1047 348 q 1047 346 1044 338 q 1043 333 1043 327 q 1043 324 1043 321 q 1044 298 1044 290 q 1044 283 1035 253 l 1032 244 l 1027 230 q 1022 206 1019 201 q 1016 196 1009 189 l 1012 179 q 1002 173 1001 169 l 1001 164 q 1002 158 987 137 q 957 95 931 70 q 907 40 904 36 q 901 33 884 21 q 881 20 863 1 q 854 -9 846 -13 l 768 -62 l 753 -68 l 627 -126 l 611 -130 l 512 -156 l 508 -157 l 428 -166 l 406 -160 l 389 -157 l 374 -153 q 358 -152 355 -151 q 353 -149 350 -144 l 352 -142 l 345 -133 q 336 -133 325 -137 q 323 -137 323 -137 q 317 -137 314 -127 q 313 -126 306 -93 q 306 -92 302 -82 q 300 -79 300 -79 q 297 -79 291 -127 q 279 -119 251 -103 q 224 -86 212 -80 q 212 -72 210 -69 q 208 -66 201 -63 q 200 -54 197 -48 q 194 -42 190 -33 q 181 -33 171 -27 q 163 -29 162 -29 q 158 -29 146 -14 q 134 1 130 6 q 129 21 127 24 q 126 26 117 33 q 116 35 114 38 q 113 40 104 56 l 83 91 q 73 117 73 121 q 73 125 80 132 l 87 132 l 85 146 q 82 150 74 152 q 62 156 62 178 q 61 196 58 208 q 52 225 52 275 l 52 276 q 52 278 53 293 q 54 295 54 323 q 55 339 64 349 z m 158 130 l 163 123 l 159 122 l 172 118 q 178 101 187 92 q 192 87 193 80 q 199 71 202 67 q 193 57 193 52 q 193 47 199 42 q 204 38 209 38 q 212 38 226 43 q 230 34 233 32 l 245 23 q 259 9 276 -1 q 274 -11 274 -19 q 274 -25 279 -29 q 286 -35 296 -35 q 298 -35 303 -33 q 311 -42 324 -50 q 325 -60 328 -61 q 329 -62 334 -64 q 342 -66 354 -74 q 368 -82 371 -83 q 381 -86 392 -95 q 401 -95 429 -102 q 455 -107 460 -109 q 473 -114 476 -114 q 476 -114 484 -112 q 487 -112 492 -112 q 497 -112 502 -112 q 506 -113 509 -113 q 513 -113 521 -109 q 528 -120 535 -120 q 539 -120 563 -111 l 580 -109 q 602 -100 606 -98 q 608 -98 639 -98 l 653 -89 q 685 -74 694 -67 q 704 -74 709 -74 q 715 -74 722 -63 q 716 -56 716 -51 q 716 -47 732 -41 q 736 -40 751 -29 q 756 -24 779 -14 l 789 -22 q 797 -8 809 -2 l 810 9 q 821 15 856 44 l 872 57 l 889 80 l 905 97 l 917 121 l 931 142 q 942 169 949 179 q 948 186 948 190 q 948 201 956 201 q 958 201 962 196 q 967 189 969 188 l 979 199 q 981 199 982 199 q 992 199 992 205 q 992 210 988 218 q 976 212 968 210 q 963 218 963 223 q 963 225 967 249 l 967 268 l 1008 277 l 962 295 l 985 298 q 1007 340 1007 340 q 1007 341 1006 342 q 997 351 982 351 q 973 351 961 350 q 979 354 979 365 q 979 378 958 387 q 960 397 960 402 q 960 407 956 434 q 953 452 952 463 q 944 472 944 474 l 935 523 l 927 537 l 919 553 l 909 568 q 896 601 879 615 q 880 628 880 632 q 880 638 876 646 l 858 641 q 851 651 835 667 q 821 680 819 682 q 816 684 782 702 q 768 710 759 725 q 753 721 751 721 q 747 721 739 728 q 733 728 730 728 q 718 728 693 743 q 695 751 695 758 q 695 766 678 772 q 673 768 669 761 q 666 756 662 753 q 651 757 634 759 q 607 768 604 768 q 604 768 586 765 l 581 788 l 580 765 q 567 769 566 769 q 563 769 536 764 q 531 763 524 763 q 518 763 508 764 q 496 766 488 766 q 486 766 468 762 l 443 758 l 415 745 l 392 741 q 389 739 381 729 l 372 730 l 369 720 q 352 713 342 706 l 342 698 q 319 690 298 671 q 269 644 251 637 q 246 625 242 621 q 240 618 209 585 q 206 575 199 567 q 193 560 171 521 q 166 513 151 470 l 142 458 l 137 434 l 131 425 q 131 409 130 406 q 129 404 120 384 q 120 383 120 381 l 121 377 l 121 358 l 121 284 l 121 281 l 121 278 q 121 274 123 268 q 124 262 124 261 l 123 237 q 123 234 128 227 q 137 215 139 202 l 143 185 l 142 171 q 142 169 158 146 q 159 145 159 141 q 159 136 158 130 z m 143 126 l 146 126 l 153 124 l 156 124 l 156 124 l 156 125 l 148 127 l 143 127 z"},"(":{"x_min":0,"x_max":319,"ha":319,"o":"m 153 671 q 165 678 173 688 q 179 694 184 701 l 195 717 l 212 735 q 221 755 225 759 q 240 774 248 784 q 254 785 258 792 q 266 806 276 810 q 281 812 295 814 l 299 811 q 296 806 296 803 q 296 801 297 799 q 303 782 303 780 q 303 778 293 753 q 290 742 285 740 q 283 739 260 736 q 253 734 242 727 q 239 725 229 711 l 214 699 q 212 697 204 682 q 198 671 190 664 q 174 647 173 645 q 171 643 167 630 q 164 620 159 610 q 147 590 140 571 l 135 562 l 132 550 l 127 535 l 126 525 l 119 506 l 113 448 l 108 425 l 112 402 q 113 376 113 374 q 113 370 107 354 l 112 317 l 111 302 l 119 269 l 94 251 q 104 235 106 229 q 107 227 115 205 q 118 188 119 187 l 125 179 l 132 167 l 141 153 l 143 141 l 154 124 l 160 107 l 162 104 l 161 79 q 162 73 176 67 q 178 60 187 53 q 208 15 216 6 q 210 -10 210 -17 q 210 -26 221 -26 q 229 -26 238 -25 q 256 -47 266 -52 q 275 -56 299 -57 q 302 -65 307 -72 q 309 -76 310 -80 l 308 -82 l 297 -82 l 287 -111 q 296 -123 296 -130 q 296 -147 276 -161 q 263 -144 255 -140 l 233 -127 l 220 -115 q 200 -101 194 -92 q 186 -75 185 -75 q 185 -74 178 -68 l 175 -62 l 163 -44 q 160 -38 157 -34 q 152 -28 147 -15 l 153 -9 l 153 -7 q 142 -2 137 3 q 118 37 108 83 l 105 92 l 103 104 l 94 128 q 94 140 92 150 l 96 151 q 91 163 86 184 q 76 218 76 232 q 76 238 77 243 q 78 250 78 253 q 78 255 71 270 l 95 321 q 95 327 74 331 l 71 332 l 68 333 l 72 348 q 70 359 70 361 q 70 365 71 370 q 72 380 73 409 l 75 424 l 77 445 q 78 447 85 462 q 86 463 86 463 l 85 482 q 85 485 95 500 l 97 514 l 122 582 q 123 587 125 599 l 138 625 l 141 636 q 146 647 148 652 q 150 662 153 671 z"},"C":{"x_min":0,"x_max":1002,"ha":1002,"o":"m 71 314 q 64 318 64 324 q 64 327 70 349 q 72 362 82 397 l 103 398 q 103 404 96 417 q 95 420 95 425 q 95 431 107 464 q 111 484 119 501 q 125 511 135 528 q 142 527 144 526 q 151 523 152 523 q 156 523 162 529 q 168 530 170 532 q 172 534 174 540 l 162 541 l 157 559 l 157 559 q 157 563 172 578 q 175 582 180 588 q 186 599 188 601 q 197 609 200 619 l 204 622 q 212 635 218 639 q 221 641 238 652 l 239 651 l 253 658 l 254 669 l 317 719 q 320 722 332 728 l 345 737 l 357 740 q 376 753 378 753 q 383 753 393 749 l 399 767 l 419 763 l 421 772 q 437 777 442 779 q 460 786 478 787 l 492 792 q 509 795 511 796 q 516 798 523 805 q 530 804 535 804 q 541 804 559 811 q 566 813 575 813 q 583 813 589 811 q 595 810 596 810 l 661 812 q 680 811 695 794 q 706 782 708 782 q 717 782 725 803 q 741 792 751 792 q 755 792 758 793 q 771 796 771 796 l 787 791 q 852 774 870 766 l 870 751 l 870 751 q 862 743 860 741 q 842 722 836 722 q 831 722 820 728 q 792 739 756 752 l 750 769 q 740 767 737 766 q 729 763 728 763 q 726 763 696 773 q 687 777 685 780 q 682 784 680 787 q 664 781 660 781 l 632 781 l 593 781 l 581 782 q 559 779 547 774 l 517 771 q 498 767 487 765 q 481 764 468 756 l 444 745 l 426 733 q 373 711 354 686 q 342 683 326 672 q 326 667 324 661 q 314 656 298 640 l 286 629 q 271 609 267 607 q 263 604 259 604 q 257 604 253 604 q 256 599 256 598 q 256 596 232 557 q 213 538 210 533 q 209 530 199 507 l 189 483 l 185 469 q 171 445 167 433 q 166 425 161 404 q 154 375 153 372 q 151 365 137 362 q 138 350 148 341 q 143 329 143 325 q 143 314 147 298 q 147 296 147 296 q 147 292 143 290 l 104 275 q 100 273 100 270 q 100 268 103 264 q 110 253 112 248 q 116 237 117 237 q 127 228 139 219 l 147 196 q 150 189 151 179 l 148 179 l 151 162 l 158 160 q 164 151 164 145 l 165 145 q 167 135 167 132 q 169 117 171 114 l 180 96 q 194 61 194 54 q 194 49 184 49 l 189 37 q 199 38 204 36 q 209 34 213 31 q 223 20 232 8 l 247 -5 l 258 -20 q 277 -30 285 -36 q 285 -48 292 -53 q 302 -60 316 -65 l 338 -78 l 354 -86 l 370 -94 l 386 -100 l 397 -108 q 402 -111 407 -117 q 414 -110 420 -110 q 421 -110 477 -125 q 537 -125 540 -125 q 543 -125 548 -128 q 556 -133 562 -134 q 569 -130 570 -127 q 574 -124 576 -124 l 582 -125 l 585 -125 l 625 -120 q 634 -119 669 -110 q 687 -115 690 -115 q 698 -115 715 -104 l 738 -99 q 759 -92 766 -88 l 777 -90 q 783 -91 818 -80 q 859 -66 861 -65 q 862 -64 869 -56 l 887 -46 q 902 -38 916 -38 q 918 -38 927 -41 q 928 -28 932 -25 q 934 -22 948 -17 q 964 -7 966 -7 q 969 -7 976 -12 q 974 -38 966 -52 q 961 -59 959 -71 q 958 -75 953 -78 q 949 -81 912 -87 q 895 -94 889 -95 q 886 -96 863 -102 l 841 -106 l 818 -112 l 798 -115 q 768 -125 763 -125 q 757 -125 748 -124 q 741 -124 728 -124 l 728 -126 q 728 -136 716 -136 q 714 -136 712 -135 q 703 -134 702 -134 q 702 -134 697 -135 l 637 -149 q 618 -153 593 -154 l 556 -156 q 556 -156 554 -156 q 549 -163 542 -163 q 519 -164 503 -164 q 493 -164 470 -155 q 465 -153 458 -153 q 452 -153 445 -162 l 421 -161 q 412 -147 404 -147 l 403 -147 q 393 -147 385 -148 q 377 -149 376 -149 q 357 -149 330 -134 q 309 -122 283 -111 q 242 -86 229 -80 l 226 -71 l 236 -71 q 236 -67 236 -64 q 236 -48 224 -46 q 217 -55 212 -55 q 209 -55 195 -42 l 162 -20 l 151 -5 l 146 0 l 129 25 q 91 77 79 142 l 88 147 l 88 157 l 78 164 q 78 175 73 185 l 70 195 q 65 204 64 206 q 64 208 64 225 l 62 246 l 65 256 q 60 270 60 274 q 60 286 67 296 q 68 297 71 314 z"},"W":{"x_min":0,"x_max":1064,"ha":1064,"o":"m 111 795 q 118 781 119 774 q 120 770 125 732 l 130 714 l 129 701 q 129 697 134 680 q 132 680 130 678 q 124 672 124 669 q 124 664 127 656 q 139 654 140 650 q 142 646 143 636 q 143 633 146 624 l 157 622 q 156 584 170 549 q 158 533 158 527 q 158 524 162 519 q 167 513 168 513 l 174 512 q 176 512 177 509 q 181 501 181 493 q 181 482 171 475 l 173 458 q 175 458 175 458 q 182 458 192 453 q 195 442 202 432 q 206 424 208 419 l 234 328 q 241 303 241 301 q 241 300 237 285 q 247 278 254 264 l 261 252 l 265 233 l 270 212 l 231 199 q 263 180 275 170 l 288 169 q 292 146 294 134 q 297 124 313 82 q 318 56 321 45 l 331 45 l 339 26 l 341 26 q 345 42 347 47 q 353 64 354 75 q 355 89 357 96 l 379 162 q 381 166 382 173 q 385 190 386 192 l 399 221 l 402 236 l 409 250 q 421 306 423 308 q 426 313 433 320 q 432 327 432 328 q 432 333 445 396 q 448 413 465 447 q 469 478 473 490 q 496 555 496 584 q 496 587 493 601 l 526 623 l 538 640 q 561 656 561 657 q 561 659 556 661 q 531 670 502 674 l 521 706 q 513 715 513 721 q 513 728 519 743 q 521 749 531 758 l 546 769 q 568 788 570 789 q 574 791 578 791 l 579 791 l 581 791 l 601 773 q 553 755 553 742 q 553 736 574 717 q 580 711 597 687 l 615 665 q 615 662 606 652 q 609 636 618 625 q 633 608 634 606 q 635 605 640 589 q 642 583 655 540 q 661 500 662 497 q 664 491 672 480 l 671 479 q 646 475 644 471 q 644 471 647 466 q 652 458 652 441 l 679 413 l 690 390 q 699 379 699 376 q 699 375 699 374 l 695 374 l 692 371 q 693 361 694 357 q 696 345 702 333 l 711 333 q 719 317 730 278 l 739 251 l 740 230 q 748 218 750 209 q 759 183 759 179 q 759 174 757 170 q 752 157 752 156 q 752 150 760 143 q 763 140 767 140 q 770 140 776 142 q 779 130 784 104 q 786 99 796 79 q 800 83 805 87 q 813 93 813 106 q 813 112 808 122 q 816 126 818 129 q 821 135 830 167 l 829 178 l 833 194 l 837 215 l 844 225 l 849 243 l 860 275 l 871 327 q 881 359 883 366 q 886 375 895 385 q 896 399 912 460 q 919 498 925 513 q 930 525 930 531 q 930 532 924 555 l 934 583 q 937 610 939 621 q 944 620 948 620 q 953 620 960 624 q 960 634 945 641 q 946 652 952 675 l 952 700 l 955 713 q 956 733 958 741 q 972 774 1000 780 q 1011 794 1017 796 q 1018 797 1030 799 q 1033 794 1033 791 q 1033 787 1031 781 q 1029 772 1028 751 l 1024 738 q 1023 720 1020 711 q 1017 703 1007 689 q 1009 682 1009 677 q 1009 674 1005 662 q 1004 660 1004 657 q 1004 653 1005 648 q 999 640 999 634 q 999 632 999 629 q 989 627 988 625 q 988 625 990 605 q 990 604 990 604 q 990 598 985 583 q 978 582 970 579 q 963 575 964 573 l 965 568 l 966 559 q 976 546 976 544 q 976 543 966 528 q 964 525 961 515 q 949 472 948 465 q 946 454 938 432 q 934 420 927 414 q 927 409 927 406 q 927 401 926 392 q 925 380 924 377 q 922 373 914 366 l 914 358 l 898 295 q 892 259 889 250 q 886 239 877 218 q 863 212 863 204 q 863 197 873 188 q 872 177 866 162 l 870 138 q 870 138 865 132 q 861 126 848 82 l 845 53 l 838 23 q 838 21 842 14 q 832 7 831 4 q 828 2 824 -12 q 833 -23 833 -28 q 833 -30 829 -50 q 831 -69 831 -72 q 831 -76 830 -91 q 830 -96 830 -105 q 821 -111 818 -113 q 800 -122 794 -130 l 789 -130 q 784 -123 779 -108 l 767 -78 l 762 -66 q 752 -53 749 -38 q 747 -30 747 -29 q 743 -14 743 -8 q 743 -3 749 6 l 748 7 l 741 8 q 739 13 731 21 q 725 30 716 84 q 712 128 709 139 q 700 142 698 146 q 696 149 690 184 l 677 228 l 672 251 q 671 255 655 295 q 649 311 649 322 q 648 329 646 339 q 654 348 654 353 q 654 355 651 360 q 646 354 642 354 q 638 354 634 366 q 618 409 615 437 q 625 442 625 448 q 625 449 619 458 q 618 459 618 461 q 618 465 621 472 q 612 472 596 466 q 591 472 588 486 q 584 499 567 550 q 562 558 561 566 l 557 579 l 554 594 q 553 598 544 606 q 536 594 534 587 q 534 585 527 546 l 521 530 l 519 513 l 515 504 l 512 485 l 501 467 l 493 433 q 481 412 481 404 q 479 378 474 358 l 457 295 l 441 229 q 432 193 429 188 q 428 186 418 175 q 412 146 407 136 l 415 130 q 409 115 395 63 l 387 33 l 385 19 l 382 4 l 381 -8 l 376 -27 l 374 -38 q 369 -54 369 -56 q 369 -63 374 -72 q 386 -95 386 -100 q 386 -103 372 -118 q 364 -134 360 -137 q 357 -139 336 -146 q 322 -153 319 -153 q 315 -153 308 -148 q 303 -115 301 -86 q 300 -80 292 -49 l 283 -46 q 280 -35 265 6 q 262 13 262 19 q 262 26 270 49 q 262 51 260 52 q 251 56 250 56 q 248 56 244 54 q 239 59 238 68 q 237 83 234 92 q 231 101 231 104 l 231 104 q 231 108 237 117 l 225 121 q 224 130 217 144 q 216 146 209 179 q 206 193 199 207 q 195 214 195 219 q 195 220 199 228 q 202 234 202 238 q 198 244 185 247 q 183 266 180 272 l 168 293 q 168 295 168 303 l 177 308 q 180 318 180 327 q 180 331 175 340 q 170 335 168 335 q 166 335 161 340 l 150 340 q 147 348 140 382 l 127 429 l 128 448 q 128 467 108 473 q 105 490 100 505 l 80 561 q 79 562 78 576 l 84 582 q 78 593 65 625 l 59 626 q 50 649 44 679 q 25 721 25 725 q 25 730 29 734 q 31 735 41 739 q 48 751 50 753 q 52 755 64 764 l 72 771 q 89 784 92 785 l 101 786 q 105 787 111 795 z"},"A":{"x_min":0,"x_max":973,"ha":973,"o":"m 0 -134 q 3 -127 4 -126 l 19 -118 q 24 -114 38 -94 q 40 -92 49 -85 q 55 -81 59 -74 q 58 -69 58 -66 q 58 -56 71 -44 q 90 -26 94 -21 l 121 28 q 121 29 130 31 l 132 33 q 131 39 131 42 q 131 48 132 50 l 145 66 l 193 141 l 194 146 q 190 149 188 149 q 187 149 183 148 q 181 147 178 147 q 174 147 168 148 q 166 157 166 162 q 166 164 172 173 q 176 186 180 192 q 188 203 192 209 q 202 209 206 208 q 227 200 227 200 q 227 200 229 201 q 230 207 230 209 q 230 213 228 220 q 236 226 237 229 l 247 247 q 250 254 266 268 q 268 280 269 282 q 271 285 288 300 q 290 302 299 326 q 302 333 326 368 l 358 431 l 372 445 q 373 454 374 455 q 375 457 387 475 q 388 477 388 479 q 388 482 387 486 q 392 490 396 500 q 401 509 406 517 l 416 502 q 418 508 418 511 q 418 515 414 522 q 419 534 421 537 q 431 551 431 553 q 431 554 431 564 q 431 565 437 575 q 438 578 446 599 q 447 602 452 612 l 473 614 l 471 620 l 458 626 l 458 634 q 465 640 469 647 l 463 652 l 463 654 q 471 661 478 673 q 484 685 489 692 q 485 699 485 704 l 485 707 l 485 712 l 485 722 l 524 750 l 534 743 q 539 752 540 755 q 543 763 546 763 q 550 763 554 761 q 557 771 564 776 q 574 784 582 784 q 596 784 598 748 q 603 725 604 716 q 605 701 616 682 q 623 656 623 648 q 623 643 623 637 l 603 626 q 607 617 611 614 q 614 613 633 607 q 643 604 653 579 q 660 561 660 557 q 660 554 654 544 q 662 537 665 535 q 677 524 678 521 l 684 506 l 693 482 q 695 479 696 466 q 711 450 713 434 q 714 420 714 420 l 725 403 q 727 399 746 362 l 734 355 q 737 346 742 342 l 750 340 l 748 330 q 798 282 799 237 q 801 227 820 192 q 847 142 850 134 q 854 123 860 113 l 891 46 l 890 32 q 919 16 919 2 q 919 -5 905 -12 q 909 -20 913 -22 q 914 -23 922 -26 q 929 -28 937 -44 q 941 -51 950 -79 q 971 -111 976 -121 q 967 -128 967 -137 q 967 -140 967 -144 q 951 -151 944 -153 q 941 -154 927 -154 q 920 -155 893 -166 q 880 -137 877 -125 q 875 -115 868 -103 q 855 -67 855 -62 q 855 -59 855 -55 q 847 -46 845 -40 q 845 -39 844 -25 q 843 -20 843 -18 q 843 -12 848 -1 l 833 12 q 839 19 842 21 q 847 25 847 28 q 847 31 846 35 l 822 33 q 811 49 806 58 q 804 64 798 89 l 791 106 q 785 137 782 143 q 774 161 755 161 q 738 161 736 124 q 732 123 731 123 q 726 123 717 129 q 703 139 688 142 q 681 143 667 149 q 650 158 639 158 q 635 158 612 153 l 598 155 l 583 154 l 569 154 l 556 152 l 533 151 q 519 151 514 151 q 506 150 506 150 l 476 157 l 461 154 q 446 159 444 159 q 441 159 421 153 q 406 150 394 149 l 380 165 q 365 162 349 153 q 348 152 328 149 q 320 148 320 148 q 314 148 305 150 q 293 152 284 152 q 277 152 259 148 q 249 145 238 144 q 232 135 231 132 q 224 117 212 103 q 204 90 189 64 l 180 66 q 176 62 176 59 q 176 56 178 49 q 178 46 179 41 q 169 30 168 27 l 145 -20 q 139 -30 131 -42 l 127 -49 l 100 -66 q 98 -68 98 -72 q 98 -77 109 -86 l 102 -109 q 90 -114 86 -117 q 79 -122 72 -139 q 58 -145 54 -147 q 47 -152 43 -152 q 42 -152 34 -147 q 32 -146 27 -146 q 24 -146 21 -146 q 11 -137 0 -134 z m 270 204 q 280 210 283 210 q 286 210 293 204 l 308 206 l 314 195 q 324 199 342 199 l 385 199 q 397 198 418 191 q 439 190 450 188 q 460 173 474 173 l 504 188 l 504 188 l 521 185 l 549 185 l 560 182 l 574 184 l 587 182 l 600 183 l 612 180 l 641 185 l 664 186 l 707 190 l 743 188 q 751 188 751 193 q 751 196 747 210 q 746 214 745 222 q 736 228 731 236 q 714 271 712 271 q 707 278 705 287 q 703 295 697 305 q 699 317 699 326 q 699 331 695 342 l 678 340 q 673 351 672 354 l 668 367 l 658 382 l 646 403 l 640 413 q 637 433 627 449 q 621 461 621 470 l 631 475 q 626 482 619 482 q 616 482 612 482 q 607 492 605 495 q 594 512 593 513 l 590 532 l 583 545 l 576 562 l 560 582 l 551 610 l 542 625 q 536 638 528 649 q 516 642 512 634 q 503 618 504 604 l 501 604 q 493 590 479 572 l 451 518 q 443 504 441 495 q 432 489 430 481 q 420 460 403 454 l 406 440 l 398 437 l 398 437 q 389 438 382 438 l 378 432 l 391 424 q 385 405 374 386 q 351 342 330 329 q 325 326 324 313 q 324 304 320 296 q 320 296 307 271 l 295 259 l 290 246 q 278 228 276 221 q 273 212 270 204 z"},"f":{"x_min":0,"x_max":348,"ha":348,"o":"m 70 361 l 90 374 q 90 382 92 396 l 91 444 q 91 458 101 476 q 91 483 88 488 q 87 490 87 539 l 86 574 l 86 598 q 86 607 93 618 q 106 639 106 643 q 106 646 106 649 l 99 653 q 102 685 131 723 q 141 738 152 749 q 174 767 184 774 q 192 780 229 800 l 240 808 l 254 810 q 280 816 281 816 q 283 816 297 812 q 300 811 303 811 q 307 811 311 812 q 320 813 323 813 q 342 813 356 797 l 368 797 q 368 789 365 786 q 364 785 354 773 q 346 762 344 761 q 336 754 318 748 q 307 753 285 766 q 267 777 252 777 q 238 777 208 762 q 196 755 190 746 q 176 724 164 684 l 158 673 l 151 646 q 143 631 143 628 q 143 623 152 620 q 149 610 149 600 q 149 596 148 577 l 149 541 q 148 537 140 519 q 139 517 139 510 q 139 502 147 487 q 149 482 149 414 q 149 406 135 392 l 135 388 q 139 384 146 382 q 155 379 157 355 q 169 343 174 341 l 196 335 l 224 328 l 258 341 l 294 349 q 314 362 320 363 q 324 364 339 365 q 349 354 349 346 q 321 330 315 325 q 309 320 300 310 q 297 307 294 307 q 289 307 277 311 q 269 313 259 313 q 251 313 232 310 q 223 309 216 309 q 204 309 188 312 q 167 316 164 316 q 159 316 154 311 q 148 305 149 301 l 154 279 q 157 231 157 231 q 157 229 154 225 q 144 221 144 214 q 144 205 155 197 q 156 184 156 180 q 160 133 164 116 l 159 111 l 150 113 l 142 105 q 148 98 150 95 q 159 85 159 82 l 159 81 l 157 65 l 157 64 q 157 59 161 41 l 153 37 l 153 25 q 139 21 116 9 q 113 7 97 5 l 97 8 q 91 4 87 4 q 84 4 77 9 q 80 16 81 27 l 83 38 l 85 52 q 93 75 93 84 q 93 89 92 112 q 103 120 103 127 q 103 135 99 150 q 94 169 94 176 l 95 191 l 95 275 q 95 292 100 293 q 113 298 118 301 l 118 308 l 113 312 q 108 311 104 311 q 99 311 98 313 l 81 335 l 57 339 q 46 342 45 342 q 33 342 8 315 q 6 319 6 322 q 6 326 23 350 q 35 365 45 365 q 50 365 70 361 z"},"Q":{"x_min":0,"x_max":1125,"ha":1125,"o":"m 324 689 q 328 701 332 705 q 333 706 345 711 l 358 719 l 375 726 q 399 742 409 745 l 416 741 q 434 755 445 762 q 456 768 474 773 q 485 776 499 780 q 519 786 546 789 l 561 791 q 563 791 586 782 q 587 782 588 782 q 597 782 606 792 q 618 790 669 786 l 699 780 q 729 774 734 771 q 750 764 757 764 l 757 764 q 758 764 764 765 q 767 765 770 765 q 790 765 800 745 q 812 741 833 737 l 852 726 q 867 719 868 718 q 871 715 875 699 q 880 661 884 660 q 884 660 884 661 q 891 677 894 703 q 906 698 910 694 l 919 683 q 920 682 929 677 q 944 668 979 633 q 986 625 988 622 q 990 616 992 610 q 996 599 1013 587 q 1003 570 1003 564 q 1003 562 1004 558 q 1006 557 1007 557 q 1007 557 1018 559 q 1021 559 1026 559 q 1027 552 1027 548 q 1027 543 1024 533 q 1028 528 1031 527 q 1035 525 1035 523 q 1035 522 1041 515 q 1043 512 1044 508 q 1055 477 1055 476 q 1055 476 1048 459 q 1047 455 1047 451 q 1047 442 1058 432 q 1055 428 1055 428 l 1060 377 q 1060 377 1058 375 q 1055 373 1054 373 q 1043 369 1043 365 q 1043 358 1056 346 l 1055 341 l 1051 275 q 1050 248 1045 239 q 1044 237 1039 232 q 1028 223 1025 213 l 1040 202 q 1038 189 1036 186 l 1025 171 q 1023 169 1023 158 q 1017 151 1014 140 q 1011 130 1004 120 l 991 125 q 983 113 983 105 q 983 105 983 102 q 983 100 983 94 l 983 94 q 980 71 956 60 q 952 49 945 42 q 941 38 901 7 q 868 -25 864 -27 q 862 -29 844 -39 q 841 -41 823 -54 l 823 -59 q 782 -88 772 -88 q 770 -88 761 -83 q 750 -96 744 -101 q 737 -106 723 -111 q 725 -116 733 -119 q 738 -120 775 -128 l 796 -131 l 811 -139 l 839 -148 q 851 -155 854 -155 q 857 -155 862 -153 l 872 -169 q 877 -169 885 -169 l 894 -169 l 895 -169 q 897 -169 900 -169 q 904 -169 905 -169 q 917 -169 926 -173 q 933 -176 940 -190 q 949 -183 953 -183 l 964 -184 q 987 -185 994 -187 q 1001 -188 1015 -196 q 1029 -204 1031 -205 q 1034 -206 1062 -211 l 1093 -224 l 1111 -216 q 1112 -216 1141 -214 q 1161 -214 1193 -196 q 1223 -172 1234 -167 q 1240 -158 1249 -148 l 1257 -146 q 1261 -139 1270 -129 q 1276 -122 1281 -113 l 1288 -113 q 1294 -123 1294 -133 q 1294 -153 1283 -167 q 1281 -169 1261 -182 q 1244 -197 1231 -202 q 1222 -205 1190 -211 q 1160 -220 1148 -222 q 1134 -225 1109 -237 l 1088 -240 l 1075 -243 l 1058 -240 q 1020 -245 1005 -245 q 986 -245 973 -237 q 972 -229 970 -227 q 968 -223 956 -221 l 948 -234 l 936 -210 l 905 -234 q 898 -227 890 -223 q 882 -220 864 -218 q 845 -215 834 -207 q 834 -201 830 -196 q 826 -192 820 -192 q 814 -192 806 -201 q 793 -196 770 -193 q 758 -189 752 -187 q 748 -186 743 -178 q 730 -167 727 -164 l 715 -164 l 714 -174 q 696 -171 694 -169 l 637 -129 q 627 -123 620 -123 q 601 -123 565 -160 l 562 -149 l 549 -149 l 458 -160 q 455 -161 455 -161 l 439 -158 l 414 -155 l 399 -152 q 369 -148 351 -137 q 333 -137 324 -133 q 305 -123 304 -121 l 301 -111 q 299 -107 293 -104 q 287 -100 282 -100 q 279 -100 261 -104 q 257 -87 252 -83 q 250 -82 223 -78 l 210 -65 q 170 -39 167 -34 q 158 -23 153 -18 l 150 0 q 138 6 132 16 q 126 23 115 32 l 122 54 q 116 58 107 59 q 105 64 94 76 l 89 92 l 76 112 l 69 131 q 63 143 62 153 q 77 162 77 169 q 77 174 75 180 l 58 188 q 58 197 55 215 q 55 215 55 216 q 55 222 57 229 q 60 238 60 242 q 60 243 55 268 q 54 270 54 273 q 54 276 60 317 q 60 329 64 351 q 66 359 75 374 l 72 388 l 80 404 l 92 438 l 105 460 q 112 479 125 499 q 137 517 142 525 q 147 535 160 550 q 176 575 181 581 q 185 585 217 615 l 234 632 l 260 651 l 297 682 q 312 686 324 689 z m 123 281 l 129 281 q 130 270 130 267 q 132 233 132 230 l 144 178 q 145 177 140 168 q 150 159 152 156 q 155 152 158 136 q 167 129 167 125 l 169 112 l 176 103 q 184 87 191 80 q 187 72 187 67 q 187 63 191 56 q 193 53 207 50 q 211 49 227 32 q 239 20 245 13 l 242 -9 q 249 -12 252 -12 q 255 -12 262 -8 q 268 -19 270 -20 l 289 -36 q 307 -58 319 -66 q 325 -64 329 -64 q 330 -64 359 -86 q 380 -109 389 -115 q 395 -118 421 -134 l 438 -138 l 454 -142 q 462 -140 469 -118 q 473 -126 480 -126 q 491 -126 503 -120 q 505 -118 523 -104 q 525 -103 548 -102 q 555 -102 574 -91 l 588 -90 q 599 -88 599 -88 q 611 -88 621 -92 q 643 -102 654 -104 q 665 -91 723 -79 l 735 -75 l 744 -72 l 770 -55 q 799 -41 805 -37 q 814 -30 819 -26 q 822 -24 847 5 q 854 15 862 21 q 878 34 879 35 l 895 57 q 911 74 916 84 q 924 99 932 108 q 935 123 944 138 q 965 195 965 202 l 965 202 l 964 218 q 969 256 973 264 q 976 271 985 271 l 986 271 l 999 266 q 1004 275 1004 280 q 1004 286 998 296 l 997 296 l 992 292 l 971 298 l 971 304 l 980 313 l 973 320 q 976 332 976 370 q 976 372 981 391 q 972 398 970 403 l 1015 429 q 1014 437 1013 449 q 1013 454 1002 467 l 993 483 l 979 498 q 967 524 963 529 q 960 532 918 571 q 910 578 910 583 q 910 588 918 595 l 918 599 q 907 609 904 625 q 899 630 895 630 q 892 630 886 627 q 884 626 881 626 q 866 626 861 645 q 848 648 844 650 q 842 651 833 661 q 828 666 818 669 l 807 684 q 792 685 784 688 q 781 689 760 704 l 749 709 q 733 719 726 722 q 721 724 702 729 l 679 741 l 651 743 l 637 749 l 603 747 q 602 747 585 749 q 564 756 561 756 q 556 756 547 755 q 542 754 537 754 q 536 754 529 755 l 517 749 l 507 748 q 497 744 496 744 q 492 744 488 750 q 477 743 442 729 l 427 718 l 408 712 l 397 705 q 375 694 366 686 q 357 690 354 690 q 350 690 342 687 l 344 675 q 335 669 333 668 q 310 655 307 652 q 307 651 301 640 q 298 636 267 611 l 221 564 l 212 561 q 209 560 204 551 q 205 546 205 543 q 205 535 195 516 q 183 495 174 493 q 174 488 174 484 q 174 476 161 445 l 150 445 l 138 428 q 141 418 141 415 q 142 408 146 401 q 147 400 147 398 q 147 396 139 377 q 133 353 133 353 l 133 316 q 133 316 125 304 q 121 296 121 289 q 121 287 122 283 z"},"w":{"x_min":0,"x_max":611,"ha":611,"o":"m 57 371 q 70 386 80 386 q 88 386 91 381 q 97 372 116 301 q 116 298 107 284 q 106 283 106 280 q 106 269 118 269 q 122 269 138 273 l 150 252 q 146 235 146 231 q 146 229 154 208 q 159 190 159 188 q 160 187 168 178 q 170 175 180 151 l 183 138 q 193 107 193 107 q 209 89 212 89 q 216 89 220 101 q 224 110 226 113 q 232 125 232 126 l 235 152 l 246 175 q 250 196 259 217 q 265 226 265 227 l 265 238 l 267 253 q 270 271 271 274 q 273 279 287 285 q 286 292 273 305 q 275 317 275 327 q 275 332 271 348 q 271 351 271 354 q 271 357 271 360 q 272 360 281 365 l 292 372 q 320 380 326 380 q 331 380 340 375 q 346 370 346 370 q 347 369 357 318 q 360 304 360 304 q 360 303 354 293 q 354 292 354 288 q 354 278 371 269 l 393 208 l 408 169 q 431 110 434 106 q 438 100 446 92 l 461 110 q 457 120 457 125 q 457 131 463 144 q 471 159 476 180 l 488 209 l 489 221 l 500 256 l 502 285 l 507 315 q 511 351 513 354 q 521 365 536 375 q 549 383 561 383 q 563 383 568 378 q 566 353 564 342 q 562 337 553 303 l 551 292 l 543 273 q 540 257 539 255 q 536 250 526 244 q 528 234 528 227 q 528 223 517 190 l 513 181 l 492 114 l 484 94 l 481 67 q 480 50 478 45 q 478 44 447 21 q 442 17 431 2 q 429 1 428 1 q 426 1 424 3 q 411 18 402 23 q 400 42 396 47 q 396 48 387 57 l 395 68 q 389 78 386 80 l 374 86 q 368 90 365 97 q 364 100 360 116 q 361 116 355 131 q 350 145 348 149 q 337 165 337 167 q 337 171 338 175 l 350 174 l 352 177 q 349 189 344 194 q 340 199 326 205 q 321 214 317 225 q 313 232 307 245 q 301 235 301 234 q 293 208 285 182 l 275 158 l 273 146 l 249 82 l 245 60 l 239 43 q 235 26 233 24 q 231 21 220 16 l 209 9 q 193 5 180 -3 q 174 8 172 12 q 158 40 157 46 l 149 77 l 144 92 l 140 105 l 129 118 q 121 136 114 145 q 118 162 118 171 q 118 178 115 185 q 102 187 99 190 q 97 192 88 212 l 80 222 q 77 226 74 240 q 72 250 70 252 l 58 265 l 24 339 q 23 341 23 343 q 23 364 57 371 z"},"-":{"x_min":0,"x_max":338,"ha":338,"o":"m 135 213 q 134 209 134 207 q 134 206 136 204 q 143 197 151 197 q 154 197 158 200 l 160 208 q 169 209 178 213 q 187 208 195 208 l 218 206 l 239 207 q 242 207 250 205 q 267 200 271 200 q 285 200 298 207 q 306 210 309 210 q 311 210 314 209 l 316 208 q 328 225 338 225 q 334 208 331 201 q 328 197 313 184 q 307 177 286 162 q 266 148 253 148 q 248 148 242 149 q 231 151 230 151 l 196 151 l 186 156 l 167 165 l 151 178 l 107 156 q 107 156 97 162 q 92 165 84 167 q 73 163 67 163 q 63 163 57 164 q 49 157 45 157 q 40 157 28 163 q 20 147 12 147 q 8 147 2 148 l 1 149 q 0 155 0 157 q 0 162 7 170 q 9 172 37 192 l 45 200 l 57 207 q 71 216 74 216 q 75 217 96 218 l 109 219 q 125 213 135 213 z"},"E":{"x_min":0,"x_max":985,"ha":985,"o":"m 70 725 q 71 738 77 745 l 86 745 q 93 755 101 760 q 108 764 117 772 q 125 769 129 769 q 131 769 141 771 q 144 772 148 772 q 152 772 197 768 q 204 768 212 768 q 217 768 223 770 q 240 758 245 757 l 251 757 l 262 756 q 275 764 287 764 q 292 764 316 755 l 336 752 l 358 747 q 359 747 366 749 q 372 751 377 751 l 478 750 l 481 744 l 508 742 l 516 751 q 547 752 577 755 q 583 756 588 756 q 594 756 601 755 q 617 753 621 753 q 624 753 689 767 l 717 770 q 738 773 739 773 q 743 773 758 770 q 758 761 750 752 q 745 747 745 747 l 721 733 q 717 731 707 723 q 696 713 690 714 l 689 714 q 677 715 666 716 q 662 716 647 723 l 643 723 l 640 723 l 616 723 q 609 723 585 726 l 558 723 l 538 723 l 507 717 l 472 721 l 454 721 l 443 722 l 413 719 l 388 720 l 376 716 l 321 719 l 305 716 q 305 716 293 720 q 287 722 251 722 l 242 722 q 238 722 223 721 l 208 724 q 204 724 197 716 q 204 702 205 688 q 205 675 206 667 q 196 656 189 656 q 188 656 183 658 q 181 648 181 646 q 181 643 183 641 q 185 638 190 634 q 195 631 203 625 q 199 609 199 605 q 199 603 205 575 q 215 572 242 570 l 274 564 l 297 563 l 316 561 q 334 561 354 558 q 363 557 371 557 q 379 557 385 558 q 400 561 405 561 q 405 561 424 557 q 425 556 427 556 q 431 556 453 558 q 458 558 465 558 q 478 558 501 559 q 538 560 557 564 q 558 564 560 564 q 564 564 576 563 q 581 563 592 562 l 592 569 q 605 570 608 573 l 611 575 l 631 548 q 639 562 642 565 q 645 568 652 574 q 665 582 669 582 q 675 582 683 581 q 682 564 679 563 q 678 560 666 552 l 666 539 q 655 533 649 525 q 636 521 632 521 q 625 521 619 528 q 601 548 598 548 q 598 548 581 524 q 580 524 579 524 q 578 524 576 525 q 571 527 562 529 q 556 526 535 524 q 512 527 509 527 q 506 527 479 524 l 461 528 l 440 529 l 430 529 l 394 524 l 359 530 l 315 529 l 300 532 l 283 532 l 268 532 l 256 529 l 237 528 q 220 526 205 526 q 210 513 211 497 l 213 482 l 213 439 l 216 412 q 215 408 209 400 l 201 397 l 200 399 q 196 389 196 384 q 196 381 197 376 l 201 378 q 210 371 212 367 q 213 365 213 351 q 213 344 204 337 q 206 326 212 307 q 214 303 214 292 q 214 288 214 282 l 203 277 q 202 271 202 266 q 202 257 217 249 q 213 241 213 240 l 218 218 l 219 199 l 221 187 l 219 172 l 219 154 l 217 144 q 215 112 215 112 q 215 100 215 100 q 215 96 217 88 l 199 78 q 199 69 205 57 l 208 57 q 213 61 216 61 q 220 61 226 55 q 220 38 220 32 q 220 30 224 16 l 225 -19 l 228 -59 q 228 -79 202 -99 q 202 -112 205 -118 q 206 -121 212 -124 q 216 -125 224 -131 l 243 -114 l 265 -114 l 303 -107 l 320 -108 q 345 -108 346 -109 q 348 -109 364 -117 q 365 -118 367 -118 q 375 -118 387 -108 l 388 -108 l 390 -107 l 403 -126 l 421 -110 q 425 -104 428 -104 q 428 -104 431 -104 l 486 -108 l 504 -108 q 517 -108 521 -108 q 528 -109 528 -109 q 530 -109 545 -106 q 546 -105 549 -105 q 551 -105 554 -106 q 583 -108 585 -108 q 585 -108 604 -106 l 612 -106 l 700 -104 l 707 -105 l 707 -105 q 707 -105 712 -104 q 715 -104 717 -104 q 718 -104 731 -107 q 734 -107 746 -107 l 752 -125 l 766 -127 l 766 -110 l 767 -109 l 772 -106 q 786 -130 788 -130 q 790 -130 816 -109 q 822 -104 828 -104 q 833 -104 841 -111 q 853 -108 857 -108 q 865 -107 869 -104 q 870 -98 874 -96 q 880 -92 886 -91 q 897 -90 906 -90 q 949 -81 956 -79 q 967 -72 970 -72 q 978 -72 978 -83 q 978 -87 974 -97 q 969 -105 967 -114 q 959 -118 958 -121 l 955 -131 q 942 -147 905 -146 l 889 -149 l 863 -126 l 828 -153 l 809 -149 l 783 -148 l 766 -145 l 743 -145 l 716 -143 q 715 -143 709 -144 l 702 -139 q 689 -146 682 -146 q 680 -146 647 -141 q 641 -140 617 -140 q 602 -140 593 -141 q 579 -143 574 -143 q 573 -143 531 -136 q 523 -137 522 -137 q 519 -137 513 -136 l 505 -144 q 495 -142 493 -142 l 442 -143 l 421 -143 l 392 -145 q 390 -145 381 -143 l 385 -134 q 373 -134 360 -138 l 358 -151 l 350 -151 l 348 -151 l 347 -152 q 346 -152 346 -152 q 345 -152 344 -151 q 333 -146 322 -146 q 313 -146 310 -148 q 309 -148 309 -148 q 308 -148 293 -131 q 289 -126 284 -126 q 280 -126 249 -146 q 242 -150 232 -150 q 229 -150 209 -146 q 208 -145 205 -145 q 202 -145 173 -149 l 147 -150 q 113 -158 110 -158 q 105 -158 94 -155 q 94 -150 94 -147 q 94 -142 98 -133 q 100 -133 101 -133 q 107 -133 112 -128 q 116 -124 130 -94 l 129 -66 q 129 -66 131 -64 q 138 -55 138 -55 q 135 -45 135 -43 q 135 -42 135 -39 q 138 -10 138 28 q 138 41 144 63 q 146 67 152 72 q 156 74 156 81 q 157 91 159 96 l 152 84 l 148 84 q 146 91 141 98 q 141 106 141 110 l 141 131 l 141 132 l 151 146 l 160 172 q 161 176 181 185 q 183 186 183 186 q 183 189 145 199 l 161 206 l 161 212 l 151 217 q 148 226 142 231 q 142 243 145 254 l 139 298 l 178 327 l 139 377 l 168 390 l 138 402 l 149 408 q 149 422 153 435 q 147 438 142 443 q 139 446 136 448 q 134 464 134 469 q 133 488 133 491 q 132 494 132 496 q 132 501 140 510 q 137 515 132 515 q 131 515 128 515 q 127 523 127 530 q 127 538 135 547 q 124 557 124 566 l 124 626 q 124 638 121 665 q 118 692 118 693 q 117 694 111 698 l 111 721 l 94 719 l 94 721 l 92 723 q 85 723 83 723 q 76 723 70 725 z"},"s":{"x_min":0,"x_max":446,"ha":446,"o":"m 308 187 l 295 178 q 276 183 265 183 q 252 183 233 181 q 228 192 219 198 l 209 186 q 199 185 185 181 q 179 179 175 179 q 174 179 172 180 q 153 184 153 184 q 153 184 152 182 l 143 192 q 135 188 129 188 q 127 188 117 193 q 115 194 108 197 q 71 210 71 240 q 71 266 91 291 q 96 298 118 317 l 128 326 l 151 340 q 186 361 203 368 q 241 384 264 384 q 268 384 308 374 l 333 378 q 357 376 361 375 q 371 370 371 365 q 371 360 366 355 q 364 354 342 340 q 318 326 315 326 q 284 326 269 331 q 264 341 259 347 l 256 347 l 247 337 q 238 337 234 337 q 230 337 226 337 q 221 338 218 338 q 217 338 206 335 q 202 338 191 338 q 181 331 159 318 q 147 312 138 299 q 130 287 130 275 q 130 270 139 262 q 141 260 156 254 q 166 250 175 243 q 175 239 175 237 q 175 227 183 227 q 191 227 201 239 q 212 238 220 238 q 223 238 248 242 l 263 241 q 285 244 287 244 q 290 244 312 237 l 329 239 l 347 227 q 375 213 385 202 q 393 192 394 186 l 397 170 q 404 141 404 136 q 404 133 402 119 q 400 88 384 88 q 379 88 373 89 q 367 65 363 62 q 341 36 335 27 q 310 24 294 12 q 287 6 285 6 q 284 5 273 4 l 233 -6 q 214 -3 212 -3 q 209 -3 183 -11 l 171 -9 q 147 -8 136 -5 q 110 1 109 4 l 93 14 q 64 32 58 40 q 43 57 43 73 q 43 76 54 84 l 67 97 q 85 110 88 110 q 90 110 92 109 q 103 98 103 85 l 101 70 l 101 69 q 101 65 104 62 q 105 61 121 52 q 125 50 130 45 q 142 35 143 35 l 161 27 l 177 19 l 196 19 l 208 16 q 226 21 240 22 q 253 22 260 26 l 279 35 q 294 41 297 42 q 306 50 321 75 q 337 101 337 134 q 337 141 333 147 q 313 176 308 187 z"},">":{"x_min":0,"x_max":574,"ha":574,"o":"m 47 579 q 68 570 75 564 q 81 558 86 542 l 108 542 q 120 522 127 518 q 130 516 159 508 q 163 508 167 500 q 174 489 180 481 l 199 479 l 209 464 l 228 464 q 232 453 237 448 q 238 447 251 440 q 254 439 261 428 q 263 425 269 417 l 295 422 q 299 406 306 402 q 310 399 337 396 q 354 392 355 368 l 380 367 q 387 361 394 352 q 400 343 408 335 l 431 333 l 438 315 q 452 313 468 305 q 494 291 495 291 q 496 290 505 281 q 521 264 534 255 l 534 251 q 522 248 505 247 q 489 245 484 222 q 470 219 436 206 l 431 186 l 415 182 q 407 179 406 178 l 383 161 q 360 150 358 148 q 354 145 350 135 l 326 139 q 319 131 317 126 q 314 118 311 109 l 290 109 q 287 97 285 95 q 283 93 268 85 l 227 60 l 212 56 l 196 44 q 178 32 175 29 q 171 24 165 13 l 141 17 l 131 -13 l 97 -10 q 85 -32 83 -35 q 82 -37 69 -42 q 63 -44 48 -52 q 52 -39 52 -32 q 52 -28 51 -12 q 51 -6 51 1 q 51 17 55 22 q 59 26 67 29 q 94 39 98 42 q 104 46 123 70 l 146 68 q 154 81 158 82 q 160 84 173 85 l 182 102 q 195 103 200 107 q 204 110 208 121 l 228 119 q 236 129 247 135 q 255 139 262 152 l 282 152 q 285 172 292 175 q 296 177 323 179 q 325 179 340 188 q 352 195 352 195 l 364 214 q 367 218 371 220 q 385 227 387 228 q 390 230 396 239 l 416 237 l 444 267 l 444 268 q 433 272 414 275 q 401 280 392 300 l 371 302 q 365 308 363 311 q 351 327 345 326 q 325 327 313 331 l 307 363 l 267 356 q 252 381 244 394 l 223 391 l 216 410 l 194 407 q 184 418 158 435 q 153 438 147 454 q 134 456 129 457 q 117 458 112 464 q 110 467 104 479 q 86 480 74 484 q 71 494 70 498 q 68 505 65 507 q 62 510 52 513 q 47 526 47 535 q 47 538 49 541 q 57 557 57 558 q 57 560 54 565 q 51 569 47 579 z"},"l":{"x_min":0,"x_max":200,"ha":200,"o":"m 63 791 q 70 793 75 796 q 87 804 93 807 q 106 812 118 826 q 120 826 122 826 q 133 826 133 812 l 133 812 q 133 809 133 805 q 132 803 132 802 l 137 785 l 135 744 q 135 705 134 703 q 133 698 126 689 l 123 674 l 133 672 q 136 660 136 655 q 136 646 126 635 q 125 622 125 618 q 125 612 131 607 q 132 598 132 593 l 129 532 l 129 470 q 129 465 121 451 q 118 446 118 441 q 118 440 125 417 q 125 417 125 415 q 125 407 114 398 l 125 375 l 130 371 l 130 340 l 132 230 l 123 225 q 125 214 125 208 q 125 206 122 184 q 122 183 122 171 l 137 169 q 135 166 135 166 l 144 86 l 143 65 q 146 51 146 51 q 136 35 136 34 q 136 31 139 27 q 129 23 111 13 q 101 7 100 6 q 99 6 90 6 q 79 -3 71 -3 q 69 -3 64 -1 q 65 6 65 11 q 65 16 63 26 q 62 30 62 34 q 62 35 66 49 l 67 60 l 69 74 l 67 83 l 108 110 l 69 137 l 70 144 l 73 161 l 78 173 q 78 174 69 191 q 67 194 67 196 q 67 198 75 217 q 80 231 81 243 l 69 249 q 69 261 69 266 q 68 277 68 280 q 68 282 74 302 q 74 304 74 310 q 74 327 72 348 q 71 355 71 361 q 71 366 79 383 q 80 398 82 407 l 72 419 l 72 527 q 78 532 80 537 q 83 545 88 556 q 78 560 71 564 q 75 578 75 582 q 75 586 66 591 q 64 598 64 609 l 64 629 q 64 633 71 644 q 72 646 72 648 q 72 649 70 657 q 67 666 66 667 q 66 667 65 669 l 102 695 l 77 729 q 58 754 58 759 q 58 763 61 775 q 62 780 63 791 z"},"8":{"x_min":0,"x_max":574,"ha":574,"o":"m 116 197 l 125 193 q 130 200 130 204 q 130 208 125 212 q 127 223 128 224 l 145 241 q 159 257 175 267 q 194 280 197 280 q 202 280 209 276 l 212 279 l 212 288 q 224 294 231 304 q 219 309 215 310 q 207 313 206 314 l 186 340 q 184 342 172 345 l 175 357 l 175 358 q 174 360 164 380 q 163 382 163 386 q 163 392 165 400 l 180 402 q 182 407 182 415 l 172 423 q 179 434 182 437 q 197 459 212 474 q 254 513 261 518 q 280 532 294 537 q 295 537 302 542 q 316 549 328 551 q 337 553 339 553 q 343 555 345 555 q 346 555 351 551 q 354 549 378 542 q 382 542 395 549 q 400 540 412 533 q 426 524 437 521 l 431 499 q 438 496 442 496 q 444 496 448 497 q 453 479 453 477 q 453 476 452 473 l 447 470 q 453 460 453 451 q 453 437 450 429 q 435 395 431 390 q 425 382 409 374 q 404 371 402 354 q 392 345 367 331 q 364 330 364 328 q 364 326 366 323 q 377 319 393 312 q 404 306 414 302 q 418 292 419 288 q 420 286 430 279 q 434 277 443 264 q 450 254 451 250 q 451 250 449 236 q 449 234 449 233 q 449 216 468 209 q 466 197 466 188 q 465 170 461 163 l 452 144 l 447 132 q 434 115 431 112 q 424 106 414 98 l 398 88 l 379 64 l 359 49 l 347 38 l 333 30 q 319 20 307 17 l 296 3 q 284 3 281 2 l 250 -10 q 245 -11 241 -11 q 240 -11 223 -9 l 204 -11 l 183 1 q 166 -3 166 -3 q 157 -3 121 15 q 116 29 111 33 q 107 37 95 40 q 86 62 85 82 q 84 96 79 115 q 78 117 78 117 l 84 140 l 86 150 l 94 162 q 101 178 104 183 q 106 186 116 197 z m 135 115 q 139 104 141 101 q 142 99 153 96 q 166 83 179 72 q 192 61 215 59 l 222 50 l 230 52 q 237 40 243 38 q 247 37 255 36 l 263 47 q 275 46 280 45 q 289 43 293 43 q 301 43 313 54 q 324 56 333 66 q 342 68 347 70 q 348 71 364 88 l 376 96 q 383 114 394 132 q 401 131 404 131 q 414 131 414 141 q 414 148 398 152 q 401 160 401 163 q 401 165 397 181 q 396 187 396 194 q 396 201 397 210 q 385 214 383 216 q 369 235 359 243 l 362 257 q 349 261 348 266 q 347 268 346 268 q 346 268 336 265 q 335 265 334 265 q 331 265 309 278 q 302 285 299 285 l 297 285 l 293 285 q 293 285 264 286 l 259 277 l 257 279 q 242 275 206 259 q 195 253 185 244 q 167 228 164 224 q 161 220 156 204 q 145 187 143 180 q 142 175 141 155 l 139 144 l 141 127 q 135 117 135 115 z m 242 382 q 198 373 198 369 q 198 365 244 356 l 249 356 l 263 367 q 272 360 282 358 l 282 350 l 284 347 q 290 348 297 351 l 332 309 q 348 342 359 354 q 364 369 368 371 q 369 372 378 376 q 386 380 391 396 q 392 401 394 424 q 394 433 396 444 q 392 446 388 452 q 386 456 372 471 q 362 483 359 484 q 351 488 343 492 q 329 503 318 506 l 309 494 q 303 495 299 495 q 296 495 282 489 q 280 488 271 486 q 239 479 235 450 q 229 443 228 440 q 226 437 222 421 q 222 411 242 382 z"},"\\":{"x_min":0,"x_max":589,"ha":589,"o":"m -26 621 q -26 633 -6 633 q -1 633 7 632 q 24 629 27 628 q 42 627 47 623 q 52 621 65 609 l 65 606 q 58 600 58 596 q 58 594 61 589 l 72 592 l 74 590 l 72 581 q 81 577 82 575 l 95 551 l 119 522 q 139 494 146 485 q 146 482 146 479 q 146 462 167 453 l 181 436 q 200 416 207 406 q 219 389 224 370 l 235 370 l 236 371 l 263 343 l 263 325 q 275 322 279 321 q 290 320 290 313 q 290 309 284 299 q 302 291 308 287 q 311 285 325 267 q 345 247 357 229 q 360 225 362 224 q 372 217 372 217 l 372 208 l 376 203 l 380 197 q 395 187 397 184 q 399 183 419 159 l 437 138 q 439 126 441 124 q 444 119 458 117 q 476 90 532 39 l 534 26 l 542 24 l 589 -29 q 590 -31 603 -43 q 621 -61 631 -82 l 646 -80 q 660 -97 680 -113 l 687 -122 q 699 -131 708 -144 q 703 -147 693 -148 q 680 -149 675 -150 q 671 -151 668 -151 q 667 -151 656 -148 q 647 -145 638 -144 q 631 -132 619 -126 q 614 -115 601 -98 l 596 -87 q 587 -74 583 -63 l 571 -66 q 567 -59 555 -47 q 547 -39 542 -32 q 533 -19 522 -9 q 489 28 489 31 q 489 35 490 40 q 479 42 476 44 q 469 45 450 70 q 446 75 426 98 q 420 105 420 109 q 420 110 422 114 q 423 116 423 119 q 417 125 410 126 q 401 127 396 132 l 398 144 q 392 148 390 150 q 384 155 380 155 q 376 155 370 153 q 366 167 349 188 q 344 194 320 218 q 312 226 299 240 q 304 246 304 249 q 304 254 298 260 q 294 264 292 264 l 292 264 l 283 260 q 274 267 274 275 q 274 279 274 283 q 257 288 251 292 q 248 294 243 303 q 234 319 228 326 l 202 353 l 188 370 l 167 388 q 165 390 159 401 q 154 410 134 430 l 83 492 q 55 521 49 528 q 35 548 24 566 l 2 589 q -17 612 -26 621 z"},"e":{"x_min":0,"x_max":515,"ha":515,"o":"m 345 363 l 360 373 q 368 364 371 362 q 372 361 381 357 q 386 354 423 316 q 435 304 439 293 q 443 284 447 271 q 450 264 454 253 l 451 250 q 445 250 436 254 l 417 247 l 401 250 l 386 246 q 356 268 354 268 q 352 268 332 248 q 300 253 298 253 q 291 253 280 252 l 277 254 q 270 253 235 253 l 217 251 l 194 249 l 171 245 l 151 246 q 123 237 112 235 q 110 219 107 212 q 104 205 96 196 q 111 186 112 181 q 117 150 122 139 l 130 134 l 128 116 l 143 112 q 148 92 156 85 q 163 79 180 77 q 183 62 188 59 q 192 56 206 55 l 214 42 q 219 43 223 43 q 226 43 252 31 q 258 28 265 28 q 271 28 290 34 l 321 37 l 345 44 q 362 45 368 47 q 376 50 398 64 q 420 77 423 82 q 432 92 440 105 q 444 111 454 111 q 458 111 466 105 q 463 87 460 82 q 439 47 434 36 q 428 39 423 39 q 420 39 407 29 q 398 23 385 22 q 355 14 343 13 q 323 11 318 9 q 303 4 302 4 l 273 9 l 256 6 l 248 5 q 236 4 230 4 q 224 4 194 7 q 185 8 185 8 l 175 15 q 138 26 134 28 q 132 29 118 42 q 117 43 101 53 q 87 62 86 66 l 77 82 q 75 85 61 100 q 65 108 65 112 q 65 113 53 139 q 49 146 49 181 q 49 191 56 216 q 62 235 64 238 l 81 257 l 92 280 q 108 296 130 315 l 166 337 l 202 362 l 215 365 l 252 376 l 276 378 q 305 389 308 389 q 335 389 345 363 z m 288 290 l 296 280 q 306 282 310 282 q 323 284 336 289 l 364 287 q 364 287 366 292 q 367 294 367 296 q 367 301 361 307 q 360 308 356 313 q 344 329 341 328 l 325 335 q 322 337 316 347 q 302 349 268 349 l 258 349 l 241 339 q 240 338 214 333 q 194 325 178 318 q 175 316 159 302 q 156 299 148 293 l 148 290 l 149 289 l 185 275 l 195 264 l 214 287 q 217 289 220 289 q 221 289 244 283 q 244 283 245 283 q 251 283 272 288 q 277 289 288 290 z"},"b":{"x_min":0,"x_max":567,"ha":567,"o":"m 59 34 q 74 42 79 47 q 81 49 88 64 q 96 77 96 79 q 96 83 93 92 q 91 100 91 108 q 91 135 111 137 l 114 155 l 95 164 l 98 244 l 96 256 l 106 259 l 109 270 q 97 275 97 281 q 97 286 98 296 q 98 300 98 303 q 98 306 93 333 l 118 358 l 92 389 q 92 389 92 390 q 104 399 104 407 q 104 415 93 424 q 92 437 92 481 q 92 487 91 490 q 90 493 90 493 q 90 497 92 498 l 128 511 l 89 523 l 91 531 l 90 543 l 93 572 q 88 599 88 604 q 88 614 100 627 q 100 633 92 645 q 90 648 90 651 q 90 655 92 661 q 106 666 106 678 q 106 681 103 688 l 90 689 q 88 698 87 701 q 83 708 83 711 q 83 713 117 728 l 117 744 l 128 759 q 128 762 116 766 q 112 767 108 768 q 97 771 76 778 l 76 785 q 83 791 85 793 q 100 805 104 806 l 124 811 q 143 821 150 821 q 158 821 165 814 q 165 802 163 798 q 156 781 156 778 q 156 777 164 763 q 164 761 164 761 q 164 760 146 745 l 141 722 l 119 707 q 148 672 153 666 q 158 659 158 655 q 158 652 157 647 q 147 635 147 625 q 147 622 149 620 q 160 604 160 594 q 160 590 159 584 q 156 569 156 566 l 157 546 q 157 544 155 539 q 156 528 157 525 l 158 515 q 158 508 159 506 q 160 500 160 498 q 160 496 156 490 q 145 485 138 479 l 139 477 q 139 464 141 459 q 143 454 157 447 q 156 439 156 438 q 156 431 158 415 q 160 402 157 396 q 157 396 150 383 q 145 374 145 365 q 145 359 155 359 q 167 354 169 354 q 176 354 186 367 q 192 365 194 365 q 194 365 228 373 q 253 382 266 385 q 275 375 283 375 q 288 375 295 377 l 297 387 q 305 384 309 384 l 332 385 l 344 378 q 349 379 350 379 q 388 379 411 369 q 425 362 432 338 q 440 338 445 344 q 448 347 452 347 q 456 347 463 337 q 478 324 479 323 q 479 322 480 314 q 482 307 501 290 q 504 268 516 238 q 517 234 517 214 q 517 199 510 187 q 508 184 506 181 q 503 177 499 169 l 490 169 q 483 162 483 160 l 484 125 q 484 125 477 118 q 474 114 457 91 q 451 84 435 75 l 420 62 l 402 46 q 387 31 381 28 q 344 12 322 7 l 310 3 l 301 2 q 275 -4 269 -4 q 256 -4 249 3 l 236 19 l 217 3 q 165 17 164 17 q 163 18 144 19 q 134 19 114 26 q 111 27 110 27 q 104 27 70 12 q 66 10 65 10 q 60 10 58 19 q 58 20 58 21 z m 202 39 q 208 40 214 40 q 218 40 229 34 q 239 29 244 29 l 269 31 l 288 31 l 300 30 q 300 30 339 42 q 363 49 378 61 q 382 63 400 84 l 413 97 q 413 98 418 110 q 419 116 427 127 q 438 143 440 159 q 441 173 442 175 q 444 182 444 182 l 443 195 l 481 212 q 481 212 475 234 q 474 237 473 255 q 473 263 469 266 q 467 267 452 273 q 441 291 438 294 q 435 296 419 304 l 409 310 l 395 317 l 382 324 l 357 333 l 345 339 q 330 339 319 341 q 312 342 287 344 q 273 345 246 350 q 245 350 245 350 q 244 350 242 349 q 241 349 241 349 q 241 349 239 350 l 228 348 q 212 346 209 346 q 208 345 191 334 q 179 330 158 319 q 154 317 145 313 q 124 303 124 289 q 124 282 127 277 l 141 259 l 146 235 q 158 216 158 209 q 158 205 147 185 q 146 184 146 183 q 146 182 149 169 l 151 158 l 158 140 q 155 121 155 117 l 158 89 l 158 65 l 158 59 q 158 55 145 42 q 144 41 144 38 q 144 33 155 24 l 185 48 q 194 37 198 37 q 199 37 202 39 z"},"%":{"x_min":0,"x_max":656,"ha":656,"o":"m 61 425 q 60 436 59 440 q 57 445 57 448 q 57 449 58 451 q 62 451 64 451 q 76 451 92 489 q 101 500 113 503 l 110 506 l 110 507 q 119 515 122 518 q 138 532 151 540 q 163 548 170 552 l 170 557 q 180 560 183 561 q 205 569 221 571 l 227 573 l 239 577 l 248 580 l 255 568 q 257 566 268 562 q 283 556 286 542 l 290 529 l 301 570 l 303 568 q 314 562 318 555 q 320 552 328 533 l 341 533 q 345 528 347 519 q 347 517 353 501 q 357 489 357 481 q 357 481 356 471 l 357 456 q 355 435 355 433 q 354 431 348 424 q 347 417 346 415 q 345 413 333 398 q 318 370 314 367 q 311 363 305 363 q 303 363 302 364 q 299 359 298 352 q 275 330 258 322 q 248 317 239 309 q 237 307 232 306 q 215 302 206 298 q 191 294 187 293 q 177 292 167 288 q 166 287 165 287 q 159 287 146 295 l 134 292 l 124 301 q 120 300 117 300 q 105 300 99 313 q 96 320 94 322 q 93 323 87 323 q 80 332 77 334 q 62 350 62 358 q 62 364 64 373 l 56 374 q 53 387 52 407 l 52 411 q 52 412 56 416 q 58 419 61 425 z m 97 448 l 97 433 l 100 433 l 101 432 q 76 422 76 412 q 76 401 116 391 l 113 366 q 125 366 130 364 q 134 362 152 347 l 150 345 l 153 337 q 159 338 164 338 q 166 338 183 329 q 188 327 195 327 q 207 327 231 334 q 238 337 250 344 q 255 347 265 350 l 265 354 q 278 362 280 367 q 287 376 293 380 q 296 381 297 384 q 307 404 307 405 q 308 407 315 414 q 312 420 312 424 q 312 426 317 440 q 313 452 313 454 q 313 458 315 464 l 312 464 l 300 482 l 306 492 l 302 496 q 299 495 298 495 q 294 495 285 503 q 275 510 272 514 l 264 517 l 266 533 l 248 526 q 229 538 210 538 q 205 538 191 536 q 179 534 178 533 l 171 525 q 158 516 156 514 q 155 513 143 510 l 128 493 q 112 478 109 472 q 108 467 108 456 l 96 450 z m 135 12 q 139 27 147 40 q 153 49 158 60 q 173 61 176 64 q 177 65 183 83 q 186 91 204 110 l 200 117 l 200 117 q 199 119 204 126 q 205 127 207 132 q 213 144 226 152 l 226 162 l 241 171 q 243 188 251 200 q 281 241 282 245 q 283 257 285 261 q 296 266 296 267 q 300 269 309 287 q 312 295 316 301 q 333 330 336 340 l 349 338 l 351 340 l 351 343 q 345 351 345 355 q 345 366 365 377 q 370 380 372 387 q 373 389 373 402 q 373 407 385 424 q 394 436 394 446 q 394 448 393 450 q 392 453 392 453 q 392 454 397 458 q 399 459 406 471 q 407 473 413 479 l 412 479 q 413 489 413 493 q 413 503 416 507 q 419 511 430 517 q 428 523 428 528 q 428 534 434 542 q 452 568 458 569 l 472 570 q 475 571 487 578 q 497 583 503 583 q 516 583 516 573 q 516 567 511 562 q 498 543 492 530 q 485 528 475 528 q 471 522 471 512 q 472 509 464 499 q 458 492 458 490 q 457 486 455 485 q 452 483 449 479 q 451 475 451 474 q 451 468 434 446 q 428 439 425 425 l 410 418 q 410 414 410 411 q 410 404 409 403 l 375 351 l 369 336 l 356 315 l 351 304 l 344 293 q 319 257 312 246 l 306 246 q 306 245 306 245 q 306 238 298 214 q 283 209 280 203 q 277 196 277 178 q 269 170 268 168 l 255 132 l 241 111 q 236 87 233 82 q 230 76 217 72 q 222 63 222 58 q 222 56 216 48 q 208 33 202 29 q 197 25 171 16 q 170 15 163 12 q 154 7 146 7 q 142 7 135 12 z m 299 131 q 307 141 307 147 q 307 149 307 153 q 306 159 305 170 l 307 172 l 312 174 l 319 174 q 326 179 339 209 q 340 212 351 221 q 354 225 359 231 l 368 238 l 379 248 l 395 260 q 404 269 418 272 l 420 279 q 430 282 433 283 q 458 291 461 291 q 479 295 482 297 q 492 301 493 301 l 505 297 l 517 295 l 542 288 q 552 287 562 280 q 564 276 565 275 q 567 271 568 263 q 570 255 587 252 q 600 214 604 199 l 604 197 q 603 179 602 161 q 601 151 593 139 q 587 129 581 122 q 578 117 570 103 q 563 90 559 87 q 554 83 543 81 l 543 70 q 538 66 531 62 q 513 49 495 39 q 477 26 468 23 q 462 21 433 15 q 413 7 410 7 q 408 7 394 15 l 377 16 q 374 16 368 24 q 365 23 363 23 q 357 23 345 32 q 343 39 342 41 q 327 53 321 63 l 311 65 q 311 83 309 95 l 306 95 q 299 117 299 126 z m 362 106 q 357 99 357 95 q 357 92 360 86 q 364 86 368 86 q 376 86 387 78 q 389 76 392 74 q 398 69 398 61 q 402 59 413 58 q 439 48 443 48 q 448 48 480 58 q 499 68 513 72 q 517 79 524 85 q 529 88 532 96 l 542 100 q 548 118 562 133 l 558 140 q 559 147 565 161 l 563 163 l 560 163 q 560 171 565 182 q 553 191 547 201 l 552 220 q 549 221 548 221 q 543 221 535 217 q 531 229 528 229 q 527 233 513 236 q 513 241 513 245 q 513 250 511 255 l 505 255 l 500 247 q 498 247 496 247 q 492 247 487 252 q 482 257 476 258 q 459 258 448 262 q 439 255 434 255 q 431 255 428 256 q 414 243 409 239 q 405 237 389 231 q 388 231 384 227 q 374 215 371 212 q 361 203 360 201 l 352 178 q 350 174 342 170 l 342 157 l 343 156 q 348 151 348 150 l 347 127 q 347 115 362 106 z"},"m":{"x_min":0,"x_max":640,"ha":640,"o":"m 60 334 q 63 345 70 351 q 82 361 107 376 q 116 381 117 381 q 119 381 125 375 q 127 373 132 370 q 134 358 135 354 q 137 342 137 339 q 137 330 135 317 l 137 316 q 151 319 154 321 q 158 323 167 336 q 178 337 181 340 q 182 341 188 349 q 209 360 222 363 q 243 369 254 375 q 255 375 257 375 q 267 375 267 356 l 281 356 l 281 370 q 292 375 304 376 q 315 378 316 378 q 330 378 341 363 q 344 359 353 331 q 354 326 360 326 q 363 326 373 339 q 378 345 394 351 q 426 371 432 371 q 432 371 448 368 l 463 373 l 489 374 l 504 375 l 522 369 l 539 364 q 556 354 560 350 l 562 338 q 554 336 554 331 q 554 328 557 323 l 567 323 q 569 313 570 293 l 574 279 l 574 228 l 574 220 q 574 215 565 200 q 563 197 563 192 q 563 188 569 167 q 570 163 570 159 q 570 156 569 146 q 569 146 569 145 q 569 141 572 108 l 562 101 l 562 90 q 565 91 567 91 q 570 91 572 87 q 572 74 571 70 q 571 64 571 60 q 571 50 578 35 q 567 25 547 17 q 521 -1 518 -1 q 512 -1 505 0 q 504 12 504 21 q 504 28 509 50 q 510 54 510 58 q 510 60 507 81 q 506 83 506 85 q 506 87 511 120 l 512 139 q 521 156 521 161 q 521 165 511 177 q 510 178 510 179 l 528 189 l 537 194 l 510 215 q 518 228 521 247 q 511 255 510 258 q 504 297 500 307 q 491 317 474 342 q 468 349 446 349 q 434 349 426 346 l 408 336 l 400 334 l 391 325 q 377 318 372 311 q 363 297 357 290 l 357 255 q 345 250 345 244 q 345 239 356 233 q 357 211 358 205 q 360 181 360 166 q 360 160 358 149 l 345 151 l 342 149 q 343 145 353 131 q 356 126 356 122 l 356 112 q 355 100 355 97 l 356 97 q 364 69 364 38 q 364 31 355 24 q 352 22 336 12 q 306 1 304 1 q 304 1 302 1 q 298 9 298 15 l 298 15 q 297 22 299 35 q 300 49 300 78 q 300 96 302 107 l 304 107 l 312 115 q 312 124 310 128 l 303 146 l 298 158 l 298 166 q 299 187 300 191 q 315 202 315 211 q 315 220 300 222 q 298 233 298 275 q 292 303 289 309 q 283 318 271 317 l 269 317 l 255 314 l 255 316 l 246 328 q 236 321 234 321 l 210 315 q 186 306 183 306 q 178 305 166 304 q 154 287 146 268 q 142 257 142 255 l 142 233 l 139 216 l 142 199 l 142 198 q 141 184 140 171 l 127 164 q 140 149 141 145 q 142 141 142 118 l 141 102 q 141 101 141 97 q 143 78 143 62 q 144 38 146 22 q 136 19 106 1 q 102 -2 95 -2 q 90 -2 82 0 q 82 3 82 4 l 83 22 l 82 48 l 82 74 l 81 84 q 81 86 91 100 q 91 100 91 101 q 91 105 81 109 q 80 117 80 124 q 80 129 93 149 q 94 150 94 162 l 85 162 q 81 176 81 185 q 81 194 84 225 l 88 225 l 90 227 q 90 238 89 242 q 89 258 82 270 q 81 272 79 300 q 78 312 72 330 q 65 331 60 334 z"},"#":{"x_min":0,"x_max":574,"ha":574,"o":"m 43 188 l 43 197 l 63 204 l 63 210 q 70 215 71 220 q 73 229 78 240 l 82 237 q 89 239 95 239 q 96 239 111 236 l 118 236 q 120 236 125 233 l 126 234 q 144 231 164 226 q 166 235 167 238 q 171 254 171 263 q 171 263 169 277 l 171 291 l 173 315 q 178 329 179 341 q 166 346 161 346 q 159 346 138 339 q 83 335 71 332 q 67 339 67 344 q 67 345 68 349 q 82 350 84 354 l 87 358 l 92 365 l 95 374 l 97 375 q 100 385 103 388 q 106 387 107 387 l 122 389 l 130 386 q 167 381 171 379 q 179 377 188 375 q 189 385 190 388 q 193 402 193 409 q 193 412 193 416 l 200 419 l 202 434 q 194 438 194 441 q 194 449 202 466 q 205 476 205 492 l 209 509 l 210 522 l 211 532 q 207 545 207 545 q 207 552 215 558 q 225 565 246 567 q 247 560 247 555 q 247 552 239 514 l 238 493 l 233 479 q 232 458 232 456 q 231 454 228 449 q 216 434 216 432 q 216 427 225 419 l 218 375 l 224 375 l 226 373 l 236 373 q 249 364 255 364 q 261 364 270 373 l 309 371 l 311 373 q 317 371 320 371 l 334 373 l 366 373 q 368 373 383 376 l 390 415 l 396 419 l 397 432 q 390 439 390 442 q 390 448 397 466 q 400 474 401 490 l 405 509 l 406 522 l 407 531 q 402 545 402 546 q 402 552 411 558 q 421 565 441 567 q 443 561 443 561 l 436 519 l 434 495 l 429 482 l 428 459 l 414 436 q 419 416 419 412 q 419 407 415 386 q 413 373 411 362 q 415 362 417 362 q 423 362 428 365 q 433 374 440 375 l 440 378 q 458 378 473 384 q 479 378 487 376 q 493 385 495 386 q 497 388 508 390 q 520 393 524 393 l 525 393 l 538 391 l 538 385 l 513 369 l 515 357 l 492 345 l 479 347 q 467 335 459 335 l 459 335 q 452 337 441 358 l 422 337 q 422 337 416 338 q 414 339 413 339 q 410 339 406 338 q 403 327 403 323 q 402 310 401 307 q 402 304 388 297 l 392 282 l 397 281 q 396 271 396 268 q 392 243 391 216 l 384 216 l 384 213 q 392 209 396 209 q 403 209 407 225 q 413 226 418 229 q 436 229 450 234 l 457 228 l 461 227 q 469 237 475 240 q 486 244 504 244 q 513 244 515 237 l 491 219 l 491 207 q 470 195 464 195 q 462 195 456 197 q 443 186 435 186 q 434 186 410 188 l 397 187 l 386 189 q 386 189 383 188 l 382 187 l 386 180 q 382 167 375 128 l 371 116 l 371 100 l 364 52 q 364 6 337 6 q 328 6 315 18 q 318 28 319 32 q 325 59 326 61 q 333 78 333 79 l 332 103 l 338 121 l 341 134 l 348 159 q 349 175 352 187 q 341 190 322 190 l 297 192 l 296 192 l 295 192 q 290 192 279 190 q 270 188 266 188 q 261 188 240 193 q 231 195 223 203 q 213 189 207 189 q 205 189 192 190 q 189 191 185 191 l 185 189 l 192 179 q 188 167 181 131 l 176 114 l 176 99 l 168 52 q 168 6 143 6 q 132 6 125 14 q 121 17 121 20 l 125 36 l 130 61 l 137 79 l 136 100 l 142 120 l 145 132 q 152 158 153 168 q 154 180 156 190 q 148 197 137 217 l 116 201 q 97 196 76 190 l 59 188 q 56 187 48 181 z m 202 280 q 201 269 197 245 q 196 242 197 241 l 197 237 l 197 226 l 198 226 l 200 227 l 203 224 l 214 224 l 214 221 q 229 215 234 215 q 239 215 247 225 l 255 224 l 342 224 l 360 227 q 362 237 363 241 q 366 257 366 265 q 366 266 365 281 l 367 295 l 369 318 q 373 326 375 336 q 365 339 341 339 l 318 340 q 315 340 297 339 q 294 339 293 339 q 265 339 253 348 q 246 353 244 353 q 243 353 241 352 l 239 342 q 230 339 227 339 q 220 339 211 340 q 209 331 208 328 q 207 309 206 306 q 203 302 193 296 l 193 295 q 193 293 193 292 q 195 288 195 287 q 196 283 202 280 z"},",":{"x_min":0,"x_max":213,"ha":213,"o":"m 32 -153 q 31 -151 31 -149 q 31 -147 35 -146 q 48 -135 53 -135 q 55 -135 56 -136 l 56 -137 l 66 -137 l 72 -128 q 84 -125 98 -115 q 99 -107 102 -104 q 105 -100 115 -93 q 116 -84 116 -81 q 117 -67 122 -57 l 121 -44 l 125 -32 q 125 -32 123 -28 q 121 -27 120 -20 q 115 11 102 17 q 95 21 92 26 l 86 28 q 84 35 81 40 l 60 38 l 56 42 q 57 51 84 72 q 93 81 105 95 q 123 93 132 85 q 143 76 148 68 l 149 58 l 151 45 l 155 32 l 156 23 q 159 6 159 2 q 159 -2 152 -13 q 151 -16 151 -20 q 151 -24 151 -27 q 154 -45 154 -45 q 153 -52 144 -72 q 139 -80 129 -90 l 129 -94 l 133 -98 l 133 -100 l 134 -102 q 125 -114 122 -118 q 110 -136 93 -149 q 83 -158 77 -158 l 59 -158 q 58 -158 44 -157 q 37 -157 32 -153 z"},"n":{"x_min":0,"x_max":511,"ha":511,"o":"m 66 332 q 70 349 91 358 q 113 376 124 376 q 135 376 138 370 q 139 369 140 342 q 140 335 151 315 q 170 340 174 340 l 191 351 q 210 367 216 367 q 222 367 229 356 q 255 375 282 375 q 287 375 291 374 q 301 371 301 371 q 320 378 324 378 q 329 378 351 373 q 364 370 375 369 q 382 360 385 360 l 396 358 q 409 356 426 331 q 437 314 437 259 q 425 259 413 255 q 401 250 401 247 q 401 246 434 229 q 438 227 438 219 q 438 210 428 189 q 428 188 428 186 q 428 180 438 170 q 437 160 437 153 q 437 148 444 128 l 445 101 l 446 78 l 445 57 q 445 52 450 39 q 437 29 431 26 q 429 25 409 17 q 405 15 388 3 q 374 18 374 27 q 374 31 383 65 q 383 68 384 77 q 384 81 384 84 l 394 87 q 418 91 419 93 q 419 93 414 97 q 402 104 377 109 q 380 130 384 135 l 399 148 q 411 160 411 169 q 411 171 378 183 l 380 201 l 377 227 q 377 227 379 230 q 381 235 383 245 q 375 253 375 256 l 375 281 q 375 286 368 294 q 360 302 360 311 l 357 313 q 346 317 344 319 l 331 342 q 327 349 322 349 q 313 349 302 339 q 284 323 270 323 q 267 323 250 327 l 240 318 l 240 315 q 230 340 220 340 q 219 340 214 338 q 208 334 199 333 q 189 330 173 319 q 149 306 145 299 q 137 288 137 276 q 137 276 138 245 l 138 244 l 138 243 q 138 234 134 232 l 112 216 q 109 213 109 211 q 109 206 118 201 q 137 191 140 188 q 143 185 143 179 q 143 177 142 169 l 143 133 q 143 130 134 118 q 133 117 133 113 q 133 104 143 94 l 142 93 q 143 81 143 77 q 145 48 150 33 q 146 22 141 21 q 139 20 125 18 q 122 18 118 15 q 112 13 110 12 q 106 12 103 5 q 99 0 91 0 q 88 0 83 6 q 79 10 79 15 q 79 19 80 23 q 83 38 83 41 l 83 78 q 88 92 88 94 q 88 99 86 106 q 83 116 83 119 q 83 121 84 129 q 85 134 85 137 q 85 144 84 156 q 84 162 84 167 q 84 174 87 184 l 101 190 q 100 194 98 197 q 95 198 82 199 q 82 208 82 214 q 82 219 83 229 q 84 231 84 235 q 84 246 79 276 l 90 283 q 81 296 80 299 q 79 300 78 310 q 77 318 66 332 z"},"h":{"x_min":0,"x_max":512,"ha":512,"o":"m 58 782 q 62 791 78 798 l 110 815 q 123 821 136 821 q 140 821 147 817 q 124 807 121 804 l 103 784 l 140 749 q 143 746 143 739 q 143 735 137 723 q 133 713 133 713 l 125 709 q 123 708 121 703 q 118 698 118 695 q 118 690 120 683 q 125 683 132 688 q 137 690 142 691 l 137 605 q 137 602 138 593 q 139 586 139 582 q 139 571 127 560 q 127 549 130 546 l 139 536 q 142 533 142 524 q 142 521 136 500 l 139 481 q 142 454 142 453 q 142 452 136 437 l 140 416 l 139 406 q 142 391 142 391 q 142 388 141 385 q 135 358 135 333 q 135 323 140 312 q 166 327 203 362 l 223 358 q 234 366 248 369 q 271 373 275 373 q 281 373 288 366 l 291 355 l 303 355 q 306 358 311 367 q 312 371 316 371 l 346 369 q 389 366 393 363 q 394 363 409 345 q 415 338 430 332 l 423 317 q 429 312 440 312 q 450 299 450 286 q 450 271 449 252 q 447 236 442 230 q 439 227 436 224 l 443 205 l 434 193 l 432 189 l 445 175 q 443 168 443 167 l 443 154 l 445 125 l 445 120 q 437 105 437 102 q 437 99 443 68 l 442 26 q 442 26 442 21 q 431 13 415 11 q 407 5 398 1 q 387 -2 379 -6 l 362 9 q 366 21 373 36 q 381 54 381 73 q 381 78 374 96 l 375 103 l 378 121 q 384 136 388 162 l 379 167 q 379 183 385 224 q 385 228 385 230 q 385 231 385 233 q 382 256 382 257 q 382 257 384 261 q 386 266 386 268 l 386 269 q 386 271 379 285 q 375 293 367 298 q 365 300 351 304 q 331 313 328 314 q 325 315 307 315 q 280 319 275 319 q 271 319 265 318 q 244 317 241 317 q 223 316 202 312 l 195 310 l 167 295 l 150 290 q 114 258 114 254 q 114 242 146 235 q 145 225 144 222 q 141 207 139 168 q 129 168 125 164 l 125 161 q 138 146 141 136 q 145 123 146 94 l 148 79 l 144 57 l 146 44 l 146 36 l 146 27 q 146 23 141 17 q 141 16 110 6 q 103 4 87 -11 l 76 -1 q 76 14 83 36 l 83 50 q 83 51 89 63 q 93 69 93 75 q 93 79 90 83 q 84 93 84 95 l 84 96 l 86 121 l 86 110 l 86 144 q 86 146 86 151 q 87 156 87 157 l 86 175 l 88 212 l 87 240 q 88 245 89 250 q 89 251 102 262 q 104 265 104 270 q 104 277 103 286 l 91 282 q 85 305 85 335 q 85 372 88 418 l 104 420 q 99 431 96 443 l 85 451 q 87 465 87 472 q 87 479 85 488 q 81 522 81 536 q 81 548 90 555 q 113 572 113 574 q 113 574 113 575 q 103 585 78 586 q 80 594 81 604 q 87 622 87 624 q 87 631 77 639 q 77 652 77 659 q 77 668 77 676 q 76 693 76 698 q 76 701 79 719 q 67 756 67 761 q 67 766 67 772 z"},"z":{"x_min":0,"x_max":390,"ha":390,"o":"m 11 18 l 17 23 l 62 85 q 69 96 82 107 q 95 118 98 123 q 102 127 107 138 q 113 137 117 137 q 125 137 136 155 l 132 166 q 142 177 147 183 q 153 190 164 204 q 177 220 188 235 l 199 237 q 203 240 205 249 q 208 261 210 264 q 212 267 230 289 q 249 321 257 332 q 247 347 237 355 q 232 359 230 359 l 174 339 l 140 357 l 119 361 l 106 367 l 91 358 l 57 354 q 51 352 39 337 q 34 342 34 346 q 34 351 53 365 q 59 370 75 389 q 88 388 93 387 q 99 386 101 386 q 104 386 112 389 q 123 358 136 358 q 140 358 142 362 l 153 380 l 167 378 l 180 380 l 189 378 l 202 377 l 221 370 l 230 370 l 248 371 l 267 375 l 283 374 l 298 376 q 315 377 322 378 q 331 380 341 382 q 350 373 350 367 q 350 362 335 343 q 312 316 306 306 l 288 305 q 288 294 286 292 q 285 289 274 276 q 261 262 254 252 l 241 248 l 241 244 q 241 233 240 231 q 238 229 224 215 q 207 192 205 190 q 201 187 191 180 l 191 169 q 191 167 184 159 q 154 118 148 114 q 142 109 129 109 q 124 100 124 94 q 124 91 126 85 q 117 72 106 53 q 119 51 123 51 q 160 48 175 42 q 185 48 187 48 l 237 49 l 298 53 q 300 54 311 50 q 321 46 341 44 l 344 46 l 345 56 q 370 63 385 65 q 387 58 387 53 q 387 50 382 42 q 375 33 372 25 l 366 25 q 360 9 354 7 q 353 6 342 4 q 330 2 327 2 q 324 2 301 9 l 253 9 l 223 19 l 207 16 l 187 14 q 177 12 173 12 q 172 12 148 15 q 129 8 113 8 l 92 8 l 82 8 q 77 8 55 7 l 41 7 q 31 7 28 6 q 25 6 23 6 q 19 6 15 10 q 11 14 11 16 z"},"B":{"x_min":0,"x_max":968,"ha":968,"o":"m 128 106 q 136 107 139 108 l 139 117 l 131 124 q 130 135 128 148 q 127 151 127 154 q 127 164 138 176 l 137 177 q 136 186 131 190 q 128 194 126 202 q 123 217 123 225 l 126 264 l 126 286 l 126 297 l 133 305 q 123 309 123 310 q 126 347 126 348 q 126 354 123 380 l 125 382 l 123 407 q 129 410 136 412 q 140 413 145 416 q 143 423 136 429 q 137 434 137 436 q 137 441 132 450 l 123 443 q 115 460 115 469 q 115 473 118 483 l 117 511 l 117 525 l 115 535 l 116 555 q 109 601 109 605 q 109 612 113 619 q 115 623 115 631 q 120 636 120 640 l 120 641 l 120 643 l 122 655 l 108 654 q 108 664 104 677 l 103 690 q 98 718 98 733 q 98 744 101 756 q 95 754 80 754 l 54 749 q 53 749 48 750 q 56 770 57 770 q 67 775 72 779 l 72 782 q 82 784 84 785 q 97 788 100 788 q 101 788 113 786 q 117 785 121 785 q 127 785 151 795 q 153 796 173 796 q 177 796 207 800 q 209 800 210 800 q 217 800 232 796 q 240 793 247 793 q 251 793 266 796 q 272 784 277 782 q 282 781 294 781 l 297 788 q 310 791 319 796 q 343 793 363 793 q 388 792 421 786 l 439 786 l 470 782 q 481 782 483 781 q 488 780 496 772 q 505 774 510 774 q 520 774 572 754 q 596 747 599 743 q 609 731 609 712 q 609 689 583 651 l 569 629 q 542 605 534 594 l 513 594 l 511 593 l 511 578 q 500 572 498 570 q 473 556 455 550 l 437 542 q 418 538 414 537 q 410 535 405 530 q 415 525 420 524 q 421 524 453 522 q 466 521 486 514 q 513 505 527 501 q 538 500 548 494 q 546 486 546 480 q 546 473 560 466 q 563 471 572 489 q 583 489 596 484 q 619 475 627 471 q 633 470 637 458 l 650 452 l 651 446 l 659 450 l 664 444 q 670 451 676 451 q 687 451 708 437 q 747 412 764 400 q 771 395 783 380 q 781 376 781 374 q 781 371 785 365 q 791 371 794 371 q 796 371 836 341 l 843 332 q 853 327 855 325 q 857 323 868 308 q 883 290 888 280 q 876 270 876 261 q 876 258 876 254 l 893 257 q 903 244 908 232 q 910 226 918 195 q 929 172 929 162 l 929 162 l 928 144 l 928 125 q 927 115 910 97 q 911 93 917 89 q 917 83 917 79 q 917 77 917 74 q 918 66 918 64 q 918 61 888 19 l 877 11 l 866 1 q 853 -7 851 -9 q 849 -11 842 -24 q 829 -42 791 -57 l 784 -51 q 770 -52 764 -55 q 758 -58 750 -69 q 760 -70 760 -78 q 760 -81 757 -84 q 753 -90 719 -96 q 709 -98 675 -114 q 667 -117 661 -119 q 641 -126 638 -128 q 632 -131 629 -131 q 626 -131 620 -127 l 605 -132 l 601 -139 q 591 -141 588 -142 q 574 -144 569 -146 q 556 -154 556 -154 q 537 -148 535 -148 q 533 -148 525 -156 q 522 -159 514 -160 q 494 -163 482 -169 l 470 -158 l 467 -158 q 461 -158 455 -156 l 445 -169 l 350 -172 l 329 -167 l 332 -152 l 318 -149 q 313 -156 304 -159 q 288 -164 286 -164 q 285 -164 249 -155 l 241 -151 l 224 -152 q 212 -147 203 -146 q 196 -146 177 -145 l 164 -146 l 145 -145 l 100 -143 l 98 -142 q 75 -145 71 -145 q 45 -145 45 -134 q 45 -132 48 -130 q 57 -121 67 -117 l 104 -103 q 109 -101 114 -92 q 118 -85 118 -82 l 117 -68 l 160 -56 l 125 -46 q 117 -44 117 -34 q 117 -32 123 -20 l 124 8 l 124 16 q 124 21 115 38 l 162 58 l 116 73 q 122 80 123 81 q 124 82 125 92 q 125 96 128 106 z m 167 653 l 168 653 l 171 654 q 176 645 184 638 l 184 556 l 182 542 q 194 539 198 538 q 202 537 204 537 l 215 538 l 215 538 q 216 538 232 536 q 253 535 274 533 q 272 525 272 520 q 272 504 280 504 q 284 504 302 529 l 302 536 l 391 554 q 397 556 413 566 l 433 573 l 450 584 q 486 605 499 617 q 517 635 518 639 l 527 663 q 535 684 535 686 q 535 692 526 700 l 532 714 q 528 716 526 716 q 525 716 510 710 l 489 734 q 484 733 481 733 q 475 733 463 736 q 458 744 457 745 l 408 754 l 390 760 l 375 757 l 365 758 l 352 758 l 334 763 l 315 764 l 298 765 l 257 759 l 220 755 q 205 752 195 752 q 192 752 183 752 q 178 741 178 740 l 174 683 q 174 675 162 666 l 163 664 q 166 659 167 653 z m 173 35 l 177 19 l 192 21 q 198 7 198 -3 l 198 -5 q 198 -11 197 -19 q 196 -26 196 -27 q 203 -63 203 -65 q 203 -75 191 -87 q 186 -85 182 -85 q 179 -85 175 -90 q 187 -98 202 -101 q 215 -102 226 -108 l 228 -118 q 236 -116 242 -108 q 259 -116 279 -120 l 296 -127 l 311 -129 q 371 -138 404 -138 q 433 -138 484 -127 l 494 -135 q 500 -127 502 -126 l 524 -124 q 529 -123 540 -113 q 558 -112 563 -111 l 590 -104 q 612 -100 628 -91 q 638 -86 643 -86 q 645 -86 650 -88 q 655 -83 663 -80 q 718 -56 741 -35 q 746 -31 784 -11 q 787 -9 794 5 q 806 19 809 23 q 814 29 833 35 l 833 45 q 878 53 878 56 q 878 60 832 65 q 839 79 842 84 q 842 86 848 110 q 851 119 851 125 l 849 127 l 858 134 q 853 142 853 145 l 853 168 l 843 186 l 843 200 q 843 215 813 254 q 801 270 765 305 q 766 311 766 314 q 766 318 763 322 q 758 326 756 326 l 751 326 q 741 331 732 335 q 713 346 709 348 q 707 350 702 358 q 702 358 699 360 q 694 363 690 366 q 680 374 670 376 l 660 383 q 651 387 650 389 q 649 390 642 406 q 641 408 638 408 q 636 408 621 401 q 619 401 618 401 q 612 401 604 405 q 594 412 581 417 l 571 421 l 527 435 l 497 451 q 483 456 475 462 q 458 455 456 455 q 456 455 428 463 l 411 470 l 391 473 l 375 477 l 365 479 l 347 482 q 306 486 304 486 l 278 485 l 238 487 q 216 487 194 466 q 195 455 200 430 q 201 428 201 426 q 201 420 196 408 l 195 408 q 184 408 179 404 q 182 387 183 384 q 184 382 193 372 q 191 364 190 355 l 190 354 q 190 344 190 341 q 190 337 190 337 q 190 332 194 311 q 195 302 195 295 q 195 289 194 277 l 191 248 l 190 238 l 195 219 l 196 195 q 200 175 200 169 q 200 160 195 137 l 188 137 l 190 113 q 203 103 203 93 l 202 61 q 202 56 203 46 l 200 43 l 197 43 l 195 42 l 195 39 q 188 39 183 39 q 176 39 173 35 z"},"K":{"x_min":0,"x_max":884,"ha":884,"o":"m 74 764 l 124 799 l 128 798 q 148 811 160 823 l 168 821 l 168 821 q 171 821 175 821 q 177 821 178 821 q 183 821 187 817 q 191 812 191 808 l 190 792 l 190 767 q 186 742 186 735 q 186 726 188 707 l 173 688 l 160 690 l 162 677 l 162 662 l 165 653 l 167 653 l 177 660 q 182 652 182 648 q 182 646 181 642 q 180 638 180 635 l 181 537 l 180 516 q 180 481 177 479 l 166 469 q 163 466 163 462 q 163 455 174 445 q 175 435 182 422 l 178 405 l 179 389 l 178 364 q 180 339 180 326 l 187 323 l 187 313 l 190 310 q 213 319 216 322 q 244 342 252 347 l 255 346 l 270 363 l 342 439 l 349 455 l 400 520 q 408 530 418 540 q 425 547 443 570 l 437 579 l 437 580 q 445 597 476 633 l 484 636 q 485 645 494 659 l 504 675 l 512 688 l 525 711 q 540 726 550 743 q 561 761 566 771 q 580 772 583 775 l 593 783 q 607 793 609 794 q 610 795 616 796 q 621 796 629 803 q 640 811 647 811 l 651 804 l 651 804 q 651 801 641 786 q 631 766 630 765 q 630 765 615 752 q 593 725 590 719 q 583 705 577 697 l 547 700 l 545 678 l 554 675 q 554 663 548 655 q 543 648 533 638 q 531 631 527 628 q 522 622 517 616 l 501 604 q 495 587 494 585 q 493 583 484 578 q 484 569 482 566 q 480 562 467 551 q 442 526 412 484 l 386 456 q 365 428 356 419 l 353 405 q 341 398 338 396 q 336 393 322 370 q 309 361 307 359 q 305 357 301 347 l 288 345 q 283 339 282 337 q 274 329 274 327 q 274 326 275 325 l 275 323 l 322 268 q 337 250 337 236 q 337 233 336 229 q 347 229 352 228 q 357 226 369 214 q 381 203 386 193 q 392 192 397 189 q 416 175 416 166 q 416 161 411 154 q 418 147 433 139 l 447 129 l 458 126 q 460 128 470 116 l 480 116 q 495 100 522 79 l 584 35 l 600 26 q 599 22 599 19 q 599 10 607 9 q 615 7 620 5 l 620 -3 q 623 -5 634 -8 q 644 -12 659 -15 q 671 -18 681 -27 q 735 -60 737 -61 q 740 -64 742 -76 q 756 -79 767 -85 l 777 -77 q 789 -82 809 -86 q 828 -90 842 -90 q 842 -90 844 -90 q 878 -85 878 -85 q 879 -85 882 -89 l 884 -93 q 887 -115 838 -125 l 831 -136 q 816 -137 812 -139 q 811 -139 797 -147 l 786 -146 q 772 -145 771 -144 q 769 -144 763 -139 l 745 -141 q 731 -129 724 -125 q 720 -122 698 -111 q 686 -104 677 -102 q 671 -100 657 -92 q 641 -82 638 -82 q 624 -75 622 -73 l 611 -61 l 604 -57 q 593 -47 584 -42 q 585 -36 585 -31 q 585 -27 583 -25 q 577 -18 565 -18 q 563 -18 545 -23 q 544 -24 543 -24 q 534 -24 527 -11 q 525 -8 522 7 q 521 12 516 16 q 512 19 509 19 q 509 19 497 17 q 496 17 495 17 q 487 17 461 36 q 453 42 418 68 l 396 92 q 388 100 387 102 q 382 107 373 111 q 354 124 327 140 q 330 152 334 162 q 314 170 311 170 q 308 170 303 169 q 296 176 283 187 l 263 209 q 252 220 250 223 q 248 228 244 239 q 233 239 228 241 q 222 243 204 262 q 197 268 188 268 q 181 268 177 264 q 172 259 172 253 q 172 251 172 250 l 184 250 q 184 245 184 241 q 184 237 182 224 q 181 220 181 216 q 181 212 184 184 l 184 166 l 185 150 q 185 146 182 144 q 177 139 176 136 q 175 130 172 122 q 182 121 187 116 q 182 96 182 45 q 181 36 176 36 q 171 36 164 43 l 160 43 q 157 41 157 38 q 157 20 180 20 q 182 14 183 -5 l 183 -14 q 183 -20 176 -29 l 167 -35 l 171 -48 q 178 -41 182 -41 q 188 -41 188 -64 q 187 -68 189 -75 q 191 -83 191 -86 q 191 -87 191 -90 q 177 -98 173 -108 q 157 -108 147 -117 l 149 -124 q 130 -130 121 -136 q 106 -148 102 -148 q 96 -148 88 -146 q 91 -132 91 -128 l 91 -126 q 91 -124 91 -122 q 91 -119 91 -119 l 142 -89 l 95 -63 q 95 -63 99 -60 q 109 -52 108 -45 l 107 -25 l 147 -4 l 111 16 l 112 34 l 112 81 l 113 92 q 107 105 107 108 q 107 111 108 116 q 115 143 115 146 l 118 220 l 145 249 q 125 260 116 270 l 119 273 l 123 273 l 126 270 l 128 270 l 128 274 q 136 282 138 291 l 122 289 q 117 326 117 349 l 120 375 l 120 376 l 119 394 l 120 402 q 120 425 123 429 q 127 435 127 441 l 112 448 q 116 458 117 475 l 117 489 l 116 504 q 116 532 115 539 q 113 547 107 556 q 110 564 111 567 q 113 573 116 577 q 113 583 113 590 q 119 595 125 596 l 125 617 q 118 611 112 610 q 110 618 109 642 q 107 675 104 693 q 111 700 113 707 q 100 718 100 730 q 100 736 102 749 q 76 751 75 761 z"},"R":{"x_min":0,"x_max":794,"ha":794,"o":"m 81 -157 l 83 -152 q 98 -122 99 -119 q 100 -116 101 -95 q 110 -45 112 -24 l 104 -20 l 103 -17 q 137 -1 143 3 q 149 7 149 13 q 149 26 107 49 l 118 53 q 118 66 120 71 q 120 72 120 72 q 120 74 116 83 q 112 92 112 106 l 119 170 l 119 237 q 119 242 125 250 q 131 257 135 267 l 119 274 q 115 297 115 309 q 115 314 116 319 q 118 351 118 354 q 118 354 118 356 q 113 400 113 400 q 113 401 118 405 q 121 408 128 414 l 128 420 l 115 430 q 116 440 116 448 q 116 463 114 484 l 124 496 q 116 505 116 510 q 116 515 118 520 l 109 521 q 108 523 108 523 l 134 566 l 136 606 l 149 622 l 107 663 l 108 695 q 108 708 98 708 q 93 708 86 706 q 82 709 82 713 q 82 722 88 728 q 92 730 97 730 q 102 730 108 729 q 119 738 130 744 q 153 754 156 754 q 161 754 168 744 q 171 744 173 744 q 179 744 188 740 l 199 749 q 218 748 225 747 q 237 745 243 745 q 244 745 292 750 l 292 750 q 294 750 302 749 q 321 746 395 744 l 407 742 l 430 741 q 436 740 438 740 q 443 740 452 748 q 464 745 486 743 l 512 739 l 529 737 l 542 734 l 560 734 l 575 731 q 594 729 616 720 q 627 716 629 706 l 627 703 l 620 703 l 620 690 q 625 687 630 686 l 632 688 q 632 691 632 694 q 632 698 638 704 q 642 703 646 699 q 648 697 650 696 q 665 686 665 679 q 665 664 661 642 q 671 641 671 635 q 671 631 662 617 q 653 604 643 597 q 642 597 637 590 q 632 586 601 556 q 579 541 578 540 q 574 536 571 526 l 554 516 l 545 518 q 539 512 533 509 q 522 505 514 495 q 502 481 498 479 q 495 477 483 476 l 475 468 l 462 472 q 459 463 456 458 q 438 454 428 446 l 430 444 q 419 431 410 426 q 404 423 389 420 q 384 419 381 411 q 364 400 355 394 q 366 392 367 391 l 385 354 l 403 335 q 405 333 410 323 l 401 319 l 408 312 q 412 312 414 312 q 422 312 434 302 q 437 299 443 290 q 449 282 455 274 q 446 267 444 260 l 450 255 l 470 253 q 473 250 477 242 q 477 241 489 229 q 491 227 506 197 q 513 185 548 144 l 563 122 q 580 102 582 97 q 588 83 588 79 l 588 72 l 588 71 q 588 66 590 63 q 591 60 615 47 q 626 40 638 25 q 674 -20 676 -24 q 680 -33 680 -46 q 687 -53 703 -61 l 709 -59 l 710 -59 q 713 -59 715 -61 q 716 -61 723 -75 q 725 -78 741 -87 q 748 -96 751 -96 q 754 -96 769 -89 l 785 -90 q 787 -90 792 -88 q 796 -92 796 -96 q 796 -100 793 -103 q 792 -104 772 -113 l 756 -123 q 753 -124 741 -126 q 731 -128 710 -136 l 696 -141 q 684 -149 683 -149 q 681 -149 671 -140 q 667 -136 658 -132 q 652 -121 634 -93 q 631 -89 631 -74 l 601 -56 l 609 -38 q 599 -26 588 -19 q 579 -9 559 21 l 561 34 q 546 40 537 50 q 511 75 508 105 q 502 116 485 124 q 475 130 456 162 q 445 165 440 172 q 432 182 422 192 q 422 206 417 212 q 407 228 401 228 q 396 228 391 227 q 387 232 375 251 l 341 296 q 326 317 312 331 q 280 359 271 359 q 270 359 208 336 q 208 336 206 336 q 200 336 192 337 q 191 329 187 318 q 185 314 185 313 l 186 301 l 186 288 q 189 266 189 266 q 189 263 187 250 q 186 246 186 239 q 186 229 187 218 q 187 210 188 176 l 191 163 l 191 123 q 193 103 193 101 q 193 97 189 91 q 186 84 185 77 l 172 72 l 176 48 q 183 47 188 44 q 185 36 185 30 q 185 29 189 15 q 189 14 189 11 q 189 8 189 0 q 189 -4 189 -8 q 189 -18 189 -28 q 178 -34 178 -45 q 178 -55 191 -56 q 189 -62 189 -64 l 190 -94 q 190 -101 183 -113 q 180 -119 169 -125 q 158 -131 157 -132 q 154 -136 150 -142 l 133 -140 q 118 -162 95 -162 q 90 -162 81 -157 z m 163 518 l 172 522 l 184 511 q 184 491 185 467 l 185 448 l 187 423 q 184 409 184 385 l 175 382 l 175 374 q 177 374 177 374 q 182 374 189 371 q 197 377 203 379 q 207 380 220 383 q 226 379 229 379 q 232 379 238 382 l 241 387 q 251 388 277 397 l 290 399 l 317 417 q 332 423 348 434 l 445 486 q 474 499 484 506 q 492 511 506 526 l 525 541 q 539 554 542 558 q 545 559 557 563 q 560 565 572 583 q 583 591 584 594 q 589 603 589 611 q 589 615 588 619 q 585 626 585 628 q 585 629 586 633 l 596 640 l 596 642 l 579 648 q 573 659 570 663 l 570 669 q 570 669 569 671 q 566 675 566 679 q 566 682 566 685 l 551 689 l 550 682 q 539 686 535 687 q 522 692 510 695 q 501 697 494 703 q 486 701 484 701 l 457 709 l 419 709 q 414 709 405 716 q 396 714 374 713 q 358 709 357 709 q 354 709 335 717 q 334 717 316 721 q 302 721 274 706 q 266 701 258 701 q 254 701 253 702 l 237 726 l 220 719 q 197 718 193 716 q 185 710 183 703 q 183 701 182 665 q 182 661 175 644 l 168 646 l 166 639 l 166 638 q 165 633 170 627 q 183 614 185 610 q 185 587 185 583 q 185 577 185 574 q 185 571 182 565 q 179 559 179 549 l 169 540 q 169 528 162 520 z"},"T":{"x_min":0,"x_max":952,"ha":952,"o":"m 21 751 q 33 755 71 777 q 83 784 103 784 q 122 784 146 768 l 165 766 q 191 762 208 760 l 267 756 l 288 753 l 288 753 q 291 753 298 754 q 326 757 339 757 q 346 757 360 756 l 428 752 q 430 751 448 757 q 451 759 454 759 q 455 759 467 755 q 489 754 497 751 q 501 750 516 745 q 536 756 547 756 q 551 756 583 750 l 599 752 q 614 749 616 749 l 630 750 l 665 749 l 691 750 l 700 750 q 717 750 718 749 l 740 742 q 740 742 742 744 l 749 757 q 764 755 771 755 l 803 761 l 804 761 q 806 758 815 737 l 823 751 q 824 753 841 753 q 842 753 868 766 q 870 767 871 767 q 875 767 877 763 l 888 740 l 913 767 l 924 770 l 936 774 l 936 774 q 944 773 948 766 l 938 757 l 936 749 q 925 744 923 742 l 912 726 q 910 724 899 718 q 888 713 876 713 q 873 713 866 714 q 850 717 846 717 q 841 717 836 717 q 823 715 821 715 q 815 715 800 718 q 788 721 777 721 q 775 721 740 716 q 731 715 724 715 q 721 715 669 718 l 650 715 l 619 733 l 605 715 l 595 719 l 582 720 l 559 722 q 559 722 553 720 q 547 718 541 718 l 541 718 q 537 718 509 720 q 502 721 497 721 q 489 721 483 717 q 486 713 486 713 q 486 709 469 695 q 466 693 454 671 q 452 667 441 654 q 433 644 433 641 q 433 627 463 616 q 478 611 478 607 q 478 606 472 597 q 469 593 467 583 l 459 583 l 460 568 l 472 562 q 477 552 477 548 q 477 543 475 529 q 474 522 474 515 q 474 506 477 468 l 479 444 q 479 429 480 418 q 481 406 481 404 q 481 395 475 392 q 475 392 468 390 q 464 389 458 384 l 458 381 l 457 379 l 468 370 l 468 354 l 482 348 q 439 325 439 303 q 439 283 480 268 q 474 261 474 256 q 474 251 476 234 q 477 229 477 224 q 477 221 476 214 l 481 211 q 478 191 478 183 l 478 183 l 479 164 q 480 138 481 134 q 481 131 486 118 q 479 100 479 94 q 479 90 479 84 l 478 83 q 460 80 460 71 l 460 70 l 463 60 l 479 64 q 479 54 481 51 q 484 42 484 41 q 484 40 482 32 q 481 29 481 25 q 481 21 484 -16 q 484 -22 479 -61 q 478 -69 478 -77 q 478 -81 484 -104 q 481 -122 479 -124 q 477 -126 462 -130 q 453 -133 449 -136 l 442 -144 q 430 -144 429 -145 q 400 -163 392 -167 q 383 -157 383 -150 q 383 -148 388 -133 l 387 -119 l 391 -105 l 393 -79 l 395 -64 q 395 -47 396 -42 q 399 -35 411 -25 q 401 -15 401 -8 l 401 -8 l 403 14 l 403 39 q 404 58 404 69 l 412 78 q 411 83 411 85 q 411 90 413 99 l 405 106 l 403 106 l 406 117 l 406 196 q 405 200 408 213 q 410 226 410 234 q 410 237 407 252 l 405 275 q 404 284 404 286 q 404 287 410 305 q 411 316 412 318 q 413 322 425 324 l 425 333 l 409 329 q 406 341 406 345 q 406 350 408 360 q 409 365 411 374 q 404 376 399 379 l 401 391 l 401 484 q 401 493 419 501 q 438 510 438 514 q 438 517 419 527 q 411 532 399 542 q 411 547 411 552 q 411 553 405 570 q 405 572 405 574 q 405 580 406 586 q 393 601 393 622 q 393 626 400 638 q 396 650 395 654 q 394 657 394 657 q 394 670 437 689 q 441 691 441 693 q 441 694 396 704 q 391 705 391 711 q 391 713 393 717 q 377 724 345 725 q 335 725 316 726 q 315 726 315 726 q 313 726 292 723 l 254 726 q 252 726 244 722 q 236 728 229 728 l 229 728 q 218 728 217 728 l 191 737 l 184 733 l 174 729 l 158 722 q 137 726 135 726 q 130 726 109 723 l 85 723 l 68 723 q 63 723 42 728 q 41 728 37 728 q 28 728 8 726 q 7 727 7 728 q 6 729 6 729 q 6 733 13 740 q 17 743 21 751 z"},"P":{"x_min":0,"x_max":664,"ha":664,"o":"m 181 809 q 197 818 210 820 q 227 821 250 821 q 265 821 298 812 l 331 811 l 361 803 q 361 801 385 801 q 390 782 401 782 q 408 782 416 793 q 420 793 423 793 q 425 793 443 785 q 457 781 476 779 l 498 774 l 512 772 q 528 769 540 766 q 546 765 568 754 l 579 755 q 594 746 597 745 q 601 744 609 744 q 613 734 615 733 l 631 721 q 634 720 637 712 q 641 706 641 703 q 641 702 636 679 l 628 663 q 624 644 622 641 q 620 639 615 637 q 615 638 615 639 q 615 642 613 644 q 604 640 601 635 q 599 633 594 632 q 578 629 578 621 q 578 616 585 606 q 577 600 574 598 q 562 586 560 585 l 542 580 q 535 578 522 560 q 509 559 502 557 q 499 556 474 543 l 452 538 l 430 531 l 414 531 q 407 529 405 529 q 403 529 400 529 q 396 521 391 519 q 388 519 363 514 l 353 511 l 333 513 l 315 506 q 273 504 266 503 q 262 501 244 493 q 243 492 229 491 q 214 490 192 482 q 200 475 200 469 l 197 448 q 196 393 193 380 l 189 380 l 188 381 l 186 379 q 187 370 188 367 q 192 338 192 302 l 197 277 l 195 211 l 195 194 l 195 159 l 197 125 q 196 124 193 118 l 184 116 l 186 97 l 199 97 q 199 94 199 93 q 199 89 197 81 q 196 73 196 67 l 198 49 l 198 48 l 195 42 l 186 39 q 185 33 185 28 q 185 22 189 12 q 203 12 203 0 q 203 -19 200 -47 q 200 -52 200 -55 q 200 -59 210 -93 q 211 -97 211 -102 q 211 -111 205 -115 q 203 -117 178 -124 q 176 -132 173 -137 q 170 -142 155 -146 q 124 -156 114 -159 q 106 -148 106 -143 q 106 -142 115 -114 l 114 -97 q 114 -97 118 -72 q 120 -64 130 -55 q 122 -36 122 -31 l 122 -31 l 127 -4 l 130 18 q 131 21 137 28 q 132 44 124 53 q 126 64 126 65 l 127 126 q 129 141 129 143 q 129 146 125 158 l 141 169 q 139 179 139 183 q 138 192 137 195 q 137 196 130 203 q 131 213 131 217 l 130 257 q 130 264 141 278 q 141 284 133 296 q 133 297 133 299 q 133 300 136 312 l 136 338 l 138 359 q 138 375 124 386 q 124 396 125 399 q 127 411 127 414 q 127 414 125 425 l 124 446 q 119 463 119 465 q 119 468 125 483 q 125 486 125 493 q 125 499 125 507 q 124 519 123 524 q 123 537 120 555 q 119 573 119 573 q 119 574 115 580 l 113 580 l 109 608 q 119 617 119 625 q 119 636 111 643 q 124 649 124 656 q 124 659 107 686 q 104 701 101 709 l 108 722 q 96 737 96 740 q 96 743 98 749 q 100 752 102 761 q 93 767 88 767 q 82 767 73 764 q 70 769 70 774 q 70 783 79 788 q 89 793 116 802 l 131 812 l 141 815 q 161 824 166 824 q 176 824 181 809 z m 178 672 l 187 672 q 186 661 186 658 q 185 652 185 606 q 184 598 184 584 l 193 580 q 191 568 191 563 l 191 562 q 191 558 192 552 q 192 549 192 547 q 192 543 191 536 q 196 534 198 534 q 198 534 210 535 q 211 535 213 535 q 220 535 229 534 l 229 523 q 232 523 234 523 q 240 523 247 525 q 250 530 252 531 q 256 532 315 540 q 344 541 359 543 q 369 545 373 546 q 379 549 382 552 l 397 552 q 412 557 414 557 q 418 557 424 555 q 431 560 437 561 q 446 563 476 576 q 501 576 526 604 q 531 610 541 625 q 544 630 549 649 q 558 663 558 667 q 558 686 540 699 q 537 701 509 718 q 507 719 474 729 q 469 730 460 733 l 464 744 l 446 750 q 436 740 428 740 q 427 740 413 745 q 385 747 380 748 q 374 750 367 761 q 354 760 350 759 q 349 759 343 754 l 339 754 q 321 755 313 757 q 308 758 287 766 q 287 788 278 800 q 276 802 274 802 q 266 802 251 769 q 238 772 203 772 q 200 772 194 770 q 191 758 191 754 q 189 722 185 712 q 185 710 185 708 q 185 704 185 699 q 177 688 177 684 l 178 680 l 178 677 z"},"|":{"x_min":0,"x_max":574,"ha":574,"o":"m 266 83 q 254 98 254 107 q 254 110 264 139 q 265 141 265 143 q 265 148 255 161 q 256 168 262 176 q 265 180 265 182 q 265 185 261 192 q 257 202 257 242 q 257 245 264 270 q 265 274 265 278 q 265 282 257 306 q 257 306 257 307 q 257 308 264 325 q 266 329 266 333 q 266 341 256 354 q 270 366 273 371 l 285 390 l 292 400 l 253 424 q 263 443 263 445 q 263 449 261 456 q 258 464 258 471 q 258 473 258 475 q 262 498 262 498 q 262 498 259 503 q 256 509 256 514 l 256 514 q 256 516 261 523 q 266 533 270 542 l 252 553 l 265 577 q 253 592 254 597 l 256 611 l 258 657 q 261 672 261 673 l 260 692 l 260 693 l 260 701 q 260 717 252 730 l 266 750 q 252 768 252 774 q 252 779 258 802 q 278 798 285 798 q 287 798 290 798 q 304 800 307 800 q 314 800 316 792 q 320 784 320 782 q 320 779 314 756 q 313 751 313 743 q 313 732 323 713 l 311 689 l 315 666 q 315 664 309 656 q 317 644 317 640 q 317 639 313 622 q 317 618 321 608 q 307 599 308 593 l 311 576 l 311 560 q 312 556 319 546 l 308 529 q 314 519 316 516 q 322 507 323 502 q 282 488 282 476 q 282 471 306 454 l 302 453 l 279 449 l 318 423 l 315 397 q 315 394 320 386 l 309 373 q 309 367 312 359 q 313 353 313 349 q 313 347 312 344 q 306 325 306 324 q 306 324 310 321 q 316 314 318 295 l 305 287 l 316 251 q 297 247 285 238 q 281 235 281 231 q 281 221 323 203 q 317 193 314 190 q 303 175 303 169 q 303 161 319 151 q 322 143 322 138 q 322 128 306 110 l 320 86 l 308 70 l 322 49 l 318 34 l 318 11 q 319 4 308 -22 l 322 -29 l 310 -70 l 324 -78 l 306 -114 q 316 -130 316 -143 q 316 -155 306 -169 q 314 -177 316 -179 q 324 -186 324 -191 q 324 -208 306 -208 q 300 -208 285 -197 q 283 -195 281 -195 q 279 -195 276 -197 q 271 -201 261 -205 q 262 -194 263 -191 q 265 -186 265 -182 q 265 -181 256 -156 q 255 -154 255 -151 q 255 -143 267 -129 q 258 -109 258 -105 q 258 -101 265 -89 l 254 -74 q 263 -62 263 -58 l 262 -40 q 269 -20 269 -18 q 269 -6 252 3 l 266 30 q 251 48 251 62 q 251 73 266 83 z"},"t":{"x_min":0,"x_max":348,"ha":348,"o":"m 43 347 q 47 366 57 366 l 57 366 l 81 364 l 82 364 q 109 368 113 369 q 113 377 113 380 q 113 426 111 456 q 110 468 105 479 l 101 489 q 99 493 99 497 q 99 504 110 515 q 128 531 156 537 q 163 550 170 550 q 173 550 175 547 q 182 540 182 528 q 182 528 177 451 q 171 431 170 428 q 168 421 159 414 q 159 404 162 395 l 173 395 l 170 370 q 182 369 221 358 q 223 357 237 357 q 246 357 266 363 l 298 366 q 323 376 328 376 q 334 376 343 375 q 342 361 340 355 q 338 348 310 330 q 303 326 300 323 q 292 314 292 314 q 290 312 280 312 q 273 312 270 314 l 250 325 l 237 328 l 223 338 l 198 319 l 176 322 q 174 322 167 317 q 170 294 170 278 q 170 270 170 255 q 152 252 152 240 q 152 236 154 229 q 165 229 172 227 l 171 166 q 164 167 159 167 q 150 167 150 160 q 150 154 154 146 q 161 150 166 150 q 173 150 173 141 l 172 122 l 172 121 q 173 101 173 92 q 174 83 179 73 l 185 63 q 186 61 186 57 q 186 53 185 46 q 200 37 219 37 q 234 37 250 45 q 263 52 264 53 l 291 77 q 311 94 315 94 q 319 94 327 89 q 326 80 325 77 q 322 51 318 47 q 315 43 289 35 q 269 24 228 11 l 211 5 q 195 -4 192 -4 q 188 -4 183 5 l 174 7 l 168 -5 q 162 -6 157 -6 q 144 -6 126 11 q 119 19 114 27 q 113 27 110 40 q 104 56 104 58 q 104 62 105 72 q 106 80 106 105 q 107 121 115 129 q 112 139 112 152 q 110 174 109 237 q 121 245 121 251 q 121 255 120 261 l 106 264 l 105 269 l 105 269 q 105 271 106 279 q 109 292 109 323 q 89 328 80 328 q 77 328 55 325 l 44 324 q 31 319 30 319 q 23 319 23 326 q 23 335 43 347 z"},"M":{"x_min":0,"x_max":1030,"ha":1030,"o":"m 113 134 q 126 142 126 151 q 126 156 118 160 q 117 181 117 197 q 117 206 118 215 q 122 243 122 247 q 122 250 120 258 l 133 262 q 134 265 134 267 q 134 269 129 276 q 125 285 123 294 q 130 298 133 302 q 135 306 136 317 q 128 327 126 332 l 154 352 l 153 352 l 124 362 l 137 400 q 133 417 118 416 q 124 438 124 442 q 124 443 123 453 l 122 468 q 121 488 121 500 q 121 513 128 522 q 118 539 118 551 q 118 558 122 568 q 115 576 115 581 q 115 583 117 588 q 118 592 119 615 q 119 618 120 627 l 113 627 q 114 637 114 664 q 121 683 121 685 q 121 690 112 710 q 103 710 97 715 q 98 721 103 728 q 117 745 137 757 q 164 771 173 781 l 181 781 q 200 758 205 746 q 209 733 211 731 l 219 724 q 220 723 221 708 q 226 692 229 682 q 201 678 201 671 q 201 663 218 656 q 229 663 238 665 l 239 664 q 241 640 249 626 q 255 616 255 611 q 255 611 255 611 q 253 602 253 595 q 253 586 269 578 q 271 568 274 560 q 275 557 275 554 q 275 549 274 543 q 291 533 291 525 q 291 517 274 506 l 281 482 l 285 481 q 295 495 301 495 q 305 495 312 493 q 312 493 313 489 q 314 488 314 482 q 314 481 314 479 q 313 478 313 478 q 313 473 317 467 q 337 432 340 419 q 342 410 346 398 q 346 396 346 395 q 346 390 344 382 l 337 382 q 336 380 336 380 q 336 375 341 368 l 349 371 l 349 371 q 353 371 355 367 q 357 364 359 349 l 372 345 q 374 333 382 320 q 393 303 404 270 q 405 269 413 255 q 421 240 425 219 l 426 213 l 425 200 q 425 198 434 190 q 437 187 441 180 l 453 177 q 457 156 461 148 l 471 145 q 476 128 492 100 l 514 51 l 524 36 q 533 19 536 17 q 538 16 542 16 q 550 25 559 43 l 574 71 l 580 82 l 588 96 l 592 112 q 608 138 609 140 q 611 143 624 151 q 630 155 630 160 q 630 161 629 163 q 624 181 624 181 q 624 181 633 193 q 636 197 640 208 l 652 206 q 657 212 657 216 q 657 220 656 226 q 656 231 656 235 q 656 244 658 250 l 681 309 q 688 335 690 339 q 694 345 706 354 q 702 365 702 369 q 702 375 724 422 l 733 454 q 748 482 749 486 q 752 492 766 493 q 761 503 759 516 l 759 521 l 763 539 l 763 549 l 813 625 q 815 643 816 646 q 827 663 831 666 q 832 667 854 682 l 859 688 l 860 689 q 858 695 817 699 l 805 699 l 789 721 q 797 737 797 737 q 797 738 806 742 l 822 752 l 837 758 q 856 769 863 771 q 869 773 892 778 q 896 759 896 744 l 897 731 l 898 724 l 900 711 l 898 683 l 898 667 l 896 649 l 896 635 l 896 628 q 896 625 899 619 q 894 620 889 620 q 881 620 881 613 q 881 606 897 603 l 890 587 l 892 585 l 897 585 l 901 582 q 901 570 900 567 q 900 555 900 551 q 900 550 904 513 q 904 512 904 510 q 904 504 893 487 q 892 485 892 472 q 892 467 896 461 l 909 463 l 914 458 q 910 446 910 431 q 910 423 913 401 l 916 313 q 916 309 917 302 q 918 290 918 282 q 918 278 917 272 l 903 273 q 903 271 903 269 q 903 263 898 253 q 908 244 918 243 q 921 233 922 222 l 928 184 l 931 162 l 935 155 q 928 134 928 132 q 927 127 925 120 l 943 106 q 943 96 943 89 q 943 85 943 81 q 941 70 941 70 q 941 64 946 54 l 931 51 l 924 32 q 929 28 937 25 q 944 23 947 8 q 949 -7 950 -7 l 956 -19 q 957 -23 963 -53 q 964 -76 968 -101 q 961 -108 945 -125 q 917 -146 889 -145 q 887 -145 879 -148 q 874 -150 871 -150 q 868 -150 863 -146 q 869 -131 870 -113 l 872 -103 q 867 -88 867 -87 q 867 -79 880 -73 l 879 -60 q 865 -47 865 -37 q 865 -32 866 -27 q 875 6 875 8 l 864 40 l 864 41 l 866 79 l 866 79 q 867 89 861 117 q 859 126 859 131 l 871 132 q 869 148 868 151 q 867 155 856 157 q 854 167 851 182 q 848 191 848 211 q 848 214 849 228 l 849 229 q 849 232 849 234 q 848 235 848 235 q 854 252 854 253 q 854 254 851 267 l 849 279 l 845 288 l 841 338 l 838 357 l 841 399 l 839 415 l 875 429 l 839 438 q 844 446 844 448 q 844 466 829 471 q 828 472 828 472 q 828 482 845 485 l 868 489 l 830 511 l 829 535 q 829 540 821 548 l 816 548 q 813 538 812 535 q 804 516 804 515 q 803 515 803 500 l 791 490 q 791 487 791 484 q 791 479 779 458 l 773 441 l 766 425 l 761 407 l 750 393 l 748 376 l 744 369 l 741 351 l 720 301 l 710 272 q 708 270 700 263 l 698 249 l 686 242 q 686 231 678 204 l 665 197 q 667 188 667 183 q 667 159 646 144 q 647 139 647 136 q 647 134 645 130 q 643 127 635 111 l 623 89 l 610 54 l 604 39 l 597 23 l 589 10 l 583 -2 q 577 -13 573 -27 q 555 -73 547 -96 q 541 -96 537 -96 q 535 -96 533 -96 q 523 -97 521 -97 q 516 -97 513 -93 q 509 -88 493 -51 q 491 -47 475 -26 q 469 -19 466 -5 q 464 4 460 15 l 451 16 q 446 29 438 54 q 435 65 417 94 q 410 105 410 118 q 410 120 415 134 q 415 135 415 136 q 415 141 408 149 l 393 144 q 383 164 380 169 q 373 181 370 189 l 365 197 l 361 210 q 350 231 345 245 q 339 250 338 250 q 330 271 322 291 q 302 325 298 337 l 300 338 l 307 341 q 302 352 300 355 q 294 367 293 371 q 287 392 284 394 q 282 396 280 396 q 275 396 270 393 q 244 442 244 453 q 244 457 244 462 q 235 472 232 476 q 227 481 226 486 q 226 488 225 504 q 217 514 215 525 q 213 534 208 544 l 202 546 q 188 577 174 577 q 171 577 168 576 q 172 564 172 550 l 175 532 l 175 509 q 179 482 179 482 q 179 479 178 472 q 177 467 177 461 q 177 456 179 429 l 179 428 l 177 413 l 170 408 l 172 392 l 166 389 l 166 376 q 182 376 182 368 q 182 368 181 354 l 180 345 l 180 304 l 179 286 l 179 268 q 179 263 172 256 l 176 229 l 168 227 q 167 220 167 214 q 167 213 174 192 q 174 192 174 191 q 174 188 173 179 q 171 172 171 161 q 171 155 172 149 q 172 135 172 128 q 172 124 168 104 q 166 88 166 70 q 166 57 171 44 q 168 39 162 35 q 141 22 141 14 q 141 8 149 -2 l 159 10 l 163 10 l 167 6 q 165 0 165 -3 q 165 -7 170 -19 q 171 -20 171 -20 q 171 -27 150 -34 q 130 -41 130 -49 q 130 -55 146 -61 l 172 -70 q 169 -81 169 -83 q 169 -88 170 -93 l 158 -101 q 160 -107 160 -111 q 160 -114 158 -116 q 157 -117 128 -126 l 112 -136 q 81 -146 81 -146 q 79 -146 75 -145 q 75 -144 75 -144 l 74 -139 l 74 -139 q 74 -137 84 -125 q 87 -121 104 -109 q 116 -102 119 -97 l 126 -82 l 134 -72 l 95 -48 q 95 -48 99 -43 q 105 -37 106 -21 q 106 7 106 8 l 110 22 q 111 25 111 30 q 111 33 109 41 l 112 52 l 108 69 q 117 104 117 107 q 117 114 113 134 z"},"g":{"x_min":0,"x_max":517,"ha":517,"o":"m -3 -161 q 9 -159 16 -150 q 26 -137 35 -133 q 65 -121 75 -116 q 81 -122 81 -127 q 81 -132 76 -137 q 75 -138 59 -150 q 56 -152 51 -160 q 42 -173 42 -185 q 42 -188 43 -194 q 31 -200 31 -207 q 31 -213 36 -215 q 37 -215 40 -215 q 44 -216 51 -218 q 54 -229 68 -239 q 86 -253 97 -256 l 105 -269 q 132 -276 141 -276 q 144 -276 150 -274 q 153 -274 155 -274 q 158 -274 177 -297 l 181 -288 q 183 -277 186 -277 l 254 -280 q 256 -280 261 -278 q 266 -276 276 -274 q 325 -265 338 -260 q 368 -249 371 -248 q 376 -247 391 -246 q 395 -242 399 -234 q 401 -232 428 -216 q 438 -208 445 -205 q 447 -198 452 -193 q 460 -187 460 -183 l 458 -165 q 464 -149 464 -139 q 465 -133 466 -130 q 470 -119 470 -117 q 470 -112 460 -108 q 454 -84 446 -75 q 439 -66 439 -62 q 439 -58 440 -52 q 414 -35 372 -28 l 371 -28 q 365 -28 363 -28 q 360 -29 360 -29 q 358 -29 342 -25 q 337 -24 333 -24 q 327 -24 317 -25 q 310 -27 305 -27 q 302 -27 287 -18 q 286 -18 285 -18 q 282 -18 264 -26 l 252 -28 l 233 -32 l 208 -6 l 192 -31 q 192 -31 183 -27 q 179 -25 174 -25 q 170 -25 166 -25 q 158 -37 148 -37 q 143 -37 124 -32 q 108 -28 93 -20 q 71 -6 68 2 q 67 5 65 17 q 62 33 62 34 q 62 45 77 60 q 93 77 98 81 q 103 84 116 91 l 129 99 q 148 102 152 103 q 155 104 166 112 l 166 114 q 159 117 155 117 q 148 117 140 116 q 135 115 131 115 q 122 115 101 126 q 96 129 95 132 q 95 133 91 146 q 90 152 82 155 q 69 158 69 159 l 62 170 q 53 183 53 188 q 53 188 56 209 q 56 232 58 236 q 59 238 66 249 q 69 252 69 257 q 69 262 64 273 q 73 281 90 302 q 96 309 114 320 l 139 343 q 143 347 149 348 q 157 350 159 351 q 161 352 163 357 q 174 358 218 371 l 234 373 q 251 376 257 376 q 262 376 292 372 q 313 372 324 371 q 334 381 352 387 q 360 391 363 391 q 369 391 381 388 q 390 386 397 386 q 410 386 430 389 l 431 389 q 435 389 448 378 q 457 379 457 389 q 457 392 457 396 q 472 404 488 412 q 490 413 497 413 q 501 414 509 416 q 512 412 512 409 q 512 385 476 370 q 475 361 472 358 q 470 354 460 347 q 449 339 441 337 q 427 335 421 335 q 417 335 417 336 l 401 357 q 400 359 398 359 q 389 359 380 336 q 387 329 390 327 q 402 315 405 312 q 407 310 409 300 l 417 293 l 417 278 l 419 276 l 403 269 l 403 262 q 413 256 413 250 q 413 238 391 215 l 379 201 l 354 181 l 346 169 q 344 167 333 160 l 325 154 q 305 141 286 136 q 260 127 253 127 q 242 125 231 122 q 231 116 231 112 q 231 105 226 98 q 203 98 196 97 q 189 95 165 86 q 131 79 125 75 q 105 65 100 52 q 97 47 97 47 q 100 41 133 35 q 143 29 147 19 q 160 22 167 22 l 196 19 l 196 19 q 205 19 210 20 q 216 21 216 21 q 221 20 237 -3 q 242 -9 247 -9 q 249 -9 251 -6 q 261 15 264 17 q 282 30 297 30 l 314 28 l 315 28 l 338 30 l 338 30 q 343 29 349 17 l 356 17 l 363 29 q 371 29 377 29 q 381 29 399 26 l 413 25 l 427 18 q 461 7 470 2 q 470 -1 470 -4 q 470 -8 479 -21 l 496 -17 q 509 -24 512 -30 q 512 -32 515 -42 l 521 -61 l 524 -81 l 528 -99 q 528 -99 524 -122 q 521 -138 511 -159 q 507 -167 494 -182 l 484 -199 q 479 -209 477 -211 q 476 -214 469 -215 q 463 -223 459 -225 q 458 -227 443 -235 q 431 -249 425 -251 q 415 -255 395 -267 l 366 -279 l 352 -287 l 333 -292 l 317 -299 l 310 -299 l 295 -302 l 259 -305 q 221 -317 214 -317 l 187 -315 l 187 -315 q 173 -315 173 -314 q 172 -314 164 -293 l 153 -314 l 132 -295 l 113 -315 l 112 -314 l 104 -310 q 91 -301 89 -300 q 86 -299 65 -298 q 56 -298 54 -295 l 42 -288 l 28 -279 l 18 -270 q 0 -262 -1 -261 q -6 -258 -15 -240 q -23 -223 -23 -208 q -23 -198 -13 -176 q -8 -166 -3 -161 z m 132 210 q 131 203 131 198 q 131 189 137 185 q 140 183 154 180 q 171 164 174 163 q 188 155 222 155 q 229 155 246 160 l 257 160 l 292 175 q 295 176 307 176 q 315 187 333 199 q 337 202 339 205 q 340 205 344 219 q 350 234 350 238 q 350 253 348 271 q 347 289 327 303 q 319 309 311 322 q 308 328 301 330 q 299 331 282 335 l 274 339 l 261 344 l 256 345 l 233 338 q 218 341 216 341 q 209 341 189 333 l 175 331 q 171 331 164 324 q 157 323 154 320 q 146 312 137 303 q 125 290 123 287 q 121 283 119 267 q 116 250 116 234 q 116 227 118 223 q 121 218 132 210 z"},"j":{"x_min":0,"x_max":212,"ha":212,"o":"m -227 -477 q -214 -469 -208 -469 q -206 -469 -154 -487 q -139 -487 -126 -487 q -118 -499 -111 -499 q -105 -499 -98 -489 q -86 -486 -81 -486 q -77 -486 -69 -487 q -59 -479 -27 -465 q -15 -460 14 -419 q 29 -399 29 -395 l 43 -357 q 58 -342 58 -338 q 58 -335 53 -304 q 52 -301 87 -263 q 88 -263 88 -263 l 62 -226 q 62 -226 62 -224 q 75 -210 75 -204 q 75 -200 75 -196 q 63 -187 64 -181 l 64 -181 l 66 -166 l 66 -141 l 68 -127 q 66 -108 66 -103 q 66 -80 73 -70 l 83 -72 q 86 -65 86 -61 q 86 -59 85 -55 q 78 -56 73 -56 q 64 -56 64 -47 q 64 -44 66 -36 q 67 -30 67 -19 q 67 -3 66 8 q 65 15 65 19 q 65 22 69 30 l 80 26 q 83 33 83 36 q 83 41 76 54 q 73 62 61 69 q 63 82 63 95 q 63 108 62 135 l 77 135 q 80 145 80 150 q 80 152 79 158 l 63 158 l 59 171 l 59 171 q 60 174 63 191 q 74 207 74 210 q 74 211 69 228 l 67 242 l 57 256 q 53 324 52 326 q 48 332 39 339 q 44 349 48 351 l 62 356 q 68 362 105 385 q 109 388 114 388 q 117 388 122 387 q 126 380 126 378 l 123 359 l 125 344 l 124 314 l 124 287 q 113 264 113 261 q 113 258 113 256 q 114 251 114 249 q 114 246 112 240 q 128 235 128 229 q 128 225 125 210 q 122 205 123 194 l 125 125 q 125 125 125 124 q 125 123 125 123 q 125 122 125 120 q 121 112 121 101 q 121 99 124 84 q 124 84 124 81 q 124 77 124 74 q 123 57 123 56 q 123 51 125 38 q 127 27 127 13 l 129 -54 l 128 -63 q 128 -69 122 -86 q 121 -90 121 -96 q 121 -100 129 -125 l 128 -141 q 126 -192 125 -201 q 123 -209 120 -225 l 107 -230 q 107 -238 109 -243 q 114 -251 114 -254 q 114 -255 111 -265 q 109 -278 104 -299 q 97 -330 91 -343 q 87 -350 76 -374 q 68 -375 68 -377 l 65 -384 q 65 -385 62 -388 q 59 -392 54 -400 q 35 -432 29 -438 l 8 -459 l -7 -476 q -30 -488 -33 -491 q -37 -495 -44 -504 q -50 -502 -52 -502 q -55 -502 -85 -512 q -91 -514 -107 -515 q -119 -516 -150 -521 l -167 -521 l -176 -521 q -190 -521 -207 -506 q -226 -488 -226 -480 z m 29 537 q 38 561 64 578 q 67 586 68 588 l 80 602 q 103 629 111 629 q 117 629 119 617 q 128 611 128 609 q 131 607 131 594 l 107 577 l 41 530 z"},"i":{"x_min":0,"x_max":212,"ha":212,"o":"m 62 336 q 62 343 77 355 q 109 380 133 388 l 147 373 q 143 360 140 338 q 137 320 137 316 l 137 298 l 128 287 q 128 274 139 263 q 136 258 136 257 l 137 233 q 137 233 137 228 q 136 224 136 216 l 134 123 q 134 116 140 89 l 141 69 q 144 54 144 52 q 144 42 135 33 q 133 31 117 21 q 92 1 89 0 q 84 -2 80 -2 q 74 -2 68 4 q 70 16 71 20 q 71 26 76 42 l 77 65 l 80 113 l 80 122 q 80 130 87 130 q 89 130 92 129 q 95 137 95 140 q 95 144 92 155 q 90 160 89 169 l 81 175 q 82 186 82 191 q 82 194 82 199 q 82 203 82 206 q 82 212 86 220 q 82 226 82 232 l 82 236 l 82 239 l 81 250 q 112 256 112 261 q 112 261 111 262 q 104 269 93 269 q 85 269 74 268 q 76 275 76 277 q 76 278 72 326 q 71 332 62 336 z m 71 533 l 71 534 q 70 551 96 571 q 102 575 109 583 q 109 584 119 591 q 137 618 141 621 q 148 626 153 626 q 155 626 165 619 q 174 612 174 603 q 174 595 165 589 q 143 573 122 554 l 108 545 l 91 533 q 78 526 76 526 q 71 526 71 533 z"},"y":{"x_min":0,"x_max":505,"ha":505,"o":"m 19 -223 q 23 -232 32 -253 l 46 -271 q 63 -299 68 -304 q 81 -305 84 -307 l 120 -320 q 123 -321 132 -321 q 138 -321 146 -320 q 154 -326 158 -326 q 162 -326 169 -320 q 177 -321 182 -321 q 186 -321 222 -310 l 240 -299 q 268 -283 271 -280 q 274 -277 290 -258 q 294 -253 310 -246 q 326 -235 334 -208 q 345 -174 347 -171 q 350 -167 360 -157 q 358 -139 358 -136 q 358 -134 368 -87 q 369 -83 369 -78 q 369 -77 366 -61 q 369 -50 373 -30 q 379 -11 379 -7 q 379 -3 375 15 q 375 18 371 65 q 371 73 371 80 q 371 89 374 96 q 377 103 377 105 q 377 108 376 112 q 373 114 372 114 q 369 114 347 101 l 335 88 l 322 79 l 307 68 l 292 60 l 271 40 l 262 34 q 225 9 221 7 q 218 5 194 2 q 178 -3 157 -5 q 146 -5 114 6 q 92 15 77 36 q 77 37 68 57 q 64 66 64 71 q 64 77 77 86 q 66 98 66 116 q 66 128 85 157 l 81 171 l 81 172 l 83 186 q 84 205 96 248 l 96 266 q 105 303 105 306 q 105 309 101 315 l 89 315 l 85 320 l 85 325 q 93 332 100 341 l 128 351 q 167 375 169 375 q 175 375 180 369 q 185 363 185 357 q 185 355 176 337 q 171 327 168 300 l 154 250 q 152 226 149 221 q 146 215 132 215 q 125 206 125 202 q 125 196 143 193 q 141 184 140 168 l 134 137 q 133 125 130 105 q 127 92 127 91 q 127 87 135 74 q 144 60 146 58 q 147 56 173 44 q 183 31 189 31 q 196 31 206 41 q 230 44 240 50 q 248 54 293 87 l 321 114 l 346 130 l 368 172 q 369 174 375 182 q 375 193 374 196 q 372 201 372 204 q 372 205 375 212 l 374 226 l 375 238 l 369 254 l 371 289 l 368 300 l 364 318 q 352 340 352 342 q 352 352 371 353 l 384 366 l 388 366 q 397 367 404 368 q 411 370 421 371 q 430 357 430 356 l 387 338 l 420 327 q 429 323 429 315 q 429 309 418 297 q 409 286 397 279 q 395 277 395 277 q 395 273 421 262 q 432 252 434 244 q 434 241 434 234 l 437 206 q 430 188 430 185 q 430 169 443 156 q 440 139 440 129 l 442 104 l 442 104 q 442 103 436 78 q 429 65 428 60 q 428 57 428 52 l 438 44 q 435 25 435 16 q 435 13 435 9 q 437 -6 437 -8 q 437 -9 432 -23 l 432 -34 l 430 -48 l 433 -68 l 426 -84 l 423 -103 q 415 -116 415 -120 q 415 -123 416 -125 q 417 -134 417 -138 q 417 -141 409 -155 q 406 -160 399 -180 q 397 -184 385 -192 q 383 -194 371 -210 l 363 -222 l 355 -231 q 332 -265 323 -274 q 318 -279 303 -288 l 292 -299 l 279 -308 l 271 -314 l 254 -319 l 242 -326 l 230 -330 l 199 -342 l 183 -346 q 158 -353 153 -353 q 149 -353 122 -347 q 78 -347 45 -318 l 31 -317 q 27 -306 23 -302 q 22 -301 4 -293 q 0 -291 -3 -285 q -8 -275 -8 -267 q -8 -256 -1 -237 q 3 -223 15 -223 q 16 -223 19 -223 z"},"@":{"x_min":0,"x_max":785,"ha":785,"o":"m 89 407 l 91 407 l 107 427 q 111 426 113 426 q 120 426 126 434 q 129 438 129 442 q 129 446 128 452 q 144 471 154 476 q 159 479 170 483 q 172 490 174 494 q 176 495 197 509 q 226 529 233 529 q 235 529 240 527 l 247 540 q 260 541 274 548 q 294 559 318 566 q 342 575 352 575 q 360 575 378 571 l 387 583 q 392 578 393 578 l 423 583 q 438 581 441 581 q 448 581 456 583 q 465 585 466 585 l 488 583 l 501 584 q 518 579 527 578 q 539 576 557 565 q 597 559 625 532 l 620 518 l 622 515 l 628 515 q 633 519 635 519 q 639 519 646 509 q 645 501 645 497 q 645 487 652 487 q 653 487 663 491 q 665 491 667 491 q 681 491 690 473 q 702 468 705 463 q 707 460 710 450 q 710 449 717 440 q 719 437 724 428 q 704 426 691 417 q 687 415 687 411 q 687 407 692 403 q 693 403 720 390 q 731 385 733 381 l 738 371 q 750 352 750 348 q 750 343 743 335 l 750 332 q 752 321 753 301 l 754 290 l 709 263 l 750 233 q 750 232 742 229 l 741 230 l 734 230 l 728 216 q 737 202 737 201 q 738 198 738 191 q 728 183 724 170 q 714 167 706 166 q 692 166 691 165 q 690 165 675 160 q 671 159 668 159 q 667 159 649 164 l 626 165 l 596 172 q 567 174 561 177 q 552 181 542 185 l 542 180 q 531 178 527 177 q 507 173 502 173 q 499 173 489 175 q 479 169 476 168 q 473 167 456 165 q 417 154 396 153 q 369 150 361 150 q 345 150 323 155 l 317 164 l 308 158 l 299 172 l 282 168 q 275 181 262 188 q 263 193 263 197 q 263 199 251 216 q 244 225 244 246 q 244 265 248 274 l 258 300 q 268 327 279 327 q 283 327 289 326 l 291 348 q 299 352 302 354 q 304 355 313 366 q 324 379 333 379 l 353 376 l 354 376 l 362 379 l 364 392 q 388 400 418 405 l 429 394 l 442 402 q 451 399 473 395 q 484 389 487 389 q 491 389 498 392 l 498 394 l 527 397 q 526 393 526 389 q 526 387 527 383 q 521 371 521 369 q 521 367 522 360 q 523 355 524 333 l 525 324 l 526 302 l 527 293 l 527 267 l 531 248 q 533 219 535 208 q 542 210 547 210 q 554 210 567 210 q 569 209 579 206 q 580 205 581 205 q 583 205 584 205 l 585 204 q 586 195 592 190 q 606 201 615 201 q 616 201 626 197 q 638 195 662 193 q 662 197 662 200 q 662 204 670 225 q 672 238 674 241 l 679 241 q 679 253 684 268 q 674 281 674 304 q 674 307 678 318 l 675 339 q 675 342 687 358 q 688 360 688 362 q 688 381 667 384 q 661 391 661 397 q 661 403 663 412 q 648 425 645 433 q 641 439 638 453 q 633 454 630 457 q 625 463 618 470 l 607 485 l 589 498 q 575 510 569 512 q 562 514 559 522 q 545 522 536 525 q 532 527 495 547 l 457 553 l 430 559 l 404 557 l 385 557 l 362 551 q 348 550 345 549 q 338 546 327 537 q 319 541 315 541 q 309 541 298 534 q 267 516 260 513 q 253 510 246 510 q 230 487 227 490 l 215 485 l 196 467 q 164 437 153 421 q 147 412 136 395 l 127 393 q 119 379 119 369 q 119 367 119 364 q 113 359 112 351 l 109 349 q 100 387 96 387 q 96 387 93 377 q 89 367 88 362 q 86 348 78 334 l 79 330 q 90 325 93 321 q 95 317 95 309 l 95 303 l 95 293 l 95 292 q 95 290 95 286 q 94 282 94 281 l 95 270 l 96 261 l 99 247 q 99 232 100 230 q 101 227 105 221 q 110 215 111 207 q 104 203 104 198 q 104 185 116 185 q 120 185 125 185 l 139 168 l 136 152 q 145 146 159 135 l 187 117 q 211 98 212 97 q 212 97 219 96 l 225 94 q 228 94 239 91 q 243 82 248 79 q 263 72 307 57 q 315 47 321 46 q 323 45 337 45 l 408 37 q 427 35 435 35 q 439 35 454 40 l 477 36 l 487 37 q 508 37 518 40 q 548 53 564 58 q 567 53 569 53 l 574 55 l 582 59 q 587 75 588 76 q 589 79 596 84 q 599 86 607 94 q 631 83 631 68 q 631 63 619 55 q 615 52 603 44 l 582 35 l 570 29 l 555 23 q 510 5 465 5 q 451 5 437 15 l 411 1 q 407 7 404 13 q 402 18 392 21 q 385 16 375 14 q 362 12 361 11 q 352 8 350 8 q 349 8 311 18 q 302 21 301 21 q 297 21 291 21 q 285 21 274 21 l 266 29 q 256 27 251 27 q 247 27 225 33 l 206 37 l 184 43 q 171 45 168 46 q 167 46 160 54 q 154 60 139 61 q 131 84 130 93 q 122 123 114 133 q 110 137 110 137 q 105 136 98 89 q 88 98 88 105 l 88 105 l 90 119 q 78 129 73 130 q 57 136 54 139 q 53 141 45 153 q 45 160 43 165 q 34 190 34 191 l 33 204 l 29 231 l 30 243 l 30 266 l 35 287 l 36 304 l 50 341 l 62 369 q 64 378 82 396 q 86 401 89 407 z m 295 222 q 302 220 306 214 q 316 199 348 183 q 354 179 369 178 q 369 178 375 176 q 383 173 393 173 q 397 173 431 174 q 472 183 475 185 q 479 188 483 196 q 489 209 489 218 l 488 249 q 487 268 485 278 l 497 283 q 495 293 494 296 q 491 307 490 325 l 487 342 l 490 355 q 490 357 486 362 q 482 362 473 359 q 468 358 464 358 q 460 358 442 364 q 420 368 415 369 q 404 372 396 372 q 392 372 375 366 q 363 365 359 365 q 354 363 346 354 l 336 355 q 332 351 322 345 q 313 340 310 334 q 310 333 306 323 q 305 322 293 311 q 280 298 280 281 q 280 260 289 244 q 295 231 295 227 q 295 225 295 222 z"},".":{"x_min":0,"x_max":213,"ha":213,"o":"m 50 48 l 50 54 q 58 60 61 62 q 80 76 87 84 q 94 90 103 96 q 120 83 132 78 q 147 70 153 64 q 163 55 163 50 q 163 47 153 28 q 149 19 115 -2 q 107 5 104 8 q 96 18 81 28 q 78 30 69 44 q 56 45 50 48 z"},"p":{"x_min":0,"x_max":574,"ha":574,"o":"m 62 315 q 64 323 65 324 q 66 326 74 332 q 79 336 99 352 q 125 367 128 367 q 136 367 146 354 q 143 347 143 343 q 143 339 146 332 q 156 336 189 354 l 202 358 q 218 363 223 363 q 239 363 251 356 q 258 371 296 373 l 358 371 q 367 371 368 371 q 374 372 376 372 q 385 372 395 360 q 405 359 418 353 q 446 342 457 330 q 458 329 461 319 q 462 315 467 309 l 487 312 q 503 294 510 279 q 518 253 524 216 l 524 215 q 524 211 524 207 q 523 202 523 202 q 523 194 526 182 q 526 181 526 181 q 526 179 518 160 q 513 149 503 136 l 489 112 q 479 104 474 94 l 455 98 q 448 72 432 64 q 431 64 419 63 q 412 63 407 62 q 409 36 339 12 q 320 5 313 4 l 279 4 q 277 4 273 2 q 262 -3 259 -3 q 258 -3 248 1 q 229 4 209 6 l 210 15 q 204 37 201 37 q 201 37 196 27 q 190 13 188 10 q 187 8 181 8 l 177 8 l 172 8 q 169 8 165 7 q 162 7 161 7 q 156 7 149 11 q 145 0 145 -6 q 145 -14 146 -42 q 147 -48 147 -52 q 147 -59 144 -61 l 128 -69 q 126 -70 125 -79 q 124 -87 121 -89 l 114 -95 q 138 -109 139 -110 q 140 -110 142 -116 q 143 -119 146 -137 q 148 -169 149 -180 l 137 -183 q 136 -189 136 -193 q 136 -195 142 -215 q 142 -217 142 -221 q 142 -225 142 -229 l 150 -228 q 151 -250 152 -257 q 153 -265 153 -292 l 156 -305 q 156 -307 154 -313 q 145 -314 140 -317 l 155 -326 q 155 -331 155 -335 q 155 -339 157 -349 q 159 -359 160 -372 q 148 -379 145 -383 q 143 -385 138 -396 l 126 -401 q 109 -412 92 -413 l 92 -413 l 79 -410 q 95 -403 97 -400 q 99 -397 100 -380 l 119 -349 l 82 -307 q 82 -307 83 -306 q 86 -302 92 -295 l 88 -268 q 91 -263 93 -261 q 101 -253 101 -250 q 101 -246 95 -242 q 87 -237 86 -236 q 115 -224 115 -219 q 115 -216 90 -208 l 88 -207 q 112 -193 112 -188 q 112 -186 94 -155 q 86 -144 86 -133 q 86 -130 93 -71 l 100 -67 l 99 -36 q 83 -32 83 -18 q 83 -14 86 22 l 87 46 l 87 122 q 87 125 93 136 l 92 155 l 92 161 q 92 167 82 171 q 82 184 82 188 q 82 196 82 201 q 82 214 82 218 q 82 219 82 220 q 81 241 81 241 q 81 242 82 246 q 83 250 83 253 l 83 254 q 79 292 77 301 q 75 306 62 315 z m 135 249 l 139 245 l 144 245 q 145 233 145 225 q 145 219 144 214 q 143 205 143 203 q 143 202 145 187 q 145 186 145 186 q 145 182 137 166 q 144 152 144 148 l 145 125 l 146 99 q 146 98 146 93 q 145 88 144 80 q 153 75 156 73 q 183 61 187 57 q 188 56 191 51 q 198 56 201 56 q 204 56 212 53 q 217 51 229 51 q 244 51 246 50 l 278 39 q 280 39 283 39 q 283 39 317 43 l 336 23 l 351 30 q 368 39 374 43 q 377 46 387 56 l 405 69 l 421 86 q 442 104 445 107 q 451 113 461 146 q 468 167 468 175 q 468 181 467 187 q 466 197 466 202 q 466 205 469 212 q 458 220 454 228 q 450 234 447 250 q 436 259 428 270 q 422 277 422 279 q 422 283 424 288 q 417 298 409 298 q 406 298 391 295 q 380 302 376 305 q 359 319 354 319 q 353 320 334 320 q 324 326 324 326 q 318 329 298 329 q 249 329 231 326 q 227 325 194 315 l 181 313 q 176 312 166 305 q 152 303 149 297 q 146 292 146 282 q 146 278 146 271 q 123 268 107 259 l 134 251 z"},"X":{"x_min":0,"x_max":768,"ha":768,"o":"m 18 728 l 17 732 l 27 736 q 28 745 38 753 q 50 763 64 770 q 82 791 83 792 q 86 793 90 793 q 100 793 106 786 q 110 782 110 779 l 110 771 q 114 757 117 746 q 121 739 125 732 q 126 729 136 720 l 141 708 q 153 688 153 679 q 153 672 148 655 q 160 650 171 650 q 184 638 188 631 q 192 626 199 606 q 200 604 210 599 q 214 597 214 592 q 214 587 212 579 l 221 583 q 230 567 232 562 q 243 543 245 541 q 247 538 263 518 q 275 503 280 494 l 277 481 l 277 481 q 277 472 289 472 q 292 472 295 472 q 301 463 312 449 q 319 440 327 427 l 316 421 q 315 414 315 409 q 315 395 338 387 l 340 398 q 342 398 342 398 q 347 398 349 396 q 351 395 369 366 q 386 352 395 344 q 403 353 428 389 q 430 393 436 393 q 438 393 440 393 q 441 401 450 409 q 451 421 452 422 l 474 457 l 488 487 l 526 552 q 532 554 536 555 q 541 567 544 570 q 554 584 554 587 q 554 588 554 590 q 552 600 552 601 l 552 601 q 553 604 572 642 l 597 699 q 598 701 601 705 q 606 711 614 727 l 625 726 q 629 735 630 738 q 654 791 658 791 q 659 792 676 793 q 702 803 712 803 q 719 803 719 799 q 719 794 704 773 q 694 758 686 747 q 681 740 673 723 q 660 703 655 694 l 643 694 l 642 692 q 645 686 645 684 q 645 682 628 647 l 609 618 q 595 590 591 585 q 587 579 574 567 q 574 555 570 548 l 559 542 q 555 524 552 518 q 550 515 538 500 q 532 488 516 459 l 504 459 q 499 453 499 444 q 498 437 494 431 q 493 429 477 410 q 475 408 470 392 l 459 386 q 459 384 459 382 q 459 376 451 362 q 447 355 435 347 q 434 346 428 330 q 427 325 412 299 q 422 292 429 281 l 438 281 q 451 262 462 237 q 465 232 479 218 l 487 217 q 493 207 509 187 q 526 153 528 145 q 529 144 534 136 q 546 118 547 118 q 555 109 557 106 q 558 104 558 98 l 557 96 l 554 95 l 554 75 l 558 72 q 567 73 585 83 q 597 65 605 56 q 639 18 646 12 q 650 8 650 7 l 655 -17 q 656 -21 669 -27 q 685 -40 700 -52 q 708 -62 737 -82 q 737 -89 740 -93 l 764 -101 q 764 -107 764 -108 q 762 -111 751 -120 q 727 -140 720 -146 q 714 -150 701 -155 q 699 -169 687 -169 q 670 -169 663 -162 q 663 -162 653 -142 l 645 -130 l 636 -117 l 622 -102 q 610 -85 598 -74 q 581 -59 568 -46 l 573 -31 q 566 -27 562 -22 q 559 -19 542 -13 l 530 10 l 511 35 l 497 59 q 486 64 482 67 q 480 81 473 85 q 466 101 454 116 q 440 133 437 146 q 430 171 430 177 q 429 188 424 192 q 415 182 409 182 q 406 182 404 185 q 401 188 390 206 q 377 224 370 231 l 369 231 q 360 215 357 211 l 331 178 l 307 136 q 284 109 277 99 l 280 81 q 274 76 271 72 q 262 64 236 26 l 227 14 l 213 -4 q 195 -17 193 -19 q 192 -21 187 -28 l 178 -39 l 178 -48 q 169 -64 163 -77 l 147 -100 q 145 -103 143 -114 l 133 -119 q 127 -140 115 -146 q 115 -147 103 -148 q 98 -149 87 -154 q 85 -167 68 -167 q 43 -167 43 -153 q 43 -144 60 -131 q 69 -125 80 -104 q 81 -103 87 -97 q 93 -91 104 -77 l 121 -61 l 139 -37 l 173 -1 q 187 21 201 37 q 211 50 219 67 q 228 79 230 83 q 235 89 245 107 q 252 118 258 125 q 280 148 280 148 l 291 171 q 292 174 296 180 q 316 204 318 208 q 326 222 335 229 q 348 259 352 275 l 330 299 l 327 299 l 327 309 q 330 312 332 313 q 338 318 338 321 q 338 326 332 332 q 320 343 318 346 l 318 334 q 306 334 304 337 q 302 338 299 346 q 297 349 293 357 q 269 363 237 429 q 229 446 221 453 l 202 469 q 190 498 188 501 q 185 506 174 515 q 171 528 158 542 q 162 554 162 561 q 162 564 162 569 l 160 569 l 154 564 q 151 584 133 584 q 127 584 120 583 l 120 585 q 111 598 84 631 l 48 680 l 35 694 q 26 710 19 715 z"},"*":{"x_min":0,"x_max":347,"ha":347,"o":"m 53 518 q 57 517 67 510 q 76 502 77 501 q 78 500 78 492 l 107 476 l 114 483 q 128 470 152 463 l 159 470 l 159 472 l 153 473 q 150 484 148 498 q 145 511 145 512 q 145 518 152 530 q 129 536 129 559 q 129 563 133 567 q 136 570 138 570 l 176 569 q 183 569 202 577 l 208 574 q 186 528 185 523 q 185 521 184 511 l 192 508 q 190 499 189 496 q 185 482 185 472 q 185 467 190 461 q 195 469 200 472 q 205 475 217 479 q 227 489 232 489 l 232 489 l 244 486 q 249 516 270 516 q 272 516 276 513 q 280 503 284 485 q 300 457 305 447 q 298 447 292 447 q 288 447 270 454 q 268 454 266 454 q 262 454 251 453 q 247 453 238 452 l 238 441 q 227 442 219 442 q 207 442 190 432 l 190 428 l 191 426 l 203 426 q 216 410 233 399 l 234 383 q 243 386 248 386 q 258 386 266 376 q 269 372 269 368 q 269 364 268 358 q 248 349 242 344 q 236 338 222 316 q 220 314 218 314 q 216 314 214 315 q 211 329 209 333 q 206 340 206 342 q 206 345 208 352 q 208 353 208 353 q 208 357 202 367 q 200 372 197 379 l 187 377 q 183 395 177 406 q 172 413 160 418 l 157 416 l 162 399 q 156 391 155 388 q 147 373 141 366 q 134 366 134 362 q 134 361 139 352 q 141 349 141 344 q 141 334 133 328 q 129 323 123 323 q 118 323 106 334 q 97 343 61 356 q 69 366 83 375 l 86 377 l 94 376 q 102 378 117 398 l 111 402 l 111 404 q 122 412 126 415 q 143 426 143 435 q 143 440 137 440 l 136 440 q 135 440 130 439 q 126 438 125 438 q 125 438 105 442 q 101 443 97 443 q 94 443 89 442 l 80 453 q 73 441 66 440 q 62 439 48 438 q 40 447 40 453 q 40 455 47 470 q 50 476 51 494 q 51 506 53 518 z"},"Y":{"x_min":0,"x_max":835,"ha":835,"o":"m 12 754 q 21 761 32 766 q 40 771 53 788 q 78 802 90 812 q 96 810 102 803 q 109 794 109 792 q 109 792 107 786 q 106 784 105 779 q 114 773 119 764 q 138 736 140 734 q 143 728 143 722 q 143 716 141 708 q 148 702 158 694 q 167 688 174 672 q 176 668 176 667 q 176 667 175 665 q 168 648 168 647 q 168 645 174 639 l 180 639 l 189 645 l 198 623 l 211 623 q 214 612 226 597 q 241 569 246 562 q 267 537 267 531 q 267 525 259 514 l 281 503 l 284 506 l 287 506 q 293 497 295 493 q 301 480 303 480 l 317 475 q 320 474 335 454 q 354 430 362 417 q 373 398 380 393 q 380 393 396 384 q 419 360 443 333 q 442 329 442 326 q 442 324 445 319 q 448 318 450 318 q 454 318 466 329 q 479 340 487 347 q 490 350 496 363 l 507 373 q 515 391 522 400 q 532 413 564 448 q 566 451 572 466 q 573 470 583 480 q 591 490 597 500 q 607 519 615 529 l 621 544 l 645 579 l 658 608 q 682 644 683 646 q 684 646 684 662 q 685 665 695 684 q 711 703 716 714 q 719 721 730 751 q 735 763 740 771 l 748 770 q 753 782 761 782 q 766 782 773 779 l 773 777 q 794 790 824 795 l 824 773 l 822 770 q 816 769 813 767 q 807 762 786 729 q 774 709 756 698 q 754 689 748 682 l 751 666 q 739 654 735 650 q 725 640 714 622 l 705 610 q 683 577 682 577 q 682 577 670 566 q 663 560 658 550 l 657 549 q 660 540 660 540 q 660 538 651 524 l 650 522 l 641 519 l 634 508 l 628 502 q 627 501 627 487 q 627 479 604 442 l 593 423 q 590 419 575 405 q 567 398 563 392 q 553 378 548 377 q 545 377 540 377 q 531 365 531 357 q 531 352 532 344 q 523 337 519 333 q 518 333 506 315 q 496 302 495 299 q 493 296 493 251 q 493 247 491 225 q 490 218 490 213 q 490 208 492 196 q 482 190 479 186 q 475 181 471 167 q 477 163 484 157 q 492 152 492 144 q 492 109 491 109 q 489 101 489 101 l 493 76 l 490 63 q 489 47 489 42 q 488 39 487 7 q 487 1 487 -5 q 487 -10 495 -26 q 495 -26 495 -28 q 496 -31 496 -36 q 498 -41 495 -56 q 494 -62 494 -63 q 498 -102 498 -103 q 498 -108 493 -121 q 488 -121 484 -122 q 480 -122 461 -135 q 427 -146 425 -147 q 419 -151 410 -161 q 403 -161 396 -153 l 403 -140 q 398 -131 398 -126 q 398 -109 405 -81 q 408 -70 408 -68 l 406 -30 q 406 -28 410 -17 l 417 -15 l 419 1 q 441 3 441 12 q 441 15 439 20 l 427 17 l 423 24 l 410 30 q 411 51 411 58 q 411 77 414 96 q 423 101 426 111 l 424 113 l 413 113 q 411 119 410 139 q 410 140 409 155 q 408 162 408 167 q 408 174 409 179 q 412 200 412 205 q 412 205 408 224 q 406 236 396 243 q 385 249 385 250 l 382 259 l 377 269 l 372 282 q 370 286 361 292 q 366 302 366 307 q 366 313 360 323 q 360 324 353 325 l 328 329 l 327 323 q 321 338 318 342 l 303 364 q 300 368 294 385 q 285 386 282 387 q 280 388 276 394 q 267 406 266 415 l 256 412 q 251 420 234 441 l 226 458 l 211 475 q 198 495 196 498 q 194 501 192 510 l 186 520 q 183 521 182 536 q 166 539 156 552 q 141 575 139 577 q 127 588 126 591 q 124 594 124 602 q 124 608 125 615 q 110 619 107 623 q 105 624 96 641 l 86 652 l 70 672 q 56 688 55 693 l 55 694 l 55 697 q 65 706 65 713 q 55 723 49 723 q 45 723 37 717 q 19 735 12 750 z"},"c":{"x_min":0,"x_max":467,"ha":467,"o":"m 52 204 q 59 215 74 248 q 84 268 88 269 q 97 276 105 284 l 117 297 l 133 311 l 154 331 l 167 338 l 178 347 l 188 351 l 203 362 l 229 371 q 252 379 258 380 q 270 382 279 383 q 289 374 293 373 q 293 373 317 380 q 319 380 321 380 q 321 380 342 375 q 345 375 351 374 q 359 374 363 373 q 386 379 389 379 q 398 379 407 373 q 404 361 400 357 q 396 353 384 349 l 381 336 q 365 329 360 324 q 354 320 352 319 q 352 319 344 320 q 343 320 342 320 l 325 319 l 324 319 l 310 321 l 298 322 q 282 328 271 329 q 267 329 260 329 q 251 330 245 330 q 241 330 209 324 q 192 322 187 320 q 181 316 166 301 q 162 296 148 294 q 147 283 143 280 q 138 276 125 274 q 126 269 126 264 q 126 262 113 243 q 109 237 109 184 q 109 172 122 140 q 114 126 113 120 q 116 118 130 114 q 151 87 157 74 l 169 73 q 176 63 179 61 l 197 49 l 210 39 q 229 32 233 31 q 236 30 256 29 l 274 25 l 291 24 l 304 22 q 313 23 336 34 l 345 31 q 351 35 353 37 q 357 39 372 50 q 384 51 394 60 q 401 68 411 73 q 415 76 419 81 q 431 94 436 94 q 440 94 444 89 q 439 69 439 56 q 429 46 423 36 q 412 33 394 20 q 386 19 379 14 q 370 8 364 8 l 347 9 l 347 9 q 321 3 316 2 q 314 1 303 -7 q 300 -8 298 -8 l 249 -8 q 246 -8 235 -9 q 223 -1 213 0 q 199 1 173 8 l 162 10 l 148 14 q 135 17 132 18 q 128 20 124 24 q 99 49 99 53 q 99 57 100 62 q 100 64 100 64 l 83 61 q 83 61 82 62 q 73 80 69 85 q 62 96 61 103 q 61 106 59 121 l 59 122 l 62 136 q 48 146 48 149 q 48 151 71 164 q 83 171 83 186 q 83 200 52 204 z"},"!":{"x_min":0,"x_max":213,"ha":213,"o":"m 52 55 q 58 65 60 66 l 85 82 q 98 94 100 95 q 104 97 107 97 q 111 97 121 88 q 123 86 144 73 q 162 61 162 46 q 162 44 157 37 q 149 24 148 23 q 123 5 115 -1 q 107 6 93 22 l 80 34 q 72 48 69 50 q 64 54 52 55 z m 136 626 q 142 622 142 616 q 142 596 125 586 l 98 570 l 140 558 l 132 547 q 140 519 140 504 q 140 503 138 486 l 139 472 l 133 455 q 136 436 136 434 q 136 433 134 409 l 132 378 q 128 360 128 355 q 128 345 136 337 q 136 309 136 304 q 135 297 129 288 q 136 278 139 263 q 141 252 142 245 l 144 234 q 136 226 132 215 q 128 206 115 194 q 106 196 103 196 l 84 196 q 78 196 67 208 q 71 218 84 235 q 85 236 86 249 q 91 283 92 296 q 106 297 106 306 q 106 312 104 319 l 90 317 q 88 324 88 325 q 88 331 89 359 q 90 371 93 375 q 95 379 98 382 q 90 396 89 401 q 89 448 87 459 l 84 459 l 83 460 l 83 468 l 101 468 q 100 477 97 479 q 94 481 81 484 q 95 495 105 501 q 112 505 112 508 l 80 530 l 80 531 l 82 546 q 62 564 62 578 q 62 590 76 602 q 95 617 117 621 q 126 622 136 626 z"},"/":{"x_min":0,"x_max":593,"ha":593,"o":"m -123 -144 q -110 -130 -97 -116 q -95 -114 -75 -97 q -69 -92 -62 -80 l -46 -82 q -37 -67 -33 -61 q -30 -56 -6 -33 l 6 -19 q 26 3 36 15 q 42 22 53 27 l 53 41 q 63 48 93 77 l 110 94 q 126 113 129 115 q 145 125 145 125 q 147 128 148 139 q 170 160 188 184 q 191 189 199 191 q 200 191 214 209 l 213 215 q 224 223 235 239 q 243 249 261 268 q 276 286 279 288 q 294 296 303 301 l 297 310 l 301 320 q 318 322 321 325 q 324 328 324 333 q 324 338 323 345 q 331 352 333 354 q 344 365 347 371 l 360 369 q 370 391 376 403 q 382 412 404 436 q 407 439 417 452 q 419 455 426 455 q 429 455 432 459 q 440 472 440 480 q 440 482 440 485 q 447 494 468 523 q 489 548 494 557 q 500 570 503 577 l 509 577 l 514 582 l 514 592 l 524 588 q 528 591 528 594 q 528 598 526 603 l 520 607 q 536 627 558 628 q 565 629 572 630 q 585 633 594 633 q 601 633 612 624 q 603 613 601 609 q 587 592 583 587 q 571 576 561 566 q 560 564 554 552 q 544 535 524 514 q 500 488 497 486 l 450 428 q 436 415 435 414 q 434 413 419 388 q 417 386 402 374 q 396 369 378 347 l 361 330 q 354 323 342 301 q 337 292 330 289 q 326 287 311 282 q 312 278 312 274 q 312 267 304 260 q 298 264 297 264 q 290 264 280 250 l 286 239 q 276 229 272 226 q 246 199 228 177 q 219 167 215 153 l 202 156 l 187 143 l 189 132 q 186 128 185 128 q 185 127 175 126 q 163 125 163 115 l 163 115 l 165 106 q 156 94 152 91 q 146 84 141 77 q 123 54 117 49 q 111 44 98 41 q 93 25 87 18 q 85 15 52 -19 l 39 -38 q 21 -57 16 -66 l 5 -64 q -8 -80 -16 -100 l -27 -114 l -34 -125 l -45 -133 q -47 -133 -52 -144 q -62 -146 -80 -151 q -81 -151 -84 -151 q -87 -151 -102 -149 q -111 -148 -123 -144 z"},"[":{"x_min":0,"x_max":319,"ha":319,"o":"m 99 50 l 101 73 l 101 100 l 108 121 l 112 121 q 119 126 119 134 q 119 143 115 151 q 115 151 105 167 q 103 171 103 195 q 101 220 101 225 q 101 230 104 265 l 103 329 l 105 334 l 117 337 q 115 351 115 356 q 115 365 113 368 q 113 372 101 378 q 103 390 104 394 q 107 410 107 419 q 107 421 100 449 q 101 457 101 474 l 101 516 l 103 521 l 110 520 q 112 528 112 533 q 112 537 103 553 q 101 556 101 562 q 101 573 112 584 l 112 586 l 109 586 q 102 586 102 600 q 102 601 102 603 l 106 604 q 107 613 107 616 q 107 624 105 646 q 104 652 104 657 q 104 661 111 689 q 111 707 115 717 q 118 722 129 732 q 133 752 135 756 q 144 765 169 771 q 201 785 204 785 q 209 785 218 783 q 224 791 228 793 q 235 797 251 797 q 283 797 283 766 q 283 749 272 733 l 251 744 q 250 735 245 729 q 238 730 232 735 q 228 739 221 739 l 220 739 l 204 736 q 197 723 190 720 q 186 717 175 716 q 172 705 171 702 q 167 688 166 664 l 162 653 q 165 635 165 625 l 165 618 l 165 594 q 165 574 165 550 q 165 540 161 533 l 158 525 q 157 523 157 521 q 157 520 161 509 q 164 502 164 481 l 162 457 l 162 456 l 165 447 q 161 435 161 431 q 161 429 161 426 q 165 406 165 405 q 165 404 162 385 q 162 380 162 375 q 162 372 162 366 q 154 357 154 353 q 154 349 162 341 q 159 316 159 291 q 159 259 158 244 q 125 244 125 230 q 125 224 132 219 q 132 219 157 208 q 160 208 160 204 q 160 202 156 172 q 151 153 151 150 q 151 147 159 113 l 159 61 q 161 44 161 34 q 149 23 149 10 q 149 3 157 -20 q 155 -38 155 -39 q 155 -60 160 -74 q 162 -80 175 -94 q 177 -87 178 -87 l 214 -90 q 214 -90 221 -88 q 225 -86 232 -85 q 238 -92 249 -94 l 249 -78 q 260 -76 264 -75 q 270 -73 274 -73 q 277 -73 283 -77 q 285 -82 285 -86 q 285 -88 283 -92 q 282 -97 281 -102 q 279 -125 275 -128 q 269 -132 246 -140 l 235 -141 l 231 -142 q 229 -141 224 -137 q 217 -144 214 -144 l 202 -145 l 189 -148 l 171 -145 q 160 -148 158 -148 q 154 -148 131 -141 q 126 -140 123 -135 q 116 -125 108 -119 q 109 -112 109 -108 q 109 -104 103 -85 l 107 -64 q 103 -49 103 -46 q 103 -44 111 -19 q 112 -17 112 -12 l 106 18 l 106 36 q 106 37 99 50 z"},"6":{"x_min":0,"x_max":574,"ha":574,"o":"m 142 262 q 140 271 140 276 q 140 282 145 291 q 146 293 165 316 q 166 317 181 349 q 191 371 211 384 q 214 390 225 401 q 238 427 239 428 q 240 430 252 445 q 266 463 278 475 l 286 485 l 290 488 q 295 499 307 507 q 307 514 312 519 q 313 520 318 527 q 319 528 345 553 q 356 564 362 575 q 369 586 372 588 q 373 589 385 595 q 391 602 406 617 l 421 633 q 435 647 437 649 q 440 652 466 667 q 488 681 490 681 q 497 681 504 668 q 500 660 499 657 q 490 636 487 635 q 486 634 467 629 q 457 626 448 610 q 429 609 416 592 q 407 580 405 579 q 403 575 386 570 q 380 556 359 532 q 345 517 332 512 l 326 497 l 278 441 q 267 428 255 410 q 241 391 239 385 q 237 382 229 372 q 226 361 221 355 q 216 351 209 341 l 208 341 q 198 328 192 312 q 192 312 189 306 q 180 289 180 277 q 180 276 185 261 q 171 231 166 213 q 169 207 169 205 q 169 202 165 192 q 162 184 160 160 l 160 159 q 160 155 160 151 q 161 149 161 148 q 161 145 153 125 l 168 115 q 172 98 180 83 q 189 68 193 61 q 207 58 213 51 l 213 47 q 214 37 220 34 q 228 36 234 36 q 236 36 249 29 q 252 28 262 25 q 269 23 276 19 l 283 23 l 292 19 l 292 19 q 294 19 298 21 q 305 25 316 26 q 337 38 366 54 l 377 66 q 400 87 406 98 q 411 108 414 123 q 424 125 428 133 l 418 146 q 423 151 423 155 q 423 157 422 161 q 421 164 421 165 q 420 173 420 173 l 414 182 q 412 188 403 196 l 409 215 q 409 225 409 229 q 409 249 403 263 l 399 255 l 385 217 q 377 233 372 239 q 367 243 356 245 q 359 252 359 258 q 359 261 356 265 q 353 265 351 265 q 348 265 336 259 q 335 258 334 258 q 333 258 320 262 l 291 260 q 273 265 270 265 q 252 265 242 256 q 234 258 231 258 q 230 258 229 257 q 216 254 216 254 q 210 256 210 264 q 210 271 258 303 q 301 316 305 316 l 327 316 l 353 316 l 364 314 q 372 313 373 312 q 376 312 384 301 q 393 307 397 307 q 417 307 424 294 q 424 294 429 279 q 431 273 439 265 l 454 265 q 459 252 468 219 l 473 205 l 473 196 l 474 181 q 474 179 468 152 q 455 126 454 124 q 452 121 438 104 q 430 85 424 79 q 417 70 400 63 q 386 34 328 5 l 312 -5 q 309 -7 269 -19 q 268 -19 253 -23 q 238 -28 228 -28 q 227 -28 208 -23 q 177 -15 166 -10 l 156 -6 q 154 -5 145 0 l 145 10 q 129 21 122 30 q 117 37 112 41 q 105 48 97 64 l 102 66 q 90 91 90 106 q 90 110 98 129 q 99 131 99 135 q 99 137 96 152 l 99 176 l 96 191 l 100 199 l 111 221 l 118 232 q 125 249 125 249 q 125 250 131 253 q 137 258 142 262 z"},"r":{"x_min":0,"x_max":338,"ha":338,"o":"m 62 336 q 65 345 72 352 q 77 357 97 367 q 118 380 121 380 q 130 380 134 374 l 136 366 l 140 351 q 139 345 139 342 q 139 338 144 332 q 154 335 170 344 l 191 351 l 211 365 l 225 370 q 235 375 236 375 q 236 375 247 374 q 248 374 249 374 q 251 374 282 384 q 285 385 296 385 q 305 385 308 382 q 309 382 318 373 q 324 371 325 371 q 326 371 339 378 q 340 378 342 378 q 348 378 356 371 q 364 364 368 350 q 360 343 338 327 q 328 313 323 313 q 315 313 302 329 q 293 328 288 328 q 281 328 267 334 q 255 338 243 340 q 238 330 227 329 q 213 328 209 327 q 190 321 190 321 q 188 321 182 325 q 172 316 148 298 q 132 287 133 259 l 133 257 q 133 251 133 242 q 133 233 133 227 q 133 222 122 211 q 130 202 130 196 q 130 192 129 188 l 137 186 l 138 171 l 141 83 l 139 78 l 126 71 q 99 66 99 64 q 99 62 129 58 l 138 60 q 143 43 143 38 q 143 26 131 20 q 127 18 106 15 q 103 14 85 3 q 83 1 79 1 q 67 1 67 11 q 67 14 74 39 q 75 42 75 45 q 75 46 73 67 q 73 68 75 75 l 86 79 q 87 83 87 86 q 87 93 80 102 q 80 108 80 114 q 80 118 77 137 l 77 137 q 78 153 78 164 q 96 170 96 180 q 96 183 95 188 q 89 186 85 186 q 82 186 77 190 q 77 200 77 211 l 77 222 l 77 235 l 77 239 q 77 243 76 248 q 76 252 76 255 q 76 263 83 276 q 76 282 75 286 q 75 287 73 317 q 73 323 62 336 z"},"2":{"x_min":0,"x_max":574,"ha":574,"o":"m 69 13 q 79 18 84 26 q 88 31 105 32 q 109 48 114 53 q 119 58 133 59 l 137 66 l 146 71 l 143 84 q 171 110 188 130 l 198 141 q 205 157 214 165 q 218 169 229 182 l 241 194 l 247 208 l 256 223 l 263 240 l 267 250 l 271 263 l 276 269 l 299 307 l 326 347 l 330 360 l 336 373 q 337 376 338 392 q 339 403 342 415 q 343 420 343 424 q 343 426 336 438 q 331 448 330 458 l 305 472 l 308 490 q 301 496 291 500 l 288 488 q 227 539 194 539 q 176 539 156 517 q 148 508 145 504 q 144 503 135 486 q 133 483 130 483 q 128 483 106 495 q 110 503 114 510 q 119 516 124 524 l 133 524 l 137 530 q 146 531 155 538 l 167 545 q 181 556 185 558 q 204 566 235 566 q 250 566 269 562 q 276 548 282 548 q 288 548 294 559 q 300 554 302 546 q 304 541 310 541 q 312 541 314 541 l 322 547 q 337 540 342 539 q 351 537 359 529 l 359 523 q 391 508 407 486 q 412 479 411 477 l 412 453 q 416 439 416 438 q 416 433 409 420 l 398 418 q 401 407 401 401 q 401 392 397 385 q 394 378 379 360 q 375 354 359 328 l 330 285 q 313 254 313 254 q 312 253 308 252 q 303 241 292 227 l 281 209 l 270 197 q 233 143 231 136 l 229 136 q 222 125 211 109 q 202 94 200 92 q 199 91 191 86 l 191 73 q 201 73 204 73 q 213 72 217 72 q 218 72 228 74 q 229 74 229 74 q 229 74 253 70 l 271 65 l 302 68 q 314 65 330 65 q 333 65 340 64 q 345 63 348 63 q 349 63 362 65 q 364 65 365 65 q 368 65 372 64 q 390 61 397 61 q 398 61 412 63 l 428 59 l 441 61 l 464 59 q 467 59 482 64 q 492 67 500 77 l 515 73 q 516 66 516 61 q 516 55 507 43 q 499 31 494 19 q 485 19 480 18 q 474 17 464 8 q 450 -5 442 -4 l 442 -4 l 427 -1 l 413 1 q 394 6 382 6 q 376 6 366 6 q 362 6 359 6 q 355 6 341 8 l 325 8 q 312 10 308 11 l 308 11 q 301 11 291 9 q 279 8 275 8 q 273 8 262 9 q 256 9 246 10 l 237 19 l 232 14 l 224 17 l 223 15 l 223 11 l 217 10 l 217 10 q 215 10 210 10 q 207 10 204 10 q 203 10 197 10 q 192 10 183 10 l 183 22 l 166 23 l 166 14 l 163 11 q 158 11 154 11 q 151 11 129 4 q 126 3 107 1 q 88 0 83 0 q 69 0 67 6 q 67 7 67 7 z"},"{":{"x_min":0,"x_max":407,"ha":407,"o":"m 161 395 l 161 414 l 172 425 q 171 431 163 445 q 162 447 162 449 q 162 456 165 471 q 167 477 167 481 q 167 484 164 500 l 164 520 l 162 529 l 165 548 q 165 549 162 557 q 161 559 161 559 q 161 568 185 592 q 191 598 191 603 q 191 614 162 625 q 164 629 173 630 l 170 640 q 162 643 162 647 l 163 663 l 163 683 l 164 690 q 164 706 168 716 l 166 719 l 168 738 l 174 740 q 176 760 178 766 q 179 768 189 777 l 194 786 l 210 795 q 220 801 221 802 q 223 802 240 804 q 264 809 267 809 q 278 809 283 804 q 297 789 297 781 q 297 770 290 764 q 288 762 249 748 q 247 746 241 735 l 224 712 l 222 698 q 221 694 212 687 q 219 675 219 666 q 219 650 216 624 q 216 620 216 617 q 216 615 218 604 q 218 601 218 597 q 218 594 217 576 q 196 573 185 567 q 219 546 219 542 q 219 537 189 522 l 214 510 q 219 507 219 502 q 219 500 212 483 q 219 474 219 467 q 219 465 220 444 l 215 430 l 215 412 l 216 400 q 216 398 212 378 q 204 353 201 349 q 186 334 184 332 q 183 331 181 321 q 194 315 197 312 q 199 310 204 297 l 209 288 l 213 275 q 219 256 219 251 q 220 241 220 215 l 209 205 q 216 197 222 186 l 223 183 l 197 157 l 223 133 l 221 118 l 223 103 l 196 92 l 227 74 l 224 56 l 228 34 l 227 17 q 225 -9 225 -12 q 225 -14 230 -34 l 232 -49 q 241 -81 245 -83 l 250 -83 l 258 -91 q 269 -94 279 -102 q 293 -111 295 -115 q 301 -126 301 -140 q 301 -147 289 -154 q 281 -152 278 -152 l 258 -153 l 245 -148 q 226 -143 221 -140 q 205 -130 203 -127 q 200 -123 199 -110 l 196 -107 l 187 -105 q 184 -94 180 -77 l 176 -62 q 176 -49 173 -43 q 169 -34 169 -21 q 169 -15 174 -5 q 166 2 166 6 q 166 8 170 27 q 170 30 170 33 q 170 36 167 56 q 172 76 172 80 q 172 83 168 101 l 170 123 q 170 140 170 142 q 171 144 177 153 q 170 161 169 165 q 169 166 173 181 q 174 184 174 187 q 174 189 170 208 l 169 220 l 167 240 q 167 244 171 254 q 161 260 160 264 l 154 275 q 151 280 118 301 q 117 302 114 314 q 112 326 112 332 q 112 348 122 358 q 124 360 136 366 q 139 368 141 370 q 150 386 161 395 z"},"9":{"x_min":0,"x_max":574,"ha":574,"o":"m 69 -126 q 72 -122 81 -119 q 116 -111 154 -66 l 164 -68 q 175 -61 177 -58 l 188 -42 l 209 -21 q 218 -9 219 -7 q 224 -4 233 1 q 234 9 235 10 l 257 29 q 259 37 261 40 q 272 53 276 58 l 287 71 l 301 92 l 311 104 q 319 121 321 123 q 325 127 335 132 q 339 146 344 153 q 346 156 366 181 q 375 191 375 197 q 375 200 371 205 q 376 213 382 230 l 388 246 l 389 258 q 389 259 396 270 q 405 284 405 297 q 405 302 402 310 q 408 317 409 323 q 413 342 413 345 q 415 350 415 352 q 415 355 412 364 q 409 373 409 383 q 409 391 412 409 q 403 413 401 416 q 400 417 391 438 q 387 447 377 454 q 369 459 358 467 q 359 472 359 476 q 359 483 346 491 l 333 483 q 324 487 320 488 q 306 493 299 498 l 293 492 q 284 497 278 497 q 270 491 265 491 q 264 491 261 492 l 260 491 l 257 498 l 255 496 l 253 486 q 244 481 224 471 q 215 466 200 452 q 179 435 173 426 q 167 417 162 397 l 150 390 q 150 382 154 377 q 155 375 155 372 l 155 372 l 154 354 l 154 353 q 153 346 165 329 q 169 323 174 310 q 176 307 184 300 q 196 286 200 283 q 207 278 213 271 q 213 269 228 269 q 236 255 255 255 l 285 255 q 299 251 304 251 q 315 251 319 252 q 323 253 329 259 q 337 258 340 257 q 349 257 356 252 q 345 234 335 228 q 296 200 247 201 l 237 200 q 222 205 220 205 q 219 205 207 202 q 206 202 205 202 q 200 202 188 206 l 182 216 l 169 213 l 168 213 q 155 218 151 220 q 146 222 137 233 q 133 237 130 241 q 117 256 116 263 l 111 285 l 101 325 l 103 339 q 105 364 105 367 q 106 369 119 388 l 126 401 l 139 415 l 143 428 l 148 432 l 157 439 l 174 453 q 182 466 184 468 q 186 470 212 488 q 224 499 257 518 l 272 526 l 286 537 q 301 546 309 553 q 316 552 322 552 q 324 552 340 557 l 351 553 l 367 549 l 376 544 l 417 535 l 427 524 l 445 513 q 462 499 465 495 q 466 493 468 477 q 469 476 470 473 q 470 472 476 465 q 484 449 486 425 l 488 416 l 488 416 q 488 413 479 397 q 475 389 475 379 q 475 375 477 363 q 478 361 478 359 q 478 357 477 356 q 472 333 472 333 q 472 332 476 330 l 465 322 q 465 314 462 308 l 458 296 l 445 276 q 439 262 436 256 q 433 252 431 248 q 430 242 420 237 q 417 219 417 217 l 406 202 q 403 200 399 180 q 388 175 388 173 q 388 172 384 162 q 382 151 342 99 l 333 100 q 328 91 326 89 q 321 82 321 81 l 320 66 l 286 32 l 280 21 l 260 -1 l 248 -19 l 229 -35 l 220 -48 q 201 -69 200 -70 q 195 -75 183 -78 q 180 -91 171 -100 q 157 -117 151 -120 q 146 -123 132 -126 l 130 -134 q 122 -139 119 -141 q 104 -152 96 -154 q 84 -158 84 -158 q 70 -156 68 -156 q 65 -156 60 -149 q 49 -142 47 -141 q 45 -139 45 -136 q 45 -126 54 -126 l 58 -126 l 62 -126 z"}," ":{"x_min":0,"x_max":213,"ha":213,"o":""},"I":{"x_min":0,"x_max":273,"ha":273,"o":"m 77 -150 q 79 -142 81 -134 q 84 -123 85 -120 q 94 -103 94 -99 q 94 -96 89 -88 q 94 -75 99 -40 q 100 -34 105 -25 q 106 -23 106 -21 q 106 -18 101 -8 q 100 -6 100 -1 l 100 18 l 100 81 q 102 94 103 96 q 104 100 110 104 l 110 121 q 121 131 121 141 q 121 145 121 149 l 122 150 q 118 154 116 164 l 111 185 l 112 197 l 112 217 q 117 240 117 244 q 117 247 113 267 l 115 295 q 115 295 115 297 q 114 302 114 306 l 115 359 q 115 360 117 364 q 117 366 117 368 q 117 375 113 391 q 112 394 112 396 q 112 401 120 405 l 120 435 q 110 440 110 445 q 110 457 113 489 q 114 494 114 497 q 114 498 114 501 q 109 571 109 574 q 109 603 128 619 q 127 632 121 639 l 106 637 q 104 643 104 647 q 104 648 110 682 l 107 688 q 104 695 104 728 q 104 733 103 748 l 90 760 l 82 760 l 81 765 l 81 766 q 81 770 83 772 q 83 773 96 781 l 109 791 l 119 794 q 129 798 141 800 l 146 813 q 167 814 178 821 q 182 810 183 803 q 183 802 182 794 q 182 790 181 781 l 179 703 l 179 670 q 173 666 172 664 q 170 662 170 654 q 170 642 168 631 l 181 629 q 180 618 180 614 q 175 571 168 543 l 176 536 q 176 511 168 479 q 167 476 167 456 l 179 453 q 175 420 174 412 l 174 411 l 175 378 q 175 376 172 369 l 162 358 l 167 333 l 178 332 l 176 327 l 176 245 l 179 227 l 179 200 l 180 181 q 180 173 160 160 q 160 147 163 146 q 163 144 172 137 q 173 129 175 126 q 179 120 179 118 q 179 118 179 116 q 177 111 178 96 l 180 -1 l 170 -11 l 180 -18 l 180 -111 l 180 -118 q 173 -119 172 -120 l 155 -132 q 151 -134 132 -138 q 123 -143 114 -148 q 104 -154 93 -154 q 87 -154 77 -150 z"},"H":{"x_min":0,"x_max":989,"ha":989,"o":"m 86 756 q 92 762 93 763 l 114 773 q 134 787 149 791 q 169 796 188 812 q 189 813 190 813 l 190 813 l 199 808 q 198 801 190 792 l 201 787 q 183 773 180 767 l 167 729 l 154 716 l 193 704 q 191 701 190 700 q 189 699 188 699 l 188 699 l 176 703 q 177 692 178 692 q 179 689 190 685 l 193 681 l 193 606 l 193 595 q 193 584 193 584 q 193 584 190 579 q 188 575 187 566 q 197 560 197 554 q 197 548 194 541 q 219 549 231 549 q 253 549 278 541 q 282 539 295 523 q 298 521 323 514 l 377 536 q 377 536 379 536 q 383 524 389 519 l 400 527 l 411 525 q 416 529 418 529 q 420 529 423 528 l 431 536 l 431 538 q 438 537 440 535 q 451 531 455 531 q 455 531 455 531 q 472 535 474 535 l 518 534 l 530 534 l 542 535 q 569 535 574 536 q 577 536 587 541 q 601 538 602 538 q 604 538 617 541 l 630 542 q 650 547 651 547 q 656 547 664 542 q 670 542 673 542 q 680 542 685 539 q 692 534 700 534 q 711 548 716 551 q 720 553 753 554 l 773 555 l 786 553 l 804 555 l 818 554 q 826 554 829 561 q 830 564 834 581 q 822 605 822 606 q 822 606 826 622 l 826 644 q 828 649 828 652 q 828 656 822 663 l 826 676 l 826 676 q 826 681 813 688 q 812 689 812 689 q 812 693 816 705 q 818 713 818 726 q 818 731 812 740 q 812 744 812 745 q 812 750 812 757 q 796 759 796 769 q 796 772 799 775 q 800 776 814 785 q 832 795 835 796 q 846 800 848 804 q 860 807 864 809 q 886 818 890 818 q 892 818 897 815 q 895 802 894 751 q 894 748 889 726 l 876 724 q 873 714 873 709 q 873 707 875 700 q 885 695 886 692 l 889 685 l 895 675 q 892 657 892 655 q 892 653 892 650 q 894 634 894 630 q 894 592 888 576 q 896 568 896 561 q 896 557 885 544 q 882 539 881 521 l 892 519 l 892 422 q 892 418 886 406 q 883 397 883 392 l 892 385 q 889 377 889 373 q 889 367 889 361 q 885 357 882 357 q 880 357 877 358 q 879 344 883 343 q 890 339 894 336 q 889 313 889 305 q 889 301 890 296 q 893 276 893 271 q 893 268 888 259 l 877 261 l 877 256 l 885 251 q 891 203 892 172 q 877 166 877 159 q 877 140 892 128 q 892 124 888 112 q 893 90 893 89 q 893 86 892 77 q 891 70 891 61 q 891 50 892 44 q 894 38 894 35 q 894 30 892 30 l 855 18 l 893 0 l 892 -11 q 892 -12 895 -20 q 895 -20 895 -20 q 895 -21 891 -23 q 854 -40 854 -52 q 854 -65 886 -77 q 905 -84 905 -92 q 894 -98 891 -100 q 879 -107 861 -115 l 850 -120 q 829 -136 824 -138 q 814 -142 810 -142 q 801 -142 801 -136 l 802 -105 q 802 -102 799 -94 q 811 -82 812 -75 q 813 -68 813 -49 q 813 -36 814 -32 q 816 -15 828 -9 l 856 6 q 819 21 819 22 q 819 24 857 42 l 823 78 q 830 89 831 102 l 831 103 q 831 105 828 113 q 826 121 826 123 l 827 207 q 827 208 826 214 q 838 223 838 228 q 838 232 834 239 q 832 243 830 252 l 818 255 q 822 277 822 279 q 822 333 823 345 l 826 345 q 830 350 831 359 q 832 370 833 378 q 825 386 825 393 q 825 396 825 411 q 825 411 825 421 l 823 447 q 823 449 826 468 q 830 488 846 492 l 849 503 l 845 503 q 838 503 830 509 q 796 509 785 507 q 770 506 768 506 q 764 506 736 508 q 726 509 713 509 q 699 509 682 508 l 673 508 q 656 507 653 506 q 637 504 632 504 q 626 504 616 510 q 604 519 600 519 q 597 519 586 510 q 580 505 569 505 q 566 505 535 506 q 529 506 524 506 q 508 506 485 501 q 438 500 437 500 q 434 500 419 502 q 399 491 395 491 q 394 491 359 496 l 345 517 l 325 495 l 302 499 l 290 495 l 275 495 l 248 493 l 236 494 q 224 494 209 496 q 207 496 204 496 q 200 496 193 492 l 193 420 q 193 391 194 384 q 196 373 196 367 q 196 367 196 367 q 196 364 196 360 l 197 334 q 197 333 195 331 q 190 324 190 323 l 193 306 q 194 304 190 295 q 190 294 190 294 q 195 265 195 263 q 195 251 185 226 q 192 219 193 215 l 194 207 q 195 206 197 200 q 199 195 199 193 q 199 192 198 175 l 190 160 l 190 130 q 187 115 187 107 q 187 100 188 97 q 191 93 201 89 q 198 78 197 52 l 195 36 l 197 6 l 197 -84 l 196 -91 l 189 -95 l 194 -106 q 186 -112 183 -115 q 166 -128 147 -136 l 146 -134 l 146 -132 q 128 -132 126 -136 q 124 -138 120 -147 l 103 -149 q 104 -132 104 -126 q 104 -116 110 -99 q 110 -84 111 -83 q 115 -75 116 -44 l 118 15 q 119 25 121 27 q 121 27 129 34 q 131 36 131 41 q 131 48 130 58 l 125 58 q 122 64 122 68 l 125 90 l 125 114 q 127 124 130 137 q 138 139 145 143 l 143 173 l 131 174 q 129 182 129 211 q 125 233 125 240 q 125 246 128 276 q 129 284 129 294 q 129 303 128 312 q 126 327 126 335 q 126 348 140 351 q 139 363 139 367 q 139 377 137 381 q 134 386 124 390 q 125 401 128 416 q 129 422 129 427 q 129 431 123 451 q 125 461 125 463 l 125 465 l 124 516 l 124 521 q 124 525 127 532 l 134 530 q 136 537 136 542 q 136 545 125 564 q 124 566 124 571 q 124 578 132 592 l 122 593 l 119 608 l 126 611 l 128 629 q 119 635 117 643 q 113 660 113 670 q 113 677 115 682 q 118 689 118 692 q 118 692 114 707 l 115 718 l 115 718 q 115 722 111 730 q 109 734 105 744 q 96 744 96 746 q 93 746 86 756 z"},"4":{"x_min":0,"x_max":574,"ha":574,"o":"m 1 254 q 3 269 6 276 q 9 279 19 285 l 36 299 l 48 305 l 67 322 l 78 327 l 102 343 l 122 353 l 138 365 q 150 370 156 375 q 160 377 175 392 q 178 395 195 402 l 214 420 l 228 428 l 235 441 l 248 450 l 261 472 l 273 489 q 282 502 282 502 q 283 503 291 507 q 297 511 306 524 q 306 525 313 535 q 321 543 331 561 q 337 574 352 574 q 357 574 364 568 q 363 564 363 561 q 363 558 365 553 q 368 548 369 535 q 371 520 371 517 q 371 512 370 507 q 369 493 369 486 q 369 484 371 471 l 368 460 l 367 442 l 363 430 l 369 400 q 368 380 368 363 q 367 356 357 327 q 363 316 365 307 l 383 307 l 388 299 q 399 311 403 311 l 404 311 q 411 311 419 309 q 428 307 430 307 q 434 307 450 310 q 457 312 465 312 q 484 312 513 319 q 534 327 537 327 q 539 327 545 324 q 555 335 562 335 q 573 335 573 326 q 573 315 554 307 q 546 298 530 291 l 530 280 q 525 277 521 271 q 516 266 507 266 q 504 266 499 265 q 497 265 496 265 q 488 265 472 282 q 462 293 455 293 q 454 293 430 284 q 405 266 401 266 l 376 269 l 375 269 q 369 269 366 261 q 361 251 361 237 l 361 199 q 359 171 359 169 q 359 165 363 158 l 354 151 l 355 139 l 351 134 l 351 131 l 363 123 q 363 112 368 88 l 369 79 l 371 66 l 370 43 q 370 40 371 31 l 367 30 q 365 23 363 21 q 362 20 348 13 l 329 0 q 324 1 316 -1 q 308 -19 297 -19 q 285 -19 285 -3 q 285 5 297 14 q 296 18 296 21 q 296 25 301 37 l 301 50 q 313 72 313 75 l 312 83 l 312 110 l 308 123 l 335 171 l 310 186 l 310 186 q 310 188 311 199 q 312 206 319 215 l 317 243 l 307 240 l 306 242 q 306 246 306 250 q 306 254 304 260 q 281 262 276 262 q 273 262 246 257 l 232 260 l 222 260 l 205 261 l 193 258 l 180 282 l 167 259 q 165 256 158 256 q 153 256 126 260 q 119 271 114 271 q 112 271 98 258 q 94 255 89 255 q 83 255 70 256 q 63 257 57 257 q 51 257 46 256 q 37 254 36 254 q 35 254 33 254 q 29 254 1 254 z m 292 296 l 299 303 l 299 305 l 318 305 q 322 323 322 335 l 317 366 l 317 366 q 316 371 327 382 q 329 388 329 392 q 329 395 320 406 q 312 414 312 425 l 313 451 q 313 463 304 463 q 295 463 290 444 q 277 442 266 430 q 250 412 234 398 l 227 390 l 179 350 l 167 339 q 138 318 134 312 q 126 300 126 291 q 126 288 131 283 l 153 309 l 174 303 l 193 303 q 199 303 214 297 q 216 296 216 296 q 219 296 229 302 q 231 303 232 303 q 234 303 241 293 l 252 291 l 264 276 l 265 276 q 273 291 277 294 q 280 297 287 297 q 289 297 292 296 z"},"~":{"x_min":0,"x_max":574,"ha":574,"o":"m 21 233 l 21 237 l 50 253 l 50 275 l 70 278 l 62 291 q 70 296 73 298 q 82 305 90 312 l 109 321 q 114 324 125 342 l 150 341 l 158 359 l 192 344 q 208 354 217 354 q 229 354 235 340 q 246 345 250 348 q 257 352 261 352 q 265 352 283 327 l 302 332 q 319 314 331 314 q 335 314 358 318 l 365 298 l 402 306 q 412 299 415 299 l 440 303 q 460 303 465 305 l 470 323 l 491 321 q 498 331 506 351 q 508 355 518 364 q 527 372 531 372 q 535 372 551 356 q 540 345 537 338 q 534 332 533 318 q 524 312 522 311 q 505 300 500 293 q 496 287 487 269 l 467 273 l 455 259 q 450 260 448 260 q 443 260 437 258 q 434 256 420 243 q 416 238 412 238 q 407 238 394 248 q 390 244 390 244 l 354 246 q 353 246 350 241 l 341 254 l 312 246 q 308 258 300 288 q 299 293 285 304 q 274 312 266 318 l 251 282 q 249 276 244 276 q 239 276 225 285 q 218 290 196 294 q 177 297 162 303 q 144 291 136 291 q 131 291 121 296 q 113 282 110 280 q 109 279 90 273 q 82 270 78 256 q 74 243 71 235 l 54 242 q 45 228 38 228 q 31 228 21 233 z"},"D":{"x_min":0,"x_max":988,"ha":988,"o":"m 70 766 q 78 766 91 780 q 104 780 106 780 q 115 780 117 780 l 143 781 q 146 781 167 771 q 168 771 169 771 q 171 771 179 775 l 185 775 l 276 778 q 280 779 288 773 q 292 771 301 768 l 309 776 q 336 776 364 772 l 366 773 q 374 762 381 762 q 388 762 395 774 q 408 773 418 773 l 487 764 l 508 764 q 524 760 537 759 q 539 749 542 748 q 544 747 562 745 q 567 756 573 756 q 574 756 583 753 l 600 752 q 604 752 616 745 q 632 735 636 735 l 646 738 l 691 719 q 735 710 741 706 q 747 701 748 701 l 758 700 q 769 691 774 688 l 795 672 l 817 658 q 835 644 847 639 q 844 628 844 624 q 844 611 852 611 q 859 611 867 614 q 876 603 893 587 q 904 576 903 573 l 907 559 l 919 525 l 920 502 l 928 472 l 930 435 l 933 419 l 931 382 q 930 354 926 339 q 923 326 915 304 l 906 304 q 906 302 906 300 q 906 299 911 290 q 912 288 912 286 q 912 279 908 270 q 904 260 904 258 q 896 235 890 235 q 884 235 877 250 l 867 233 l 870 227 l 868 217 l 876 205 q 869 194 855 166 l 843 150 l 841 145 l 819 122 l 816 113 l 802 96 q 794 87 792 87 q 789 87 785 91 l 777 91 l 771 100 q 762 90 762 84 q 762 80 769 72 q 757 61 739 49 q 729 42 723 35 q 708 41 692 43 l 690 37 q 696 28 698 22 q 689 13 665 -3 l 632 -21 q 628 -22 616 -34 q 604 -24 595 -23 q 592 -39 586 -43 q 584 -45 556 -52 q 553 -53 549 -56 q 531 -71 530 -71 l 519 -71 q 517 -71 505 -80 q 503 -82 484 -88 q 480 -90 475 -92 q 446 -106 434 -108 q 421 -109 402 -115 l 355 -131 l 323 -134 l 311 -138 l 302 -139 l 284 -141 l 273 -141 l 253 -146 l 225 -147 l 187 -150 l 178 -149 q 165 -149 158 -148 l 84 -151 q 83 -151 80 -152 q 78 -153 77 -153 q 64 -153 64 -141 q 64 -137 67 -135 q 70 -133 89 -125 q 109 -118 118 -112 q 120 -99 127 -89 q 126 -73 126 -66 l 132 -29 l 132 -28 q 132 -23 131 -17 q 129 -10 129 -10 q 129 -8 136 21 q 137 25 137 29 q 137 34 131 47 l 171 59 l 132 121 q 132 121 133 123 q 152 126 152 135 q 152 141 145 150 q 141 148 137 148 q 129 148 129 165 l 130 177 l 130 243 q 130 250 129 254 q 129 259 129 260 q 129 268 137 281 l 129 287 l 129 301 l 137 309 q 127 318 127 331 l 127 333 l 127 344 q 127 373 126 385 q 125 392 125 396 q 125 400 128 407 q 134 406 139 406 q 145 406 145 411 q 145 413 139 418 q 135 425 130 428 q 118 429 117 439 l 117 439 l 121 466 l 117 563 l 120 566 l 124 566 q 129 582 129 587 q 129 594 115 601 q 114 612 106 645 l 105 663 q 101 676 101 689 q 101 702 96 736 q 85 736 82 736 q 79 737 79 737 q 77 737 68 734 q 63 731 48 731 q 45 738 45 742 q 45 753 59 759 q 67 762 70 766 z m 174 656 l 186 656 q 189 646 192 625 l 194 614 l 193 583 l 195 564 q 188 548 188 546 q 188 544 191 531 l 189 495 l 190 485 l 190 469 q 194 453 194 450 q 194 446 191 441 l 179 445 q 176 439 176 436 q 176 427 183 425 q 184 425 188 424 q 193 424 200 421 q 190 411 185 407 q 161 390 161 379 q 161 377 201 317 q 196 296 196 279 l 184 274 l 187 269 l 199 265 l 200 260 l 200 190 q 200 125 202 121 q 203 117 203 115 q 203 114 200 99 q 200 94 200 91 q 200 82 205 51 q 206 48 206 45 q 206 41 202 35 l 182 41 q 177 33 177 28 q 177 12 195 12 q 197 12 200 12 q 201 1 203 -9 q 205 -18 205 -42 q 205 -49 209 -78 q 194 -88 189 -101 l 175 -107 l 175 -110 l 176 -112 q 181 -110 182 -110 l 208 -111 q 225 -111 227 -111 q 229 -112 236 -116 l 243 -106 q 250 -107 252 -107 l 301 -106 q 302 -106 310 -109 q 314 -100 319 -97 q 326 -94 339 -94 l 344 -94 q 372 -94 379 -91 l 392 -85 l 412 -80 q 455 -62 464 -56 l 480 -52 q 506 -41 509 -40 q 511 -40 521 -39 l 546 -25 q 564 -21 565 -19 q 566 -18 566 -13 q 576 -9 580 -7 q 597 0 624 18 q 639 25 644 28 q 647 31 692 68 l 720 90 l 734 111 l 758 133 q 761 136 767 146 q 770 154 799 188 q 799 189 804 201 q 806 205 814 221 q 820 233 820 248 q 821 257 831 280 q 841 303 839 308 l 840 331 l 844 357 q 846 373 848 380 q 866 384 866 407 q 866 421 848 429 q 847 442 842 464 l 841 478 q 835 496 835 499 q 835 505 837 515 q 827 523 818 539 q 804 564 803 566 q 802 567 801 580 l 795 585 q 788 585 784 586 q 779 587 767 598 q 770 605 770 611 q 770 614 765 620 q 758 621 752 621 q 750 621 739 619 q 738 619 738 619 q 735 619 708 641 l 686 654 l 671 666 l 656 673 l 621 691 l 606 696 l 594 700 l 569 704 l 550 709 l 511 715 l 481 722 q 442 729 439 730 q 438 731 430 738 q 425 743 422 743 q 418 743 411 739 q 405 736 401 736 q 401 736 385 738 l 365 739 l 313 742 l 271 741 l 248 741 l 243 741 l 240 741 q 234 741 229 743 q 215 749 214 749 q 213 749 206 746 q 202 744 194 743 q 189 735 189 733 l 191 715 l 187 701 q 185 684 182 674 l 173 677 q 168 669 168 665 q 168 662 170 660 z"},"^":{"x_min":0,"x_max":574,"ha":574,"o":"m 55 501 q 62 511 74 531 q 89 551 89 555 q 91 560 91 572 q 104 584 108 588 q 119 599 122 605 q 122 606 127 628 q 130 637 135 641 q 140 646 153 646 l 157 665 l 171 675 l 173 694 l 187 705 q 186 708 186 711 q 186 716 188 720 q 189 721 205 729 q 215 750 222 758 q 222 762 222 764 q 222 772 226 777 l 243 784 q 240 795 240 800 q 240 811 253 817 q 271 825 273 828 q 279 839 288 859 q 299 842 313 832 l 311 814 q 329 799 336 773 q 352 768 354 763 q 358 757 361 735 l 380 723 q 383 714 384 711 q 388 695 391 694 q 396 689 419 681 l 415 641 q 425 639 429 639 q 446 637 450 631 q 456 623 456 610 q 456 597 459 588 l 479 583 l 478 562 l 497 558 q 502 547 515 525 q 522 513 525 505 l 503 492 l 476 504 q 467 492 461 492 q 455 492 431 517 q 416 530 415 531 q 414 532 412 538 q 410 543 410 557 l 390 561 q 385 571 383 574 q 373 592 373 602 q 373 605 373 610 l 354 617 q 351 639 346 647 q 344 650 325 665 q 318 671 316 677 q 316 679 315 694 q 314 700 307 705 l 302 708 q 300 708 294 712 l 292 729 l 275 736 l 272 755 l 271 755 q 263 740 254 734 q 247 729 239 722 l 244 696 l 223 688 q 221 678 220 675 q 214 645 209 642 q 205 638 188 638 q 189 630 189 625 q 189 613 185 607 q 183 605 166 594 q 155 587 155 575 q 155 570 155 564 l 137 556 q 129 520 108 500 q 104 495 102 495 q 101 495 83 502 q 78 504 75 504 q 66 504 55 501 z"},"0":{"x_min":0,"x_max":574,"ha":574,"o":"m 34 247 l 38 249 q 44 249 50 251 q 45 263 45 269 q 45 271 46 276 l 37 271 q 36 283 36 292 q 36 310 44 320 q 49 326 63 333 l 63 336 l 58 342 q 62 353 85 394 q 104 426 113 426 q 116 426 121 425 q 126 433 133 436 l 129 443 q 136 449 140 452 q 163 469 179 478 q 193 485 205 493 l 205 495 l 208 499 l 219 492 q 231 500 235 501 q 256 513 270 523 l 271 522 q 275 521 276 521 l 291 524 l 324 525 l 341 528 l 342 528 q 346 528 370 514 q 371 513 382 513 l 384 511 q 385 491 397 490 q 398 501 402 505 l 445 494 l 443 480 l 458 478 q 467 466 485 452 q 500 431 506 421 l 504 405 q 518 403 529 366 q 534 353 535 341 l 525 339 q 531 335 533 327 l 539 325 q 544 306 544 295 q 544 290 543 285 q 538 259 538 259 l 539 250 l 539 250 q 537 244 528 219 q 508 218 508 206 q 508 198 514 190 q 520 182 520 179 q 520 177 511 158 q 495 120 494 117 q 492 115 472 97 l 458 81 q 409 53 406 49 q 401 45 398 35 l 382 35 q 376 28 364 22 q 351 16 340 8 q 336 9 333 9 q 330 9 313 3 q 312 3 312 3 q 311 3 310 3 q 290 7 283 7 q 279 7 271 -1 q 260 1 256 1 q 236 5 210 14 l 209 11 l 208 10 q 199 14 191 14 l 190 16 l 189 21 l 177 16 q 168 23 156 27 l 156 29 q 149 30 146 31 q 145 32 136 42 q 124 52 117 59 l 109 61 q 103 72 103 80 q 103 83 103 86 q 99 92 96 92 q 91 92 85 86 q 80 95 65 110 q 62 113 51 145 l 42 162 l 40 174 l 36 183 l 34 197 q 30 212 30 214 q 30 216 33 229 l 31 241 q 31 242 34 247 z m 145 123 q 142 116 142 113 q 142 107 147 100 q 149 96 154 96 q 159 96 168 101 q 176 92 188 87 q 210 77 221 74 l 157 62 l 218 55 q 229 60 236 61 l 236 62 l 235 62 l 235 65 q 250 58 257 56 q 262 54 285 53 q 305 50 307 50 q 310 50 335 58 q 376 64 381 67 q 384 69 404 86 l 416 94 l 430 112 q 449 130 450 132 q 451 133 454 140 q 456 146 459 161 l 470 168 q 469 175 469 180 q 469 183 476 200 q 476 202 476 204 q 476 209 470 219 q 479 224 483 230 l 472 240 q 474 254 474 266 q 474 276 473 290 q 473 299 473 301 q 474 333 470 333 l 458 362 q 464 379 464 381 q 464 390 456 390 q 451 390 443 381 q 439 392 430 401 q 432 407 432 412 q 432 416 427 422 q 416 418 410 418 q 400 418 392 430 q 393 436 393 439 q 393 446 386 450 q 384 451 374 452 q 368 453 364 458 q 353 463 349 467 q 342 472 342 472 q 319 470 319 470 q 312 470 291 473 q 283 474 277 474 q 263 474 232 469 l 225 463 q 218 463 210 459 q 207 458 202 456 q 169 444 162 436 l 148 422 l 132 411 l 118 383 l 101 366 l 97 353 l 83 327 l 77 295 q 69 269 69 264 q 69 220 73 207 q 76 199 100 167 q 135 133 145 123 z"}}}
